{"glyphs":{"0":{"ha":935,"x_min":0,"x_max":0,"o":"m 467 -18 b 912 466 713 -18 912 186 b 467 949 912 745 713 949 b 22 466 222 949 22 745 b 467 -18 22 186 222 -18 z m 400 857 b 616 491 489 872 589 647 b 535 74 643 335 624 90 b 318 440 445 59 345 284 b 400 857 291 596 310 841 z "},"1":{"ha":590,"x_min":0,"x_max":0,"o":"m 567 840 b 406 934 567 892 504 928 b 335 930 382 936 356 933 b 77 813 217 908 133 871 b 66 575 2 734 9 630 b 245 528 134 509 245 486 b 197 626 246 560 201 564 b 295 805 204 669 228 822 b 241 91 404 778 241 132 b 404 -6 241 26 314 -6 b 567 91 494 -6 567 26 b 547 465 567 132 547 266 b 567 840 547 670 567 799 z "},"2":{"ha":836,"x_min":0,"x_max":0,"o":"m 811 675 b 452 937 829 839 748 941 b 77 813 268 934 149 889 b 66 575 2 734 9 630 b 245 528 134 509 245 486 b 197 626 246 560 201 564 b 567 807 258 792 492 898 b 307 485 658 696 568 613 b 49 122 35 352 46 210 b 221 0 53 -25 116 8 b 733 58 386 -12 614 -2 b 719 345 863 123 812 343 b 235 231 581 348 212 20 b 811 675 250 373 777 347 z "},"3":{"ha":835,"x_min":0,"x_max":0,"o":"m 666 465 b 811 675 753 501 811 567 b 452 937 812 808 723 937 b 77 813 268 937 149 889 b 66 575 2 734 9 630 b 245 528 134 509 245 486 b 197 626 246 560 201 564 b 526 776 223 782 403 843 b 423 524 678 692 666 536 b 425 429 383 522 391 430 b 430 429 427 429 429 429 l 430 429 b 550 247 580 429 629 305 b 141 345 407 142 278 348 b 127 58 47 343 -3 123 b 558 0 246 -2 393 -12 b 812 250 663 8 811 47 b 666 465 812 315 797 411 z "},"4":{"ha":821,"x_min":0,"x_max":0,"o":"m 798 841 b 635 938 798 905 726 938 b 472 841 545 938 472 905 b 341 448 472 803 476 427 b 368 834 258 460 368 797 b 205 931 368 899 295 931 b 42 834 115 931 42 899 b 22 415 42 793 22 620 b 410 384 22 215 286 393 b 472 92 535 375 472 130 b 635 -5 472 27 545 -5 b 798 92 726 -5 798 27 b 778 466 798 133 778 266 b 798 841 778 671 798 800 z "},"5":{"ha":828,"x_min":0,"x_max":0,"o":"m 228 701 b 712 588 205 912 676 763 b 726 875 731 496 856 810 b 214 933 607 934 379 945 b 42 811 109 925 47 958 b 300 448 39 722 42 604 b 561 103 593 270 650 151 b 271 368 428 32 328 289 b 75 350 231 423 144 416 b 86 112 18 295 -12 229 b 445 -4 154 32 261 -2 b 805 258 741 -9 805 93 b 228 701 805 571 244 559 z "},"6":{"ha":797,"x_min":0,"x_max":0,"o":"m 398 627 b 335 622 377 627 356 625 b 628 747 392 731 503 785 b 462 921 730 715 655 859 b 22 387 281 978 22 755 b 398 -4 22 78 191 -4 b 774 311 606 -4 774 129 b 398 627 774 494 606 627 z m 521 338 b 435 89 536 245 510 99 b 269 305 359 79 285 212 b 355 553 254 397 280 543 b 521 338 431 563 505 430 z "},"7":{"ha":713,"x_min":0,"x_max":0,"o":"m 496 933 b 31 825 333 940 56 937 b 95 618 -4 667 74 537 b 367 731 121 718 309 811 b 86 93 439 632 100 133 b 213 -4 62 28 123 -4 b 412 93 303 -4 388 28 b 528 467 426 133 455 267 b 684 841 602 672 669 801 b 496 933 708 906 655 935 z "},"8":{"ha":797,"x_min":0,"x_max":0,"o":"m 571 553 b 685 729 640 592 685 654 b 398 946 685 855 556 946 b 112 729 240 946 112 855 b 226 553 112 654 157 592 b 22 290 105 506 22 409 b 398 -4 22 120 191 -4 b 774 290 606 -4 774 120 b 571 553 774 409 692 506 z m 356 877 b 475 743 402 886 458 803 b 448 582 491 687 489 596 b 322 714 393 564 335 666 b 356 877 305 773 310 869 z m 454 89 b 298 270 393 77 320 190 b 343 491 276 350 282 479 b 499 310 404 503 477 390 b 454 89 521 230 514 101 z "},"9":{"ha":797,"x_min":0,"x_max":0,"o":"m 398 298 b 462 303 420 298 441 300 b 168 179 405 195 293 140 b 335 5 67 210 141 66 b 774 538 515 -53 774 171 b 398 930 774 847 606 930 b 22 614 191 930 22 796 b 398 298 22 431 191 298 z m 276 588 b 362 836 260 680 286 826 b 527 620 437 846 511 713 b 441 372 543 528 517 382 b 276 588 366 362 292 495 z "},"\u0000":{"ha":0,"x_min":0,"x_max":0,"o":""},"\n":{"ha":0,"x_min":0,"x_max":0,"o":""},"\r":{"ha":0,"x_min":0,"x_max":0,"o":""}," ":{"ha":347,"x_min":0,"x_max":0,"o":""},"!":{"ha":340,"x_min":0,"x_max":0,"o":"m 256 54 b 206 175 275 101 253 155 b 85 125 158 195 104 172 b 135 4 65 78 88 24 b 256 54 182 -16 236 7 z m 170 931 b 28 834 91 931 28 899 b 69 262 28 793 69 302 b 271 262 69 197 271 197 b 312 834 271 302 312 793 b 170 931 312 899 249 931 z "},"\"":{"ha":351,"x_min":0,"x_max":0,"o":"m 83 931 b 29 874 55 926 33 902 b 86 793 22 835 49 801 b 113 788 98 790 111 794 b 80 766 116 776 85 783 b 118 743 74 749 103 733 b 169 862 132 753 172 785 b 83 931 167 906 129 941 z m 323 862 b 238 931 322 906 283 941 b 183 874 210 926 188 902 b 240 793 177 835 204 801 b 267 788 253 790 266 794 b 234 766 271 776 240 783 b 273 743 228 749 257 733 b 323 862 287 753 326 785 z "},"”":{"ha":351,"x_min":0,"x_max":0,"o":"m 83 931 b 29 874 55 926 33 902 b 86 793 22 835 49 801 b 113 788 98 790 111 794 b 80 766 116 776 85 783 b 118 743 74 749 103 733 b 169 862 132 753 172 785 b 83 931 167 906 129 941 z m 323 862 b 238 931 322 906 283 941 b 183 874 210 926 188 902 b 240 793 177 835 204 801 b 267 788 253 790 266 794 b 234 766 271 776 240 783 b 273 743 228 749 257 733 b 323 862 287 753 326 785 z "},"#":{"ha":979,"x_min":0,"x_max":0,"o":"m 839 944 b 660 847 759 944 684 911 b 622 681 651 822 643 766 b 513 680 578 681 539 680 b 592 847 552 765 583 822 b 484 944 616 911 563 944 b 306 847 405 944 330 911 b 268 685 297 823 289 768 b 172 687 218 686 178 687 b 134 625 147 687 134 659 b 172 562 134 590 147 562 b 234 564 176 562 201 563 b 203 472 225 535 215 505 b 183 419 197 454 190 436 b 77 422 128 421 84 422 b 40 359 52 422 40 394 b 77 297 40 325 52 297 b 131 298 81 297 102 297 b 33 98 84 195 43 125 b 141 1 10 33 62 1 b 320 98 220 1 296 33 b 373 304 330 126 342 197 b 403 304 384 304 395 304 b 488 303 422 304 452 304 b 388 98 439 197 398 126 b 495 1 364 33 416 1 b 674 98 574 1 650 33 b 725 298 684 125 696 195 b 790 297 761 297 786 297 b 827 359 815 297 827 325 b 790 422 827 394 815 422 b 763 421 787 422 778 422 b 781 472 769 438 775 455 b 816 564 793 505 805 535 b 884 562 854 563 880 562 b 922 625 909 562 922 590 b 884 687 922 659 909 687 b 870 687 883 687 878 687 b 946 847 908 769 938 823 b 839 944 970 911 918 944 z m 563 465 b 454 387 536 407 487 372 b 443 520 421 402 416 462 b 551 598 469 579 518 613 b 563 465 584 583 589 523 z "},"$":{"ha":836,"x_min":0,"x_max":0,"o":"m 507 540 b 159 744 234 621 144 666 b 287 829 169 792 227 823 b 617 697 408 841 585 776 b 623 567 646 626 614 597 b 777 670 639 513 729 592 b 506 947 885 842 698 936 b 509 1022 507 987 509 1009 b 467 1069 509 1053 490 1069 b 424 1022 443 1069 424 1053 b 427 947 424 1009 426 986 b 413 946 423 947 418 946 b 51 738 277 934 101 872 b 94 452 6 618 30 521 b 569 295 221 313 597 446 b 126 311 548 179 336 292 b 49 107 41 319 6 229 b 375 -1 90 -12 225 -9 b 427 3 393 0 410 2 b 424 -62 426 -30 424 -50 b 467 -109 424 -93 443 -109 b 509 -62 490 -109 509 -93 b 506 14 509 -49 507 -26 b 789 270 662 43 787 113 b 507 540 791 369 786 457 z "},"%":{"ha":989,"x_min":0,"x_max":0,"o":"m 438 756 b 233 931 438 876 346 931 b 28 756 120 931 28 870 b 233 580 28 629 120 580 b 438 756 346 580 438 633 z m 294 744 b 209 627 281 674 242 621 b 172 767 175 633 159 698 b 257 884 185 837 224 890 b 294 744 290 878 307 814 z m 756 353 b 551 178 643 353 551 292 b 756 3 551 52 643 3 b 961 178 869 3 961 56 b 756 353 961 299 869 353 z m 817 166 b 731 50 804 97 765 43 b 695 190 698 56 682 120 b 780 306 708 259 747 313 b 817 166 813 300 830 236 z m 761 847 b 678 944 784 911 743 944 b 525 847 613 944 549 911 b 413 472 510 806 487 677 b 253 98 340 272 267 138 b 335 1 229 33 270 1 b 488 98 400 1 465 33 b 597 472 503 138 524 272 b 761 847 671 677 746 806 z "},"&":{"ha":779,"x_min":0,"x_max":0,"o":"m 670 158 b 738 535 670 158 791 411 b 556 515 708 606 547 578 b 517 386 573 397 585 335 b 308 719 467 425 314 674 b 371 803 302 756 336 804 b 451 722 423 800 435 741 b 553 845 496 668 625 774 b 398 929 516 882 470 922 b 110 734 264 942 95 895 b 203 588 116 672 160 629 b 55 162 153 557 -44 449 b 519 49 147 -104 458 29 b 519 49 519 49 519 49 b 706 108 561 -37 731 39 b 670 158 701 123 680 145 z m 400 144 b 250 243 352 122 284 166 b 275 421 215 319 227 399 b 426 322 324 443 391 399 b 400 144 460 246 449 166 z "},"'":{"ha":197,"x_min":0,"x_max":0,"o":"m 169 862 b 83 931 167 906 129 941 b 29 874 55 926 33 902 b 86 793 22 835 49 801 b 113 788 98 790 111 794 b 80 766 116 776 85 783 b 118 743 74 749 103 733 b 169 862 132 753 172 785 z "},"’":{"ha":197,"x_min":0,"x_max":0,"o":"m 169 862 b 83 931 167 906 129 941 b 29 874 55 926 33 902 b 86 793 22 835 49 801 b 113 788 98 790 111 794 b 80 766 116 776 85 783 b 118 743 74 749 103 733 b 169 862 132 753 172 785 z "},"(":{"ha":411,"x_min":0,"x_max":0,"o":"m 372 -27 b 256 416 289 54 256 222 b 353 880 256 591 281 761 b 230 969 384 932 281 1011 b 28 435 100 862 28 690 b 256 -120 28 155 121 -15 b 372 -27 312 -164 417 -71 z "},")":{"ha":411,"x_min":0,"x_max":0,"o":"m 181 969 b 58 880 129 1011 26 932 b 154 416 130 761 154 591 b 39 -27 154 222 122 54 b 155 -120 -6 -71 99 -164 b 383 435 290 -15 383 155 b 181 969 383 690 311 862 z "},"*":{"ha":240,"x_min":0,"x_max":0,"o":"m 205 825 b 187 833 202 827 195 829 b 205 841 195 837 202 840 b 206 881 216 848 215 864 b 172 901 197 897 184 907 b 152 888 168 899 162 894 b 154 911 153 899 154 907 b 120 931 154 924 139 931 b 87 911 102 931 87 924 b 88 888 87 907 87 899 b 69 901 79 894 72 899 b 35 881 57 907 44 897 b 36 841 26 864 24 848 b 54 833 39 840 45 837 b 36 825 45 829 39 827 b 35 786 24 819 26 802 b 69 766 44 769 57 760 b 88 779 72 768 79 773 b 87 756 87 768 87 760 b 120 736 87 742 102 736 b 154 756 139 736 154 742 b 152 779 154 760 153 768 b 172 766 162 773 168 768 b 206 786 184 760 197 769 b 205 825 215 802 216 819 z "},"+":{"ha":386,"x_min":0,"x_max":0,"o":"m 321 420 b 250 414 310 420 289 416 b 256 485 252 453 256 474 b 193 523 256 510 228 523 b 130 485 158 523 130 510 b 137 414 130 474 134 453 b 65 420 98 416 76 420 b 28 357 40 420 28 392 b 65 295 28 323 40 295 b 137 301 76 295 98 298 b 130 229 134 262 130 240 b 193 192 130 204 158 192 b 256 229 228 192 256 204 b 250 301 256 240 252 262 b 321 295 289 299 310 295 b 358 357 346 295 358 323 b 321 420 358 392 346 420 z "},",":{"ha":197,"x_min":0,"x_max":0,"o":"m 169 71 b 83 140 167 115 129 150 b 29 83 55 134 33 111 b 86 2 22 43 49 10 b 113 -3 98 -1 111 2 b 80 -25 116 -15 85 -8 b 118 -48 74 -43 103 -58 b 169 71 132 -39 172 -6 z "},"-":{"ha":386,"x_min":0,"x_max":0,"o":"m 321 420 b 193 412 306 420 272 412 b 65 420 116 412 81 420 b 28 357 40 420 28 392 b 65 295 28 323 40 295 b 193 302 81 295 116 302 b 321 295 272 302 306 295 b 358 357 346 295 358 323 b 321 420 358 392 346 420 z "},".":{"ha":197,"x_min":0,"x_max":0,"o":"m 110 2 b 168 82 148 8 174 44 b 87 141 162 121 125 147 b 29 60 49 134 22 98 b 110 2 35 21 71 -5 z "},"/":{"ha":578,"x_min":0,"x_max":0,"o":"m 460 944 b 307 847 395 944 331 911 b 195 472 292 806 269 677 b 35 98 122 272 49 138 b 117 1 11 33 52 1 b 270 98 182 1 247 33 b 379 472 285 138 306 272 b 543 847 453 677 528 806 b 460 944 566 911 525 944 z "},":":{"ha":197,"x_min":0,"x_max":0,"o":"m 148 210 b 148 309 176 237 176 282 b 48 309 121 337 76 337 b 48 210 21 282 21 237 b 148 210 76 182 121 182 z m 115 396 b 167 481 152 405 176 443 b 82 533 158 518 120 542 b 30 448 44 524 21 486 b 115 396 39 410 77 387 z "},";":{"ha":197,"x_min":0,"x_max":0,"o":"m 98 394 b 169 464 137 394 169 425 b 98 535 169 503 137 535 b 28 464 59 535 28 503 b 98 394 28 425 59 394 z m 83 329 b 29 272 55 323 33 300 b 86 191 22 232 49 199 b 113 186 98 188 111 191 b 80 163 116 174 85 180 b 118 141 74 146 103 131 b 169 260 132 150 172 183 b 83 329 167 304 129 338 z "},"<":{"ha":347,"x_min":0,"x_max":0,"o":"m 310 241 b 125 362 252 304 125 328 b 310 484 125 394 263 433 b 292 555 327 503 317 530 b 222 573 268 579 239 590 b 136 477 211 562 192 533 b 40 392 82 423 52 403 b 28 362 32 384 28 374 b 40 333 28 351 32 341 b 136 248 52 322 82 302 b 222 152 192 192 211 163 b 292 170 239 134 268 145 b 310 241 317 194 327 222 z "},"=":{"ha":386,"x_min":0,"x_max":0,"o":"m 65 352 b 193 360 81 352 116 360 b 321 352 272 360 306 352 b 358 415 346 352 358 380 b 321 477 358 449 346 477 b 193 470 306 477 272 470 b 65 477 116 470 81 477 b 28 415 40 477 28 449 b 65 352 28 380 40 352 z m 321 325 b 193 318 306 325 272 318 b 65 325 116 318 81 325 b 28 263 40 325 28 297 b 65 200 28 228 40 200 b 193 208 81 200 116 208 b 321 200 272 208 306 200 b 358 263 346 200 358 228 b 321 325 358 297 346 325 z "},">":{"ha":346,"x_min":0,"x_max":0,"o":"m 306 392 b 210 477 295 403 264 423 b 125 573 154 533 136 562 b 54 555 107 590 79 579 b 36 484 30 530 19 503 b 221 362 94 421 221 397 b 36 241 221 331 83 292 b 54 170 19 222 30 194 b 125 152 79 145 107 134 b 210 248 136 163 154 192 b 306 333 264 302 295 322 b 318 362 314 341 318 351 b 306 392 319 374 314 384 z "},"?":{"ha":689,"x_min":0,"x_max":0,"o":"m 328 -2 b 404 104 378 6 412 54 b 298 181 396 155 348 189 b 221 75 248 173 213 125 b 328 -2 230 24 277 -10 z m 456 921 l 456 921 b 456 921 456 921 456 921 b 433 925 448 922 440 924 b 83 831 276 948 152 903 b 72 593 8 752 15 648 b 251 547 140 527 250 504 b 203 644 252 578 206 582 b 408 842 237 736 280 854 b 389 524 482 834 600 703 b 215 246 316 463 196 458 b 401 245 220 188 410 192 b 420 334 391 303 396 324 b 661 671 524 380 659 413 b 456 921 662 830 563 900 z "},"@":{"ha":968,"x_min":0,"x_max":0,"o":"m 492 817 b 28 435 248 817 28 695 b 446 54 28 191 221 73 b 451 147 486 51 489 143 b 193 435 305 163 193 281 b 274 643 193 515 224 588 b 338 535 250 598 330 502 b 365 578 343 554 351 568 b 500 625 392 600 438 632 b 503 518 610 613 594 528 b 224 359 369 503 227 478 b 398 232 221 261 315 231 b 537 272 496 232 520 277 b 582 221 546 269 569 233 b 938 435 693 122 917 243 b 492 817 967 694 736 817 z m 532 369 b 443 314 516 337 472 299 b 436 419 414 329 419 387 b 525 474 452 451 496 489 b 532 369 554 459 549 401 z m 723 281 b 700 377 697 279 700 308 l 700 497 b 510 673 700 642 553 667 b 291 660 440 683 345 699 b 492 740 344 710 414 740 b 788 501 563 740 737 694 b 723 281 809 425 774 286 z "},"A":{"ha":819,"x_min":0,"x_max":0,"o":"m 794 96 b 675 471 783 137 728 271 b 596 845 621 676 607 805 b 407 942 579 910 498 942 b 270 845 317 942 253 910 b 257 783 272 838 286 821 b 268 0 -150 236 52 -1 b 440 80 335 0 456 36 b 332 164 425 123 385 89 b 339 739 249 282 238 697 b 467 96 488 800 457 137 b 656 -1 485 32 566 -1 b 794 96 746 -1 811 32 z "},"B":{"ha":849,"x_min":0,"x_max":0,"o":"m 825 734 b 583 948 835 890 702 943 b 185 948 486 951 229 950 b 22 850 95 942 22 915 b 42 476 22 810 42 676 b 22 102 42 271 22 142 b 185 5 22 37 95 10 b 824 240 381 -6 804 -72 b 424 476 846 573 424 397 b 825 734 424 539 810 476 z m 327 550 b 366 325 231 475 304 329 b 633 390 462 320 535 381 b 698 316 708 397 728 356 b 287 284 643 243 382 197 b 261 637 180 382 228 531 b 539 828 315 809 480 918 b 327 550 596 740 433 634 z "},"C":{"ha":825,"x_min":0,"x_max":0,"o":"m 793 839 b 438 946 765 962 588 955 b 22 494 212 934 22 766 b 435 0 22 221 209 12 b 779 329 685 -13 865 199 b 625 432 728 406 653 481 b 199 217 468 155 291 108 b 302 636 118 314 164 520 b 729 632 484 791 688 787 b 793 839 750 550 828 681 z "},"D":{"ha":849,"x_min":0,"x_max":0,"o":"m 185 937 b 22 840 95 932 22 905 b 42 466 22 799 42 670 b 22 91 42 266 22 132 b 185 -6 22 26 95 0 b 583 -6 229 -9 486 -10 b 826 345 702 -1 826 189 b 185 937 826 855 381 948 z m 542 476 b 486 80 593 278 568 100 b 247 400 404 59 297 202 b 303 796 196 598 221 775 b 542 476 384 817 492 673 z "},"E":{"ha":764,"x_min":0,"x_max":0,"o":"m 646 315 b 304 329 514 302 335 278 b 398 425 276 374 351 416 b 382 658 464 439 513 629 b 124 749 290 678 109 672 b 272 819 136 807 216 820 b 549 647 398 817 517 727 b 555 518 578 576 546 548 b 709 620 571 463 659 544 b 366 949 796 750 648 949 b 32 749 233 949 71 882 b 99 518 8 669 27 568 b 308 466 190 455 308 517 b 30 271 308 423 58 465 b 369 3 -5 39 277 8 b 723 111 518 -6 682 -8 b 646 315 765 232 730 322 z "},"F":{"ha":724,"x_min":0,"x_max":0,"o":"m 390 932 b 44 676 222 919 69 849 b 22 90 32 593 22 118 b 185 -8 22 25 95 -8 b 348 90 275 -8 348 25 b 444 426 348 118 164 428 b 432 550 474 426 495 547 b 241 790 319 554 151 677 b 528 718 315 884 492 807 b 522 605 556 647 513 635 b 669 692 537 550 618 615 b 390 932 755 822 671 953 z "},"G":{"ha":846,"x_min":0,"x_max":0,"o":"m 393 593 b 322 508 367 595 335 560 b 363 379 307 443 331 391 b 716 221 512 323 755 296 b 238 449 682 156 361 262 b 199 732 176 543 148 643 b 356 801 232 790 296 800 b 627 671 431 802 575 763 b 636 579 658 614 630 606 b 779 620 646 529 728 544 b 435 949 865 750 685 963 b 22 456 209 937 22 728 b 438 3 22 183 213 31 b 823 287 730 -34 832 163 b 393 593 810 457 609 581 z "},"H":{"ha":842,"x_min":0,"x_max":0,"o":"m 818 840 b 655 937 818 905 746 937 b 492 840 565 937 492 905 b 361 498 492 803 479 497 b 348 840 277 499 348 803 b 185 937 348 905 275 937 b 22 840 95 937 22 905 b 42 466 22 799 42 670 b 22 91 42 266 22 132 b 185 -6 22 26 95 -6 b 348 91 275 -6 348 26 b 430 435 348 130 306 443 b 492 91 555 426 492 130 b 655 -6 492 26 565 -6 b 818 91 746 -6 818 26 b 798 466 818 132 798 266 b 818 840 798 670 818 799 z "},"I":{"ha":371,"x_min":0,"x_max":0,"o":"m 348 840 b 185 937 348 905 275 937 b 22 840 95 937 22 905 b 42 466 22 799 42 670 b 22 91 42 266 22 132 b 185 -6 22 26 95 -6 b 348 91 275 -6 348 26 b 328 466 348 132 328 266 b 348 840 328 670 348 799 z "},"J":{"ha":683,"x_min":0,"x_max":0,"o":"m 660 840 b 497 937 660 905 587 937 b 334 840 407 937 334 905 b 421 466 334 799 342 654 b 354 172 520 231 431 148 b 255 424 252 204 333 356 b 42 297 213 462 90 392 b 454 0 -30 159 94 -55 b 640 466 636 28 640 206 b 660 840 640 670 660 799 z "},"K":{"ha":847,"x_min":0,"x_max":0,"o":"m 566 474 b 824 840 566 544 784 445 b 661 937 830 904 751 937 b 498 840 571 937 498 905 b 328 478 498 801 425 446 b 348 840 249 505 348 756 b 185 937 349 905 275 937 b 22 840 95 937 22 905 b 42 466 22 799 42 670 b 22 91 42 266 22 132 b 185 -6 22 26 95 -6 b 348 91 275 -6 348 26 b 393 429 348 129 284 414 b 498 91 510 445 498 125 b 661 -6 498 26 571 -6 b 824 91 751 -6 828 27 b 566 474 796 489 567 408 z "},"L":{"ha":792,"x_min":0,"x_max":0,"o":"m 763 254 b 583 377 728 378 630 448 b 205 208 464 198 254 105 b 348 840 156 311 324 382 b 185 937 352 905 275 937 b 22 840 95 937 22 905 b 42 466 22 799 42 670 b 22 91 42 266 22 132 b 185 -6 22 26 95 -6 b 205 -5 192 -6 200 -5 b 763 254 654 4 798 133 z "},"M":{"ha":1076,"x_min":0,"x_max":0,"o":"m 1054 845 b 891 942 1054 909 981 942 b 666 875 806 942 708 939 b 538 578 590 759 624 578 b 410 875 452 578 486 759 b 185 942 369 939 271 942 b 22 845 95 942 22 909 b 42 470 22 804 42 675 b 22 96 42 270 22 136 b 185 -1 22 31 95 -1 b 348 96 275 -1 348 31 b 251 621 348 136 88 566 b 458 289 400 672 445 314 b 618 289 476 257 600 257 b 826 621 632 314 676 672 b 728 96 988 566 728 136 b 891 -1 728 31 801 -1 b 1054 96 981 -1 1054 31 b 1034 470 1054 136 1034 270 b 1054 845 1034 675 1054 804 z "},"N":{"ha":872,"x_min":0,"x_max":0,"o":"m 849 840 b 686 937 849 905 776 937 b 523 840 596 937 523 905 b 623 267 523 799 726 311 b 361 849 529 227 438 724 b 185 937 312 931 275 937 b 22 840 95 937 22 905 b 42 466 22 799 42 670 b 22 91 42 266 22 132 b 185 -6 22 26 95 -6 b 348 91 275 -6 348 26 b 270 647 348 132 166 623 b 538 46 391 677 389 233 b 686 -6 565 12 620 -6 b 849 91 776 -6 849 26 b 829 466 849 132 829 266 b 849 840 829 670 849 799 z "},"O":{"ha":935,"x_min":0,"x_max":0,"o":"m 912 464 b 467 948 912 744 713 948 b 22 464 222 948 22 744 b 467 -20 22 185 222 -20 b 912 464 713 -20 912 185 z m 616 438 b 400 73 589 283 489 57 b 318 490 310 88 291 334 b 535 856 345 646 445 871 b 616 438 624 840 643 594 z "},"P":{"ha":849,"x_min":0,"x_max":0,"o":"m 583 932 b 185 932 487 936 229 935 b 22 835 96 926 22 900 b 42 476 22 794 42 676 b 22 102 42 271 25 142 b 193 -6 17 23 98 -8 b 348 83 319 -3 349 57 b 261 621 344 305 193 383 b 539 812 311 795 481 903 b 494 671 568 768 557 716 b 297 354 340 564 250 453 b 455 317 337 271 393 272 b 826 718 569 400 832 484 b 583 932 821 874 702 927 z "},"Q":{"ha":935,"x_min":0,"x_max":0,"o":"m 839 -11 b 634 14 592 -96 443 -71 l 634 14 b 912 464 797 83 912 252 b 467 948 912 744 713 948 b 22 464 222 948 22 744 b 466 -20 22 185 221 -19 b 840 -196 361 -189 770 -323 b 839 -11 893 -100 892 8 z m 400 73 b 318 490 310 88 291 334 b 535 856 345 646 445 871 b 616 438 624 840 643 594 b 400 73 589 283 489 57 z "},"R":{"ha":849,"x_min":0,"x_max":0,"o":"m 826 715 b 583 929 836 871 702 924 b 185 929 487 932 229 931 b 22 832 96 923 22 896 b 42 476 22 791 42 676 b 22 102 42 271 25 142 b 193 -6 17 23 98 -8 b 348 83 319 -3 349 57 b 266 389 346 210 218 346 b 481 91 325 443 480 247 b 645 -6 482 26 554 -6 b 808 91 735 -6 808 26 b 378 476 808 493 363 378 b 826 715 388 538 805 407 z m 244 505 b 261 637 205 509 239 590 b 539 809 345 814 505 887 b 244 505 581 713 315 497 z "},"S":{"ha":826,"x_min":0,"x_max":0,"o":"m 154 747 b 281 832 164 795 222 826 b 611 700 403 844 580 779 b 617 570 640 629 609 601 b 772 673 633 516 723 595 b 408 949 897 873 624 968 b 45 741 271 938 96 875 b 88 455 0 622 25 525 b 564 299 215 316 592 450 b 120 315 542 182 331 295 b 43 111 36 322 1 232 b 370 3 85 -8 220 -6 b 784 273 580 15 781 74 b 502 543 785 372 780 460 b 154 747 228 624 138 669 z "},"T":{"ha":943,"x_min":0,"x_max":0,"o":"m 569 931 b 374 931 532 931 411 931 b 22 811 239 931 21 931 b 202 688 24 682 161 614 b 400 803 249 773 335 886 b 309 91 455 732 333 549 b 471 -6 307 62 338 -6 b 634 91 611 -6 636 57 b 543 803 614 549 488 732 b 741 688 608 886 693 773 b 921 811 782 614 919 682 b 569 931 922 931 703 931 z "},"U":{"ha":815,"x_min":0,"x_max":0,"o":"m 792 840 b 629 937 792 905 719 937 b 466 840 539 937 466 905 b 486 466 466 799 463 686 b 337 167 503 299 490 110 b 348 840 166 229 348 799 b 185 937 348 905 275 937 b 22 840 95 937 22 905 b 42 466 22 799 42 670 b 398 0 42 266 87 0 b 772 466 753 0 772 266 b 792 840 772 670 792 799 z "},"V":{"ha":844,"x_min":0,"x_max":0,"o":"m 613 932 b 447 824 506 929 397 852 b 520 647 509 790 509 784 b 320 212 537 447 416 162 b 350 840 184 281 366 622 b 183 937 345 906 276 937 b 24 810 85 937 11 900 b 85 441 34 738 49 643 b 314 -10 126 208 134 10 b 778 570 574 -38 719 393 b 613 932 868 844 821 937 z "},"W":{"ha":1303,"x_min":0,"x_max":0,"o":"m 1071 932 b 906 824 964 929 855 852 b 995 643 968 790 984 779 b 788 223 1011 443 885 174 b 808 840 652 293 824 622 b 641 937 803 906 734 937 b 482 810 543 937 469 900 b 516 592 489 759 506 697 b 309 223 539 361 415 179 b 350 840 186 274 366 622 b 183 937 345 906 276 937 b 24 810 85 937 11 900 b 85 441 34 738 49 643 b 292 -10 126 208 113 10 b 590 187 417 -23 515 68 b 772 -10 618 78 664 2 b 1236 570 1032 -38 1177 393 b 1071 932 1326 844 1279 937 z "},"X":{"ha":839,"x_min":0,"x_max":0,"o":"m 493 837 b 452 549 466 722 539 543 b 394 806 387 554 406 730 b 59 808 361 1009 -16 973 b 253 502 91 737 135 693 b 25 120 298 428 52 235 b 296 140 -13 -45 325 -41 b 323 405 280 241 256 399 b 377 127 404 411 357 214 b 607 8 402 22 500 0 b 756 129 708 15 793 48 b 558 474 722 204 667 276 b 813 796 516 550 788 691 b 493 837 853 970 528 982 z "},"Y":{"ha":829,"x_min":0,"x_max":0,"o":"m 783 623 b 806 856 783 771 809 802 b 638 941 803 911 729 941 b 481 856 565 940 487 924 b 484 646 478 829 496 775 b 306 399 462 400 352 346 b 361 796 259 453 337 626 b 200 945 377 912 289 945 b 23 848 82 945 26 911 b 36 719 20 801 35 773 b 36 533 37 670 36 533 b 350 294 35 336 197 236 b 633 395 507 353 572 463 b 173 245 723 293 497 165 b 136 7 107 262 79 75 b 423 -68 201 -71 302 -74 b 781 389 594 -60 763 28 b 783 623 788 512 783 544 z "},"Z":{"ha":814,"x_min":0,"x_max":0,"o":"m 57 750 b 156 633 96 634 122 590 b 223 736 177 659 176 695 b 547 830 304 806 467 905 b 261 596 599 781 596 664 b 24 250 42 552 14 390 b 205 25 35 104 103 53 b 712 58 365 -19 593 -1 b 698 345 843 123 792 343 b 212 248 561 348 273 45 b 782 736 139 494 761 431 b 426 931 794 916 721 931 b 57 750 159 931 -2 927 z "},"[":{"ha":399,"x_min":0,"x_max":0,"o":"m 331 -17 l 285 -17 b 257 10 269 -17 257 -5 l 257 862 b 285 889 257 877 269 889 l 331 889 b 326 1004 387 891 383 1006 l 99 1004 b 28 936 60 1004 28 973 l 28 -64 b 99 -132 28 -101 60 -132 l 326 -132 b 331 -17 383 -134 387 -19 z "},"\\":{"ha":578,"x_min":0,"x_max":0,"o":"m 543 98 b 383 472 528 138 455 272 b 270 847 308 677 285 806 b 117 944 247 911 182 944 b 35 847 52 944 11 911 b 198 472 49 806 124 677 b 307 98 271 272 292 138 b 460 1 331 33 395 1 b 543 98 525 1 566 33 z "},"]":{"ha":399,"x_min":0,"x_max":0,"o":"m 300 1004 l 73 1004 b 68 889 16 1006 11 891 l 114 889 b 142 862 129 889 142 877 l 142 10 b 114 -17 142 -5 129 -17 l 68 -17 b 73 -132 11 -19 16 -134 l 300 -132 b 371 -64 339 -132 371 -101 l 371 936 b 300 1004 371 973 339 1004 z "},"^":{"ha":346,"x_min":0,"x_max":0,"o":"m 313 794 b 249 850 305 801 286 813 b 193 914 213 886 200 906 b 173 922 187 919 181 922 b 154 914 166 922 159 919 b 97 850 146 906 133 886 b 33 794 60 813 41 801 b 45 747 22 782 29 763 b 92 735 62 730 80 724 b 173 857 134 773 150 857 b 254 735 194 857 220 766 b 301 747 266 724 284 730 b 313 794 317 763 324 782 z "},"_":{"ha":497,"x_min":0,"x_max":0,"o":"m 432 -57 b 241 -65 416 -57 319 -65 b 65 -57 164 -65 81 -57 b 28 -120 40 -57 28 -85 b 65 -182 28 -154 40 -182 b 241 -175 81 -182 164 -175 b 432 -182 319 -175 416 -182 b 469 -120 457 -182 469 -154 b 432 -57 469 -85 457 -57 z "},"a":{"ha":781,"x_min":0,"x_max":0,"o":"m 757 91 b 719 213 751 132 719 112 l 719 389 b 441 646 719 601 504 637 b 103 614 330 661 179 688 b 190 444 45 556 176 393 b 229 508 197 472 209 492 b 427 576 268 539 335 586 b 431 419 588 559 565 434 b 22 187 235 397 27 360 b 277 0 18 42 156 0 b 481 59 420 1 456 66 b 577 1 494 55 477 0 b 757 91 680 3 765 43 z m 474 201 b 343 120 450 154 386 98 b 332 274 300 142 308 227 b 464 355 356 321 421 377 b 474 201 506 333 498 248 z "},"b":{"ha":781,"x_min":0,"x_max":0,"o":"m 457 667 b 336 622 390 664 375 644 b 347 842 235 567 346 741 b 185 937 347 906 275 937 b 22 840 95 937 22 905 b 42 466 22 799 42 670 b 22 91 42 266 22 132 b 185 -6 22 26 96 -16 b 338 45 306 7 292 65 b 451 0 386 23 388 4 b 757 329 620 -11 757 139 b 457 667 757 519 626 675 z m 381 106 b 282 335 322 106 282 244 b 381 565 282 426 322 565 b 480 335 441 565 480 426 b 381 106 480 244 441 106 z "},"c":{"ha":696,"x_min":0,"x_max":0,"o":"m 605 313 b 266 341 434 300 360 291 b 165 522 204 373 136 465 b 298 573 192 573 261 578 b 486 464 381 562 459 502 b 498 377 519 418 491 398 b 625 444 511 339 584 390 b 357 674 695 534 559 683 b 22 329 173 665 22 519 b 355 0 22 139 172 9 b 642 75 477 -6 577 -3 b 605 313 699 144 673 319 z "},"d":{"ha":804,"x_min":0,"x_max":0,"o":"m 746 171 b 738 466 739 238 734 355 b 757 840 744 671 757 799 b 594 937 757 905 685 937 b 433 842 504 937 432 906 b 444 622 434 741 545 567 b 322 667 405 644 390 664 b 22 329 154 675 22 519 b 329 0 22 139 160 -11 b 442 45 392 4 394 23 b 594 -6 487 65 473 -2 b 782 86 647 -8 779 21 b 746 171 783 117 751 116 z m 398 106 b 299 335 339 106 299 244 b 398 565 299 426 339 565 b 498 335 458 565 498 426 b 398 106 498 244 458 106 z "},"e":{"ha":663,"x_min":0,"x_max":0,"o":"m 578 308 b 340 305 384 256 312 273 b 588 406 367 336 508 305 b 393 674 660 495 595 674 b 22 329 210 674 22 519 b 355 0 22 139 172 0 b 615 69 464 0 562 -17 b 578 308 665 150 632 322 z m 243 382 b 165 522 187 412 142 481 b 336 548 195 572 290 563 b 436 412 406 525 455 454 b 243 382 412 360 323 340 z "},"f":{"ha":592,"x_min":0,"x_max":0,"o":"m 341 931 b 40 603 157 922 -9 790 b 90 469 60 524 107 500 b 48 372 80 453 46 463 b 22 91 53 172 22 132 b 187 -6 22 26 97 -6 b 348 91 277 -6 348 26 b 325 468 348 130 297 448 b 431 466 347 485 412 442 b 402 549 444 481 461 541 b 224 683 326 560 255 629 b 218 813 202 723 191 781 b 406 710 276 881 382 773 b 415 621 426 658 408 642 b 543 688 428 583 502 634 b 341 931 613 778 543 940 z "},"g":{"ha":694,"x_min":0,"x_max":0,"o":"m 307 121 b 169 100 229 96 173 75 b 361 166 164 140 227 159 b 671 412 532 176 671 270 b 545 611 671 497 626 578 b 499 650 501 629 497 635 b 579 661 501 667 535 676 b 633 620 616 648 619 626 b 655 717 659 610 665 671 b 391 683 642 783 387 786 b 400 649 392 658 407 654 b 361 658 395 646 391 653 b 52 412 192 682 57 554 b 136 187 46 246 178 219 b 75 35 61 130 52 98 b 175 -30 84 8 121 -17 b 588 -60 415 -84 579 33 b 118 -59 597 -150 264 -118 b 56 -315 36 -25 -16 -246 b 144 -347 78 -336 106 -345 b 657 -43 615 -361 661 -174 b 307 121 652 92 583 209 z m 264 442 b 406 583 282 510 348 601 b 459 382 465 564 477 450 b 316 242 441 314 375 224 b 264 442 257 260 246 374 z "},"h":{"ha":799,"x_min":0,"x_max":0,"o":"m 776 93 b 738 223 769 137 738 116 l 738 411 b 464 657 739 600 607 670 b 305 612 341 645 334 593 b 348 839 268 634 352 769 b 185 936 345 904 275 936 b 22 839 95 936 22 904 b 42 465 22 799 42 670 b 22 90 42 265 22 131 b 185 -7 22 26 95 -7 b 348 90 275 -7 348 26 b 351 359 348 124 325 193 b 509 557 381 547 455 608 b 453 140 579 489 461 289 b 595 -3 448 55 516 -3 b 776 93 699 -3 783 42 z "},"i":{"ha":372,"x_min":0,"x_max":0,"o":"m 349 568 b 23 569 335 686 37 687 b 43 326 17 518 43 467 b 23 83 43 185 17 133 b 349 84 37 -35 335 -34 b 329 326 355 137 329 185 b 349 568 329 467 355 514 z m 186 691 b 342 795 272 691 342 738 b 186 899 342 852 272 899 b 31 795 100 899 31 852 b 186 691 31 738 100 691 z "},"j":{"ha":601,"x_min":0,"x_max":0,"o":"m 343 691 b 498 795 429 691 498 738 b 343 899 498 852 429 899 b 187 795 257 899 187 852 b 343 691 187 738 257 691 z m 573 -22 b 483 326 551 85 474 104 b 506 561 489 470 513 509 b 180 573 487 691 191 691 b 197 326 176 525 195 470 b 374 -200 202 -21 431 -113 b 250 -131 350 -237 308 -237 b 212 -52 223 -81 219 -72 b 50 -110 200 -13 91 -56 b 243 -348 -20 -201 41 -357 b 573 -22 426 -340 615 -227 z "},"k":{"ha":801,"x_min":0,"x_max":0,"o":"m 778 589 b 418 589 793 699 417 682 b 351 371 419 477 392 363 b 320 503 329 376 314 431 b 348 840 330 623 357 733 b 185 937 343 904 275 937 b 22 840 95 937 22 905 b 42 466 22 799 42 670 b 22 91 42 266 22 132 b 185 -6 22 26 95 -6 b 348 91 275 -6 348 26 b 348 98 348 93 348 95 b 348 97 348 97 348 97 b 419 345 348 253 373 346 b 455 141 460 343 469 298 b 597 -2 447 56 519 -2 b 778 94 701 -2 785 43 b 740 224 772 138 740 117 l 740 297 b 624 399 729 424 630 378 b 778 589 616 428 753 402 z "},"l":{"ha":371,"x_min":0,"x_max":0,"o":"m 348 840 b 185 937 348 905 275 937 b 22 840 95 937 22 905 b 42 466 22 799 42 670 b 22 91 42 266 22 132 b 185 -6 22 26 95 -6 b 348 91 275 -6 348 26 b 328 466 348 132 328 266 b 348 840 328 670 348 799 z "},"m":{"ha":1206,"x_min":0,"x_max":0,"o":"m 1182 93 b 1144 223 1176 137 1144 116 l 1144 411 b 870 657 1146 600 1011 688 b 695 596 772 636 726 561 b 464 657 639 658 561 680 b 328 611 366 633 361 577 b 23 569 256 683 35 671 b 43 326 17 518 43 467 b 23 83 43 185 17 133 b 247 -1 32 5 158 -24 b 348 90 306 11 348 41 b 342 282 348 117 332 160 b 504 561 362 516 439 611 b 453 197 579 503 494 350 b 429 83 439 147 428 112 b 653 -1 434 5 564 -24 b 755 90 713 11 755 41 b 748 282 755 117 738 160 b 910 561 768 516 846 611 b 859 140 992 498 871 302 b 1002 -3 853 55 923 -3 b 1182 93 1105 -3 1190 42 z "},"n":{"ha":799,"x_min":0,"x_max":0,"o":"m 776 93 b 738 223 769 137 738 116 l 738 411 b 464 657 739 600 604 688 b 328 611 365 636 361 577 b 23 569 256 683 35 671 b 43 326 17 518 43 467 b 23 83 43 185 17 133 b 247 -1 32 5 158 -24 b 348 90 306 11 348 41 b 342 282 348 117 332 160 b 504 561 362 516 439 611 b 453 140 585 498 465 302 b 595 -3 446 55 516 -3 b 776 93 699 -3 783 42 z "},"o":{"ha":776,"x_min":0,"x_max":0,"o":"m 388 667 b 22 329 186 667 22 524 b 388 -9 22 133 186 -9 b 754 329 590 -9 754 133 b 388 667 754 524 590 667 z m 442 98 b 290 306 383 84 311 214 b 334 560 269 398 275 546 b 486 352 393 573 465 444 b 442 98 507 260 501 112 z "},"p":{"ha":781,"x_min":0,"x_max":0,"o":"m 454 662 b 338 613 405 656 386 635 b 185 664 292 593 306 651 b 22 567 96 674 22 631 b 42 192 22 526 42 392 b 22 -182 42 -12 22 -141 b 185 -279 22 -247 95 -279 b 347 -184 275 -279 347 -248 b 336 36 346 -83 235 91 b 457 -9 375 14 390 -6 b 757 329 626 -17 757 139 b 454 662 757 519 622 682 z m 381 93 b 282 323 322 93 282 231 b 381 552 282 414 322 552 b 480 323 441 552 480 414 b 381 93 480 231 441 93 z "},"q":{"ha":781,"x_min":0,"x_max":0,"o":"m 757 567 b 594 664 757 631 684 674 b 442 613 474 651 487 593 b 329 658 394 635 392 654 b 22 329 160 668 22 519 b 322 -9 22 139 154 -17 b 444 36 390 -6 405 14 b 433 -184 545 91 434 -83 b 594 -279 432 -248 504 -279 b 757 -182 685 -279 757 -247 b 738 192 757 -141 738 -13 b 757 567 738 392 757 526 z m 398 93 b 299 323 339 93 299 231 b 398 552 299 414 339 552 b 498 323 458 552 498 414 b 398 93 498 231 458 93 z "},"r":{"ha":596,"x_min":0,"x_max":0,"o":"m 518 644 b 186 660 444 668 333 664 b 23 572 108 658 30 631 b 43 329 17 522 43 470 b 23 86 43 188 17 137 b 349 87 37 -32 335 -31 b 326 329 355 141 354 191 b 326 329 326 329 326 329 b 264 593 301 478 234 552 b 373 556 290 629 340 603 b 394 449 417 495 387 470 b 555 515 407 411 517 459 b 518 644 589 568 575 626 z "},"s":{"ha":596,"x_min":0,"x_max":0,"o":"m 389 406 b 228 592 218 487 211 568 b 380 555 258 635 345 603 b 398 456 423 496 391 477 b 552 529 411 418 509 455 b 270 670 622 646 465 675 b 23 526 113 666 28 619 b 383 289 10 311 376 364 b 96 313 389 224 229 303 b 59 75 28 319 -4 148 b 432 9 141 -20 315 -23 b 389 406 602 55 651 282 z "},"t":{"ha":588,"x_min":0,"x_max":0,"o":"m 541 222 b 413 289 504 287 426 327 b 344 204 406 268 408 242 b 180 219 280 165 192 155 b 405 440 167 287 243 368 b 429 568 486 475 480 567 b 349 622 356 569 339 565 b 383 834 371 750 383 801 b 202 931 383 899 293 931 b 22 834 112 931 22 899 b 64 553 22 793 64 753 b 47 316 64 509 50 368 b 357 -5 33 111 173 3 b 541 222 559 -15 597 123 z "},"u":{"ha":863,"x_min":0,"x_max":0,"o":"m 807 152 b 801 340 796 192 801 261 b 823 572 801 488 830 519 b 569 654 813 654 670 678 b 480 564 501 641 480 616 b 484 363 480 537 496 491 b 306 116 462 117 352 63 b 361 512 259 170 337 343 b 200 662 377 628 289 662 b 23 564 82 662 26 627 b 36 436 20 518 35 490 b 36 250 37 386 36 250 b 333 -1 35 53 173 -34 b 482 65 447 22 454 73 b 666 -7 507 58 475 -5 b 839 83 752 -8 839 41 b 807 152 839 119 817 118 z "},"v":{"ha":747,"x_min":0,"x_max":0,"o":"m 544 654 b 441 555 471 640 408 579 b 491 452 458 541 484 527 b 374 153 504 313 445 135 b 348 568 289 174 398 424 b 22 569 308 684 15 687 b 85 326 25 518 56 466 b 324 -4 136 79 198 10 b 701 407 505 -23 654 286 b 544 654 775 595 657 676 z "},"w":{"ha":1160,"x_min":0,"x_max":0,"o":"m 956 654 b 853 555 883 640 821 579 b 903 452 870 541 896 527 b 786 153 916 313 857 135 b 760 568 701 174 810 424 b 616 654 743 617 681 646 b 549 655 595 658 572 659 b 436 586 492 649 444 626 b 484 358 428 520 467 521 b 374 153 498 222 429 139 b 348 568 289 174 398 424 b 22 569 308 684 15 687 b 85 326 25 518 56 466 b 324 -4 136 79 198 10 b 553 136 410 -13 489 52 b 736 -4 596 40 651 5 b 1113 407 917 -23 1066 286 b 956 654 1187 595 1069 676 z "},"x":{"ha":753,"x_min":0,"x_max":0,"o":"m 449 590 b 416 385 427 508 486 381 b 369 568 341 389 379 514 b 51 570 343 713 -9 688 b 224 327 77 519 129 463 b 24 78 260 274 36 126 b 291 93 -5 -40 314 -36 b 304 282 278 165 251 278 b 356 84 369 287 340 146 b 562 -2 376 8 476 -8 b 681 85 643 3 711 27 b 501 331 654 138 588 190 b 727 561 467 386 707 486 b 449 590 759 685 477 694 z "},"y":{"ha":829,"x_min":0,"x_max":0,"o":"m 806 572 b 638 657 803 628 729 658 b 481 573 565 657 487 641 b 484 363 478 545 496 491 b 306 116 462 117 352 63 b 361 512 259 170 337 343 b 200 662 377 628 289 662 b 23 564 82 662 26 627 b 36 436 20 518 35 490 b 36 250 37 386 36 250 b 350 11 35 52 197 -47 b 633 112 507 70 572 180 b 173 -38 723 10 497 -118 b 136 -276 107 -22 79 -208 b 423 -351 201 -354 302 -357 b 781 106 594 -343 763 -256 b 783 340 788 229 783 261 b 806 572 783 488 809 519 z "},"z":{"ha":601,"x_min":0,"x_max":0,"o":"m 577 528 b 317 670 586 659 533 670 b 48 538 122 670 5 668 b 120 453 76 453 95 421 b 169 528 135 472 135 498 b 396 578 228 579 349 624 b 197 426 433 542 442 475 b 24 173 37 393 16 275 b 156 9 31 66 81 29 b 543 75 273 -23 461 -20 b 506 313 606 148 574 319 b 265 167 423 307 361 154 b 205 289 207 174 166 232 b 577 528 272 386 565 348 z "},"{":{"ha":456,"x_min":0,"x_max":0,"o":"m 388 -17 l 342 -17 b 314 10 327 -17 314 -5 l 314 338 l 313 338 b 284 424 312 365 306 389 b 314 548 313 473 314 500 b 314 862 313 627 314 862 b 342 889 314 877 327 889 l 388 889 b 383 1004 445 891 440 1006 l 156 1004 b 85 936 117 1004 85 973 b 85 541 85 936 85 640 b 76 507 85 536 84 518 b 50 489 71 499 58 489 b 49 355 21 489 20 355 b 73 340 60 355 68 348 b 85 300 85 325 85 300 l 85 -64 b 156 -132 85 -101 117 -132 l 383 -132 b 388 -17 440 -134 445 -19 z "},"|":{"ha":292,"x_min":0,"x_max":0,"o":"m 263 847 b 146 944 263 911 211 944 b 28 847 80 944 28 911 b 55 472 28 806 55 677 b 28 98 55 272 28 138 b 146 1 28 33 80 1 b 263 98 211 1 263 33 b 240 472 263 138 240 272 b 263 847 240 677 263 806 z "},"}":{"ha":456,"x_min":0,"x_max":0,"o":"m 407 489 b 380 507 398 489 385 499 b 371 541 372 518 371 536 b 371 936 371 640 371 936 b 300 1004 371 973 339 1004 l 73 1004 b 68 889 16 1006 11 891 l 114 889 b 142 862 129 889 142 877 b 142 548 142 862 144 627 b 172 424 142 500 143 473 b 143 338 150 389 144 365 l 142 338 l 142 10 b 114 -17 142 -5 129 -17 l 68 -17 b 73 -132 11 -19 16 -134 l 300 -132 b 371 -64 339 -132 371 -101 l 371 300 b 383 340 371 300 372 325 b 407 355 388 348 396 355 b 407 489 436 355 435 489 z "},"~":{"ha":389,"x_min":0,"x_max":0,"o":"m 347 911 b 298 910 330 928 308 924 b 271 816 273 872 301 816 b 136 922 238 815 186 924 b 31 794 77 919 40 821 b 43 747 25 778 26 763 b 91 748 59 730 82 734 b 119 843 116 786 88 839 b 190 774 134 844 139 834 b 254 736 209 754 231 737 b 358 865 312 734 349 837 b 347 911 364 880 363 895 z "}," ":{"ha":413,"x_min":0,"x_max":0,"o":""},"¡":{"ha":340,"x_min":0,"x_max":0,"o":"m 185 747 b 262 853 235 755 270 803 b 155 930 253 904 206 938 b 79 824 105 922 71 874 b 185 747 87 773 135 739 z m 271 666 b 69 666 271 731 69 731 b 28 94 69 626 28 135 b 170 -3 28 29 91 -3 b 312 94 249 -3 312 29 b 271 666 312 135 271 626 z "},"¢":{"ha":707,"x_min":0,"x_max":0,"o":"m 611 428 b 271 455 440 414 365 405 b 171 636 209 488 141 579 b 304 687 198 687 266 692 b 492 578 387 676 464 616 b 503 491 525 532 496 512 b 631 558 516 453 590 504 b 424 786 693 639 591 766 b 426 826 425 804 426 817 b 383 873 426 857 407 873 b 341 826 360 873 341 857 b 343 786 341 817 342 805 b 28 443 168 768 28 626 b 342 116 28 260 167 133 b 341 90 341 104 341 96 b 383 42 341 58 360 42 b 426 90 407 42 426 58 b 425 112 426 95 426 103 b 648 190 518 112 595 126 b 611 428 705 258 679 433 z "},"£":{"ha":790,"x_min":0,"x_max":0,"o":"m 718 180 b 399 168 700 180 493 168 b 374 372 394 233 384 303 b 427 369 401 371 417 369 b 475 412 459 369 475 388 b 427 455 475 436 459 455 b 363 452 416 455 397 453 b 401 834 340 624 326 779 b 587 731 492 901 573 843 b 539 633 584 669 539 665 b 719 680 540 591 650 614 b 720 875 775 735 777 819 b 432 935 672 922 600 951 b 95 480 91 904 95 527 b 95 455 95 471 95 463 b 52 412 66 453 52 435 b 93 370 52 390 66 372 b 81 180 90 290 85 226 b 71 180 76 180 73 180 b 28 82 42 180 28 136 b 71 -16 28 28 42 -16 b 395 -4 90 -16 305 -4 b 718 -16 487 -4 700 -16 b 762 82 747 -16 762 28 b 718 180 762 136 747 180 z "},"¥":{"ha":757,"x_min":0,"x_max":0,"o":"m 550 940 b 446 841 477 926 414 865 b 497 738 464 827 489 813 b 379 439 510 599 450 421 b 354 854 295 460 404 710 b 28 855 314 970 21 973 b 91 612 31 804 62 752 b 175 369 115 496 141 419 b 136 371 157 370 144 371 b 88 328 104 371 88 352 b 136 285 88 305 104 285 b 203 289 148 285 168 287 b 201 247 202 274 201 260 b 131 251 164 249 143 251 b 83 208 99 251 83 232 b 131 165 83 184 99 165 b 194 168 143 165 161 167 b 186 83 190 128 186 100 b 349 -14 186 18 259 -14 b 512 83 439 -14 512 18 b 505 167 512 100 509 127 b 547 165 525 166 538 165 b 595 208 579 165 595 184 b 547 251 595 232 579 251 b 498 248 538 251 522 250 b 496 288 497 261 496 274 b 552 285 524 287 541 285 b 600 328 584 285 600 305 b 552 371 600 352 584 371 b 514 369 544 371 532 370 b 707 693 607 465 677 616 b 550 940 780 881 662 962 z "},"§":{"ha":700,"x_min":0,"x_max":0,"o":"m 433 677 b 156 824 215 736 143 768 b 257 885 164 858 210 881 b 520 790 354 893 495 847 b 525 697 543 739 518 718 b 648 771 538 658 609 715 b 358 969 747 914 531 983 b 69 819 249 961 110 916 b 104 614 33 734 53 664 b 121 600 109 609 115 604 b 46 516 87 578 60 551 b 80 311 10 431 30 361 b 459 199 182 211 481 307 b 106 210 442 115 273 196 b 44 64 39 216 11 151 b 304 -14 77 -22 185 -20 b 634 180 472 -5 632 37 b 539 329 635 234 633 283 b 657 483 609 358 656 406 b 433 677 659 554 654 618 z m 543 427 b 322 400 532 381 402 380 b 138 527 241 420 126 481 b 359 554 149 573 279 574 b 543 427 440 534 554 474 z "},"©":{"ha":983,"x_min":0,"x_max":0,"o":"m 492 864 b 28 482 248 864 28 742 b 492 100 28 222 248 100 b 956 482 736 100 956 222 b 492 864 956 742 736 864 z m 492 177 b 193 482 327 177 193 314 b 492 788 193 651 327 788 b 791 482 657 788 791 651 b 492 177 791 314 657 177 z m 651 479 b 419 498 534 470 483 464 b 350 621 377 520 330 582 b 441 656 369 656 415 660 b 569 582 498 649 551 608 b 577 523 592 551 573 537 b 664 568 586 496 636 532 b 481 725 712 630 619 731 b 253 490 356 719 253 619 b 480 265 253 360 355 271 b 676 316 563 261 632 263 b 651 479 715 363 697 483 z "},"«":{"ha":536,"x_min":0,"x_max":0,"o":"m 500 241 b 315 362 442 304 315 328 b 500 484 315 394 453 433 b 482 555 517 503 507 530 b 412 573 458 579 429 590 b 327 477 401 562 382 533 b 231 392 272 423 242 403 b 218 362 223 384 218 374 b 231 333 218 351 223 341 b 327 248 242 322 272 302 b 412 152 382 192 401 163 b 482 170 429 134 458 145 b 500 241 507 194 517 222 z m 125 362 b 310 484 125 394 263 433 b 292 555 327 503 317 530 b 222 573 268 579 239 590 b 136 477 211 562 192 533 b 40 392 82 423 52 403 b 28 362 32 384 28 374 b 40 333 28 351 32 341 b 136 248 52 322 82 302 b 222 152 192 192 211 163 b 292 170 239 134 268 145 b 310 241 317 194 327 222 b 125 362 252 304 125 328 z "},"­":{"ha":0,"x_min":0,"x_max":0,"o":""},"®":{"ha":669,"x_min":0,"x_max":0,"o":"m 335 928 b 28 675 173 928 28 847 b 335 422 28 503 173 422 b 642 675 497 422 642 503 b 335 928 642 847 497 928 z m 280 717 b 382 780 311 782 369 809 b 274 669 397 745 300 666 b 280 717 259 671 272 700 z m 335 473 b 272 484 313 473 291 477 b 312 515 304 489 312 506 b 282 627 311 561 264 611 b 361 518 303 647 360 575 b 399 484 361 499 377 488 b 335 473 379 477 358 473 z m 479 536 b 323 659 465 661 317 624 b 487 746 326 681 479 633 b 398 824 490 803 441 823 b 252 824 362 826 268 825 b 192 789 219 822 192 812 b 200 659 192 774 200 732 b 194 534 200 598 196 555 b 137 675 159 570 137 620 b 335 877 137 786 226 877 b 533 675 444 877 533 786 b 479 536 533 621 512 573 z "},"°":{"ha":289,"x_min":0,"x_max":0,"o":"m 144 937 b 28 838 80 937 28 892 b 144 738 28 783 80 738 b 261 838 209 738 261 783 b 144 937 261 892 209 937 z m 144 789 b 112 838 127 789 112 811 b 144 886 112 864 127 886 b 176 838 162 886 176 864 b 144 789 176 811 162 789 z "},"±":{"ha":386,"x_min":0,"x_max":0,"o":"m 321 276 b 193 269 306 276 272 269 b 65 276 116 269 81 276 b 28 214 40 276 28 248 b 65 151 28 179 40 151 b 193 159 81 151 116 159 b 321 151 272 159 306 151 b 358 214 346 151 358 179 b 321 276 358 248 346 276 z m 65 408 b 137 414 76 408 98 412 b 130 343 134 375 130 354 b 193 305 130 318 158 305 b 256 343 228 305 256 318 b 250 414 256 354 252 375 b 321 408 289 412 310 408 b 358 471 346 408 358 436 b 321 533 358 505 346 533 b 250 527 310 533 289 529 b 256 599 252 567 256 587 b 193 636 256 624 228 636 b 130 599 158 636 130 624 b 137 527 130 587 134 567 b 65 533 98 529 76 533 b 28 471 40 533 28 505 b 65 408 28 436 40 408 z "},"²":{"ha":446,"x_min":0,"x_max":0,"o":"m 416 808 b 239 937 425 889 385 939 b 55 876 148 936 90 913 b 49 759 18 837 21 786 b 138 736 83 726 137 715 b 114 784 138 751 116 753 b 296 873 144 866 259 918 b 168 715 341 818 297 777 b 41 536 34 649 40 580 b 125 476 43 464 74 480 b 377 504 207 470 319 475 b 371 646 442 536 417 645 b 132 590 303 647 121 486 b 416 808 140 660 399 647 z "},"³":{"ha":444,"x_min":0,"x_max":0,"o":"m 345 705 b 416 808 387 723 416 755 b 239 937 416 874 372 937 b 55 876 148 937 90 913 b 49 759 18 837 21 786 b 138 736 83 726 137 715 b 114 784 138 751 116 753 b 276 858 126 861 215 891 b 225 734 350 817 345 740 b 226 687 205 733 209 688 b 229 687 227 687 228 687 l 229 687 b 287 597 302 687 326 626 b 86 646 217 546 154 647 b 79 504 40 645 15 536 b 292 476 138 475 210 470 b 416 599 343 480 416 499 b 345 705 416 631 409 678 z "},"·":{"ha":197,"x_min":0,"x_max":0,"o":"m 148 307 b 148 407 176 335 176 380 b 48 407 121 435 76 435 b 48 307 21 380 21 335 b 148 307 76 280 121 280 z "},"¹":{"ha":325,"x_min":0,"x_max":0,"o":"m 296 889 b 217 936 296 915 265 933 b 182 933 205 936 192 935 b 55 876 123 923 82 905 b 49 759 18 837 21 786 b 138 736 83 726 137 715 b 114 784 138 751 116 753 b 162 872 117 805 129 881 b 136 521 216 859 136 541 b 216 473 136 489 171 473 b 296 521 260 473 296 489 b 286 705 296 541 286 607 b 296 889 286 806 296 869 z "},"»":{"ha":536,"x_min":0,"x_max":0,"o":"m 318 362 b 306 392 318 374 314 384 b 210 477 295 403 264 423 b 125 573 154 533 136 562 b 54 555 107 590 79 579 b 36 484 30 530 19 503 b 221 362 94 421 221 397 b 36 241 221 331 83 292 b 54 170 19 222 30 194 b 125 152 79 145 107 134 b 210 248 136 163 154 192 b 306 333 264 302 295 322 b 318 362 314 341 318 351 z m 496 392 b 400 477 485 403 454 423 b 315 573 344 533 326 562 b 244 555 297 590 269 579 b 226 484 220 530 209 503 b 411 362 285 421 411 397 b 226 241 411 331 273 292 b 244 170 209 222 220 194 b 315 152 269 145 297 134 b 400 248 326 163 344 192 b 496 333 454 302 485 322 b 509 362 504 341 509 351 b 496 392 509 374 504 384 z "},"¿":{"ha":689,"x_min":0,"x_max":0,"o":"m 391 747 b 467 853 441 755 476 803 b 361 930 459 904 412 938 b 285 824 311 922 276 874 b 391 747 293 773 340 739 z m 617 335 b 438 381 549 401 438 424 b 486 284 437 350 483 346 b 281 86 452 192 408 74 b 300 404 206 94 88 225 b 474 682 373 465 493 470 b 288 683 469 739 279 736 b 269 593 298 625 293 604 b 28 257 165 548 29 515 b 233 7 27 98 125 28 l 233 7 b 233 7 233 7 233 7 b 256 3 241 5 248 4 b 606 97 412 -20 537 25 b 617 335 681 176 674 279 z "},"À":{"ha":818,"x_min":0,"x_max":0,"o":"m 794 96 b 675 471 783 137 728 271 b 596 845 621 676 607 805 b 407 942 579 910 498 942 b 270 845 317 942 253 910 b 257 783 272 838 286 821 b 268 0 -150 236 52 -1 b 440 80 335 0 456 36 b 332 164 425 123 385 89 b 339 739 249 282 238 697 b 467 96 488 800 457 137 b 656 -1 485 32 566 -1 b 794 96 746 -1 811 32 z m 293 1078 b 411 1036 307 1072 340 1065 b 525 983 481 1007 511 988 b 577 1014 548 973 567 989 b 562 1072 588 1038 585 1063 b 444 1115 548 1078 513 1086 b 330 1168 373 1144 344 1162 b 278 1137 308 1177 288 1162 b 293 1078 268 1112 271 1087 z "},"Á":{"ha":818,"x_min":0,"x_max":0,"o":"m 794 96 b 675 471 783 137 728 271 b 596 845 621 676 607 805 b 407 942 579 910 498 942 b 270 845 317 942 253 910 b 257 783 272 838 286 821 b 268 0 -150 236 52 -1 b 440 80 335 0 456 36 b 332 164 425 123 385 89 b 339 739 249 282 238 697 b 467 96 488 800 457 137 b 656 -1 485 32 566 -1 b 794 96 746 -1 811 32 z m 294 1003 b 415 1033 309 1006 342 1019 b 539 1052 491 1049 524 1049 b 566 1107 563 1057 571 1081 b 520 1147 560 1133 544 1152 b 399 1117 505 1144 474 1132 b 275 1098 325 1102 290 1101 b 248 1043 251 1093 243 1070 b 294 1003 254 1017 270 998 z "},"Â":{"ha":818,"x_min":0,"x_max":0,"o":"m 794 96 b 675 471 783 137 728 271 b 596 845 621 676 607 805 b 407 942 579 910 498 942 b 270 845 317 942 253 910 b 257 783 272 838 286 821 b 268 0 -150 236 52 -1 b 440 80 335 0 456 36 b 332 164 425 123 385 89 b 339 739 249 282 238 697 b 468 96 488 800 457 137 b 656 -1 485 32 566 -1 b 794 96 746 -1 811 32 z m 339 983 b 418 1084 380 1022 395 1084 b 500 983 439 1084 466 1014 b 547 995 512 972 531 979 b 559 1042 563 1011 571 1030 b 495 1098 552 1049 532 1061 b 439 1162 459 1134 446 1155 b 419 1170 434 1167 427 1170 b 400 1162 412 1170 405 1167 b 343 1098 393 1155 380 1134 b 280 1042 307 1061 287 1049 b 292 995 268 1030 275 1011 b 339 983 308 979 326 972 z "},"Ã":{"ha":818,"x_min":0,"x_max":0,"o":"m 794 96 b 675 471 783 137 728 271 b 596 845 621 676 607 805 b 407 942 579 910 498 942 b 270 845 317 942 253 910 b 257 783 272 838 286 821 b 268 0 -150 236 52 -1 b 440 80 335 0 456 36 b 332 164 425 123 385 89 b 339 739 249 282 238 697 b 468 96 488 800 457 137 b 656 -1 485 32 566 -1 b 794 96 746 -1 811 32 z m 337 1008 b 376 1077 362 1043 346 1074 b 436 1032 391 1079 404 1066 b 499 997 455 1013 477 997 b 604 1117 558 995 595 1091 b 592 1160 610 1131 609 1145 b 544 1159 576 1176 553 1172 b 515 1084 519 1124 546 1084 b 381 1170 483 1083 432 1173 b 277 1050 323 1168 286 1076 b 288 1007 271 1036 272 1022 b 337 1008 305 991 327 995 z "},"Ä":{"ha":818,"x_min":0,"x_max":0,"o":"m 794 96 b 675 471 783 137 728 271 b 596 845 621 676 607 805 b 407 942 579 910 498 942 b 270 845 317 942 253 910 b 257 783 272 838 286 821 b 268 0 -150 236 52 -1 b 440 80 335 0 456 36 b 332 164 425 123 385 89 b 339 739 249 282 238 697 b 468 96 488 800 457 137 b 656 -1 485 32 566 -1 b 794 96 746 -1 811 32 z m 504 974 b 567 1037 539 974 567 1002 b 504 1101 567 1072 539 1101 b 440 1037 469 1101 440 1072 b 504 974 440 1002 469 974 z m 345 974 b 408 1037 380 974 408 1002 b 345 1101 408 1072 380 1101 b 281 1037 310 1101 281 1072 b 345 974 281 1002 310 974 z "},"Å":{"ha":818,"x_min":0,"x_max":0,"o":"m 794 96 b 675 471 783 137 728 271 b 596 845 621 676 607 805 b 529 918 587 878 563 902 b 564 989 551 936 564 961 b 448 1089 564 1044 512 1089 b 331 989 384 1089 331 1044 b 349 937 331 970 338 952 b 270 845 292 925 257 895 b 257 783 272 838 286 821 b 268 0 -150 236 52 -1 b 440 80 335 0 456 36 b 332 164 425 123 385 89 b 339 739 249 282 238 697 b 468 96 488 800 457 137 b 656 -1 485 32 566 -1 b 794 96 746 -1 811 32 z m 448 941 b 416 989 430 941 416 963 b 448 1038 416 1016 430 1038 b 480 989 465 1038 480 1016 b 448 941 480 963 465 941 z "},"Æ":{"ha":1213,"x_min":0,"x_max":0,"o":"m 1096 315 b 754 329 963 302 785 278 b 847 425 726 374 801 416 b 831 658 914 439 962 629 b 574 749 739 678 558 672 b 722 819 586 807 665 820 b 999 647 848 817 967 727 b 1005 518 1027 576 996 548 b 1159 620 1020 463 1108 544 b 816 949 1245 750 1097 949 b 613 899 749 949 675 932 b 555 903 595 889 572 890 b 407 942 519 929 465 942 b 270 845 317 942 253 910 b 257 783 272 838 286 821 b 268 0 -150 236 52 -1 b 440 80 335 0 456 36 b 332 164 425 123 385 89 b 339 739 249 282 238 697 b 468 96 488 800 457 137 b 656 -1 485 32 566 -1 b 727 8 682 -1 706 2 b 751 9 735 10 743 11 b 818 3 778 6 801 4 b 1173 111 968 -6 1131 -8 b 1096 315 1215 232 1180 322 z "},"Ç":{"ha":824,"x_min":0,"x_max":0,"o":"m 625 432 b 199 217 468 155 291 108 b 302 636 118 313 164 520 b 729 632 484 791 688 787 b 793 839 750 550 828 681 b 438 946 765 962 588 955 b 22 494 212 934 22 766 b 426 1 22 225 205 34 b 467 -46 464 -5 470 -32 b 396 -84 458 -91 428 -55 b 400 -132 384 -94 383 -117 b 445 -138 417 -146 431 -145 b 552 -20 469 -126 560 -78 b 540 8 550 -10 546 -1 b 779 329 732 47 853 218 b 625 432 728 406 653 481 z "},"È":{"ha":764,"x_min":0,"x_max":0,"o":"m 646 315 b 304 329 514 302 335 278 b 398 425 276 374 351 416 b 382 658 464 439 513 629 b 124 749 290 678 109 672 b 272 819 136 807 216 820 b 549 647 398 817 517 727 b 555 518 578 576 546 548 b 709 620 571 463 659 544 b 366 949 796 750 648 949 b 32 749 233 949 71 882 b 99 518 8 669 27 568 b 308 466 190 455 308 517 b 30 271 308 423 58 465 b 369 3 -5 39 277 8 b 723 111 518 -6 682 -8 b 646 315 765 232 730 322 z m 290 1087 b 408 1044 304 1081 337 1074 b 522 991 478 1016 507 997 b 574 1022 544 982 564 997 b 559 1081 584 1047 581 1072 b 440 1123 544 1087 510 1095 b 327 1176 369 1153 341 1171 b 275 1145 304 1186 285 1170 b 290 1087 264 1121 267 1096 z "},"É":{"ha":764,"x_min":0,"x_max":0,"o":"m 646 315 b 304 329 514 302 335 278 b 398 425 276 374 351 416 b 382 658 464 439 513 629 b 124 749 290 678 109 672 b 272 819 136 807 216 820 b 549 647 398 817 517 727 b 555 518 578 576 546 548 b 709 620 571 463 659 544 b 366 949 796 750 648 949 b 32 749 233 949 71 882 b 99 518 8 669 27 568 b 308 466 190 455 308 517 b 30 271 308 423 58 465 b 369 3 -5 39 277 8 b 723 111 518 -6 682 -8 b 646 315 765 232 730 322 z m 233 987 b 345 1043 247 993 276 1012 b 462 1087 416 1073 448 1081 b 476 1146 485 1097 487 1122 b 423 1176 466 1171 446 1186 b 311 1121 409 1170 382 1151 b 194 1076 242 1091 208 1082 b 180 1017 172 1066 169 1041 b 233 987 191 992 210 977 z "},"Ê":{"ha":764,"x_min":0,"x_max":0,"o":"m 646 315 b 304 329 514 302 335 278 b 398 425 276 374 351 416 b 382 658 464 439 513 629 b 124 749 290 678 109 672 b 272 819 136 807 216 820 b 549 647 398 817 517 727 b 555 518 578 576 546 548 b 709 620 571 463 659 544 b 366 949 796 750 648 949 b 32 749 233 949 71 882 b 99 518 8 669 27 568 b 308 466 190 455 308 517 b 30 271 308 423 58 465 b 369 3 -5 39 277 8 b 723 111 518 -6 682 -8 b 646 315 765 232 730 322 z m 307 1010 b 386 1111 349 1049 363 1111 b 468 1010 407 1111 434 1041 b 515 1022 481 999 499 1006 b 527 1069 531 1038 539 1057 b 463 1125 520 1076 500 1088 b 407 1189 427 1161 414 1181 b 388 1197 402 1194 395 1197 b 368 1189 380 1197 373 1194 b 312 1125 361 1181 348 1161 b 248 1069 275 1088 255 1076 b 260 1022 236 1057 244 1038 b 307 1010 276 1006 295 999 z "},"Ë":{"ha":764,"x_min":0,"x_max":0,"o":"m 646 315 b 304 329 514 302 335 278 b 398 425 276 374 351 416 b 382 658 464 439 513 629 b 124 749 290 678 109 672 b 272 819 136 807 216 820 b 549 647 398 817 517 727 b 555 518 578 576 546 548 b 709 620 571 463 659 544 b 366 949 796 750 648 949 b 32 749 233 949 71 882 b 99 518 8 669 27 568 b 308 466 190 455 308 517 b 30 271 308 423 58 465 b 369 3 -5 39 277 8 b 723 111 518 -6 682 -8 b 646 315 765 232 730 322 z m 467 998 b 530 1061 502 998 530 1026 b 467 1125 530 1096 502 1125 b 403 1061 432 1125 403 1096 b 467 998 403 1026 432 998 z m 308 998 b 371 1061 343 998 371 1026 b 308 1125 371 1096 343 1125 b 245 1061 273 1125 245 1096 b 308 998 245 1026 273 998 z "},"Ì":{"ha":386,"x_min":0,"x_max":0,"o":"m 185 946 b 22 849 95 946 22 914 b 42 475 22 809 42 680 b 22 100 42 275 22 141 b 185 3 22 36 95 3 b 348 100 275 3 348 36 b 328 475 348 141 328 275 b 348 849 328 680 348 809 b 185 946 348 914 275 946 z m 343 1083 b 224 1125 328 1088 294 1096 b 111 1178 153 1154 125 1172 b 59 1147 88 1187 69 1172 b 74 1088 48 1122 51 1097 b 192 1046 88 1082 121 1075 b 306 993 262 1017 291 999 b 358 1024 328 983 348 999 b 343 1083 368 1049 365 1073 z "},"Í":{"ha":371,"x_min":0,"x_max":0,"o":"m 348 849 b 185 946 348 914 275 946 b 22 849 95 946 22 914 b 42 475 22 809 42 680 b 22 100 42 275 22 141 b 185 3 22 36 95 3 b 348 100 275 3 348 36 b 328 475 348 141 328 275 b 348 849 328 680 348 809 z m 78 997 b 196 1042 93 1002 124 1018 b 317 1075 269 1066 302 1070 b 336 1132 340 1082 345 1107 b 287 1167 328 1158 310 1175 b 169 1123 272 1162 242 1147 b 48 1090 98 1099 63 1094 b 29 1032 25 1082 20 1058 b 78 997 37 1007 55 990 z "},"Î":{"ha":371,"x_min":0,"x_max":0,"o":"m 348 849 b 185 946 348 914 275 946 b 22 849 95 946 22 914 b 42 475 22 809 42 680 b 22 100 42 275 22 141 b 185 3 22 36 95 3 b 348 100 275 3 348 36 b 328 475 348 141 328 275 b 348 849 328 680 348 809 z m 109 989 b 189 1090 151 1028 166 1090 b 271 989 210 1090 237 1020 b 318 1001 283 978 302 985 b 330 1048 334 1017 341 1036 b 266 1104 322 1055 303 1068 b 210 1168 230 1140 217 1161 b 190 1177 204 1173 198 1177 b 171 1168 183 1177 176 1173 b 114 1104 163 1161 150 1141 b 51 1048 77 1068 58 1055 b 63 1001 39 1036 46 1017 b 109 989 79 985 97 978 z "},"Ï":{"ha":371,"x_min":0,"x_max":0,"o":"m 348 849 b 185 946 348 914 275 946 b 22 849 95 946 22 914 b 42 475 22 809 42 680 b 22 100 42 275 22 141 b 185 3 22 36 95 3 b 348 100 275 3 348 36 b 328 475 348 141 328 275 b 348 849 328 680 348 809 z m 265 1004 b 328 1067 300 1004 328 1032 b 265 1131 328 1102 300 1131 b 201 1067 230 1131 201 1102 b 265 1004 201 1032 230 1004 z m 106 1004 b 169 1067 141 1004 169 1032 b 106 1131 169 1102 141 1131 b 42 1067 71 1131 42 1102 b 106 1004 42 1032 71 1004 z "},"Ð":{"ha":890,"x_min":0,"x_max":0,"o":"m 228 937 b 65 840 138 932 65 905 b 83 572 65 807 78 715 b 57 573 71 573 63 573 b 22 523 33 572 21 550 b 60 476 23 496 36 475 b 85 478 66 476 74 477 b 85 466 85 474 85 470 b 65 91 85 266 65 132 b 228 -6 65 26 138 0 b 626 -6 272 -9 529 -10 b 869 345 745 -1 869 189 b 228 937 869 855 424 948 z m 529 80 b 289 400 447 59 340 202 b 272 486 282 429 276 458 b 311 484 291 485 303 484 b 346 534 335 485 347 507 b 308 581 345 561 332 582 b 264 577 299 581 286 579 b 346 796 260 694 290 782 b 585 476 427 817 535 673 b 529 80 636 278 611 100 z "},"Ñ":{"ha":871,"x_min":0,"x_max":0,"o":"m 849 840 b 686 937 849 905 776 937 b 523 840 596 937 523 905 b 623 267 523 799 726 311 b 361 849 529 227 438 724 b 185 937 312 931 275 937 b 22 840 95 937 22 905 b 42 466 22 799 42 670 b 22 91 42 266 22 132 b 185 -6 22 26 95 -6 b 348 91 275 -6 348 26 b 270 647 348 132 166 623 b 538 46 391 677 389 233 b 686 -6 565 12 620 -6 b 849 91 776 -6 849 26 b 829 466 849 132 829 266 b 849 840 829 670 849 799 z m 357 1013 b 397 1082 382 1048 366 1079 b 456 1037 412 1084 425 1071 b 520 1002 476 1018 498 1002 b 625 1122 579 1000 616 1096 b 613 1166 630 1136 629 1150 b 565 1164 597 1181 574 1177 b 536 1089 540 1129 567 1089 b 402 1175 504 1088 453 1178 b 297 1055 344 1173 306 1081 b 309 1012 292 1041 293 1027 b 357 1013 325 996 348 1000 z "},"Ò":{"ha":935,"x_min":0,"x_max":0,"o":"m 467 948 b 22 464 222 948 22 744 b 467 -20 22 185 222 -20 b 912 464 713 -20 912 185 b 467 948 912 744 713 948 z m 616 438 b 400 73 589 283 489 57 b 318 490 310 88 291 334 b 535 856 345 646 445 871 b 616 438 624 840 643 594 z m 377 1092 b 495 1050 391 1087 424 1080 b 609 997 564 1022 594 1003 b 661 1028 631 988 651 1003 b 645 1087 671 1053 668 1078 b 527 1129 631 1093 597 1100 b 414 1182 456 1158 428 1176 b 362 1151 391 1192 372 1176 b 377 1092 351 1126 354 1102 z "},"Ó":{"ha":935,"x_min":0,"x_max":0,"o":"m 467 948 b 22 464 222 948 22 744 b 467 -20 22 185 222 -20 b 912 464 713 -20 912 185 b 467 948 912 744 713 948 z m 616 438 b 400 73 589 283 489 57 b 318 490 310 88 291 334 b 535 856 345 646 445 871 b 616 438 624 840 643 594 z m 394 975 b 507 1029 408 981 438 1000 b 625 1072 578 1058 611 1066 b 640 1130 648 1081 651 1106 b 588 1161 630 1155 610 1171 b 475 1108 574 1155 546 1137 b 357 1065 405 1079 371 1071 b 342 1006 334 1056 331 1031 b 394 975 352 981 372 966 z "},"Ô":{"ha":935,"x_min":0,"x_max":0,"o":"m 467 948 b 22 464 222 948 22 744 b 467 -20 22 185 222 -20 b 912 464 713 -20 912 185 b 467 948 912 744 713 948 z m 616 438 b 400 73 589 283 489 57 b 318 490 310 88 291 334 b 535 856 345 646 445 871 b 616 438 624 840 643 594 z m 413 998 b 493 1099 455 1036 470 1099 b 575 998 513 1099 541 1029 b 622 1010 587 987 605 993 b 634 1056 638 1026 645 1045 b 570 1113 626 1064 607 1076 b 514 1177 534 1149 521 1169 b 494 1185 508 1182 502 1185 b 475 1177 486 1185 480 1182 b 418 1113 467 1169 454 1149 b 354 1056 381 1076 362 1064 b 366 1010 343 1045 350 1026 b 413 998 383 993 401 987 z "},"Õ":{"ha":935,"x_min":0,"x_max":0,"o":"m 467 948 b 22 464 222 948 22 744 b 467 -20 22 185 222 -20 b 912 464 713 -20 912 185 b 467 948 912 744 713 948 z m 616 438 b 400 73 589 283 489 57 b 318 490 310 88 291 334 b 535 856 345 646 445 871 b 616 438 624 840 643 594 z m 411 1013 b 450 1082 436 1048 420 1079 b 510 1037 466 1084 479 1071 b 574 1002 530 1018 552 1002 b 679 1122 633 1000 670 1096 b 667 1166 684 1136 683 1150 b 619 1164 651 1181 628 1177 b 590 1089 594 1129 620 1089 b 456 1175 558 1088 507 1178 b 351 1055 397 1173 360 1081 b 363 1012 346 1041 347 1027 b 411 1013 379 996 402 1000 z "},"Ö":{"ha":935,"x_min":0,"x_max":0,"o":"m 467 948 b 22 464 222 948 22 744 b 467 -20 22 185 222 -20 b 912 464 713 -20 912 185 b 467 948 912 744 713 948 z m 616 438 b 400 73 589 283 489 57 b 318 490 310 88 291 334 b 535 856 345 646 445 871 b 616 438 624 840 643 594 z m 606 1005 b 669 1068 641 1005 669 1033 b 606 1132 669 1103 641 1132 b 542 1068 571 1132 542 1103 b 606 1005 542 1033 571 1005 z m 447 1005 b 510 1068 482 1005 510 1033 b 447 1132 510 1103 482 1132 b 384 1068 412 1132 384 1103 b 447 1005 384 1033 412 1005 z "},"×":{"ha":343,"x_min":0,"x_max":0,"o":"m 251 357 b 306 403 281 384 298 396 b 288 474 324 421 313 450 b 217 492 264 499 235 510 b 171 437 210 484 198 467 b 125 492 145 466 133 484 b 54 474 107 510 79 499 b 36 403 30 450 19 421 b 91 357 44 396 62 383 b 36 311 62 331 44 319 b 54 240 19 293 30 265 b 125 222 79 216 107 205 b 171 277 133 230 145 248 b 217 222 198 248 210 230 b 288 240 235 205 264 216 b 306 311 313 265 324 293 b 251 357 298 319 281 331 z "},"Ø":{"ha":935,"x_min":0,"x_max":0,"o":"m 795 796 b 831 842 815 822 829 839 b 819 901 848 860 839 883 b 759 906 799 919 775 924 b 725 861 757 904 744 887 b 467 948 653 916 563 948 b 22 464 222 948 22 744 b 167 103 22 316 78 190 b 137 65 150 82 139 68 b 149 6 121 47 129 24 b 209 1 169 -12 193 -18 b 242 44 211 3 224 19 b 467 -20 308 3 385 -20 b 912 464 713 -20 912 185 b 795 796 912 596 868 712 z m 318 490 b 535 856 345 646 445 871 b 617 713 577 848 604 789 b 436 463 541 609 459 495 b 309 290 413 429 362 361 b 318 490 305 358 308 430 z m 616 438 b 400 73 589 283 489 57 b 330 163 368 78 345 113 b 500 406 400 260 480 371 b 627 584 521 442 572 511 b 616 438 628 533 624 482 z "},"Ù":{"ha":814,"x_min":0,"x_max":0,"o":"m 629 937 b 466 840 539 937 466 905 b 486 466 466 799 463 685 b 337 167 503 299 490 110 b 348 840 166 229 348 799 b 185 937 348 905 275 937 b 22 840 95 937 22 905 b 42 466 22 799 42 670 b 398 0 42 266 87 0 b 772 466 753 0 772 266 b 792 840 772 670 792 799 b 629 937 792 905 719 937 z m 273 1106 b 391 1064 287 1100 320 1093 b 505 1010 460 1035 490 1016 b 557 1041 527 1001 547 1017 b 541 1100 567 1066 564 1091 b 423 1142 527 1106 493 1114 b 310 1196 352 1172 324 1190 b 258 1165 287 1205 268 1189 b 273 1106 247 1140 250 1115 z "},"Ú":{"ha":814,"x_min":0,"x_max":0,"o":"m 629 937 b 466 840 539 937 466 905 b 486 466 466 799 463 685 b 337 167 503 299 490 110 b 348 840 166 229 348 799 b 185 937 348 905 275 937 b 22 840 95 937 22 905 b 42 466 22 799 42 670 b 398 0 42 266 87 0 b 772 466 753 0 772 266 b 792 840 772 670 792 799 b 629 937 792 905 719 937 z m 377 1031 b 498 1061 392 1034 425 1046 b 622 1080 574 1076 608 1077 b 649 1135 646 1085 654 1109 b 603 1175 643 1161 627 1180 b 482 1145 588 1172 557 1160 b 358 1126 408 1130 373 1129 b 331 1071 334 1121 326 1097 b 377 1031 337 1045 353 1026 z "},"Û":{"ha":814,"x_min":0,"x_max":0,"o":"m 629 937 b 466 840 539 937 466 905 b 486 466 466 799 463 685 b 337 167 503 299 490 110 b 348 840 166 229 348 799 b 185 937 348 905 275 937 b 22 840 95 937 22 905 b 42 466 22 799 42 670 b 398 0 42 266 87 0 b 772 466 753 0 772 266 b 792 840 772 670 792 799 b 629 937 792 905 719 937 z m 346 1012 b 425 1113 388 1051 403 1113 b 508 1012 446 1113 473 1043 b 554 1024 520 1001 538 1008 b 566 1071 571 1040 578 1059 b 503 1127 559 1078 540 1090 b 446 1191 467 1163 454 1184 b 427 1199 441 1196 434 1199 b 407 1191 419 1199 413 1196 b 351 1127 400 1184 387 1163 b 287 1071 314 1090 294 1078 b 299 1024 275 1059 283 1040 b 346 1012 315 1008 334 1001 z "},"Ü":{"ha":814,"x_min":0,"x_max":0,"o":"m 629 937 b 466 840 539 937 466 905 b 486 466 466 799 463 685 b 337 167 503 299 490 110 b 348 840 166 229 348 799 b 185 937 348 905 275 937 b 22 840 95 937 22 905 b 42 466 22 799 42 670 b 398 0 42 266 87 0 b 772 466 753 0 772 266 b 792 840 772 670 792 799 b 629 937 792 905 719 937 z m 502 999 b 565 1062 537 999 565 1027 b 502 1125 565 1097 537 1125 b 439 1062 467 1125 439 1097 b 502 999 439 1027 467 999 z m 343 999 b 407 1062 378 999 407 1027 b 343 1125 407 1097 378 1125 b 280 1062 308 1125 280 1097 b 343 999 280 1027 308 999 z "},"Ý":{"ha":829,"x_min":0,"x_max":0,"o":"m 806 856 b 638 941 803 911 729 941 b 481 856 565 940 487 924 b 484 646 478 829 496 775 b 306 399 462 400 352 346 b 361 796 259 453 337 626 b 200 945 377 912 289 945 b 23 848 82 945 26 911 b 36 719 20 801 35 773 b 36 533 37 670 36 533 b 350 294 35 336 197 236 b 633 395 507 353 572 463 b 173 245 723 293 497 165 b 136 7 107 262 79 75 b 423 -68 201 -71 302 -74 b 781 389 594 -60 763 28 b 783 623 788 512 783 544 b 806 856 783 771 809 802 z m 351 1031 b 473 1061 366 1034 399 1046 b 597 1080 548 1076 582 1077 b 623 1135 620 1085 628 1109 b 577 1175 618 1161 601 1180 b 456 1145 562 1172 531 1160 b 332 1126 382 1130 347 1129 b 306 1071 308 1121 300 1097 b 351 1031 311 1045 327 1026 z "},"Þ":{"ha":703,"x_min":0,"x_max":0,"o":"m 413 728 b 309 691 369 724 352 708 b 262 704 298 687 269 675 b 309 867 255 736 309 815 b 166 941 310 917 246 941 b 22 866 87 941 22 916 b 48 365 22 842 48 520 b 30 75 48 206 30 107 b 175 0 30 25 95 0 b 317 74 254 0 318 24 b 308 244 316 152 219 287 b 415 209 342 227 355 212 b 680 471 564 203 680 324 b 413 728 680 618 561 744 z m 348 314 b 260 466 295 314 260 405 b 348 618 260 527 295 618 b 435 466 400 618 435 527 b 348 314 435 405 400 314 z "},"ß":{"ha":860,"x_min":0,"x_max":0,"o":"m 831 721 b 588 934 840 876 707 930 b 216 923 492 938 258 934 b 48 463 19 872 48 663 b 28 88 48 258 28 129 b 28 87 28 88 28 88 b 28 83 28 86 28 84 b 191 -14 28 18 101 -14 b 354 83 281 -14 349 18 b 229 429 360 164 240 249 b 267 624 233 502 251 574 b 545 815 320 796 486 905 b 332 537 602 727 438 620 b 372 312 237 461 309 316 b 638 377 468 306 541 368 b 703 303 714 384 733 343 b 507 226 676 265 594 230 b 532 -17 373 220 397 -24 b 830 227 684 -10 818 54 b 429 463 851 560 429 384 b 831 721 429 525 815 463 z "},"à":{"ha":781,"x_min":0,"x_max":0,"o":"m 757 91 b 719 213 751 132 719 112 l 719 389 b 441 646 719 601 504 637 b 103 614 330 661 179 688 b 190 444 44 556 176 393 b 229 508 197 472 209 492 b 427 576 268 539 335 586 b 431 419 588 559 565 434 b 22 187 235 397 27 360 b 277 0 18 42 156 0 b 481 59 420 1 456 66 b 577 1 494 55 477 0 b 757 91 680 3 765 43 z m 474 201 b 343 120 450 154 386 98 b 332 274 300 142 308 227 b 464 355 356 321 421 377 b 474 201 506 333 498 248 z m 341 789 b 459 747 355 784 388 777 b 573 694 529 719 558 700 b 625 725 595 685 615 700 b 610 784 635 750 632 775 b 491 826 595 790 561 797 b 378 879 420 855 392 873 b 326 848 355 888 336 873 b 341 789 315 823 318 799 z "},"á":{"ha":781,"x_min":0,"x_max":0,"o":"m 757 91 b 719 213 751 132 719 112 l 719 389 b 441 646 719 601 504 637 b 103 614 330 661 179 688 b 190 444 45 556 176 393 b 229 508 197 472 209 492 b 427 576 268 539 335 586 b 431 419 588 559 565 434 b 22 187 235 397 27 360 b 277 0 18 42 156 0 b 481 59 420 1 456 66 b 577 1 494 55 477 0 b 757 91 680 3 765 43 z m 474 201 b 343 120 450 154 386 98 b 332 274 300 142 308 227 b 464 355 356 321 421 377 b 474 201 506 333 498 248 z m 325 714 b 447 745 340 717 373 730 b 571 764 522 760 556 761 b 597 819 594 769 602 792 b 551 859 592 845 575 864 b 430 828 536 856 505 844 b 306 810 356 814 321 813 b 280 755 282 805 274 781 b 325 714 285 728 301 710 z "},"â":{"ha":781,"x_min":0,"x_max":0,"o":"m 757 91 b 719 213 751 132 719 112 l 719 389 b 441 646 719 601 504 637 b 103 614 330 661 179 688 b 190 444 44 556 176 393 b 229 508 197 472 209 492 b 427 576 268 539 335 586 b 431 419 588 559 565 434 b 22 187 235 397 27 360 b 277 0 18 42 156 0 b 481 59 420 1 456 66 b 577 1 494 55 477 0 b 757 91 680 3 765 43 z m 474 201 b 343 120 450 154 386 98 b 332 274 300 142 308 227 b 464 355 356 321 421 377 b 474 201 506 333 498 248 z m 311 722 b 390 823 352 761 367 823 b 472 722 411 823 438 753 b 519 734 484 711 503 718 b 531 781 535 750 543 769 b 467 837 524 788 504 801 b 411 901 431 874 418 894 b 391 910 406 906 399 910 b 372 901 384 910 377 906 b 315 837 365 894 351 874 b 252 781 279 801 259 788 b 264 734 240 769 247 750 b 311 722 280 718 298 711 z "},"ã":{"ha":781,"x_min":0,"x_max":0,"o":"m 757 91 b 719 213 751 132 719 112 l 719 389 b 441 646 719 601 504 637 b 103 614 330 661 179 688 b 190 444 44 556 176 393 b 229 508 197 472 209 492 b 427 576 268 539 335 586 b 431 419 588 559 565 434 b 22 187 235 397 27 360 b 277 0 18 42 156 0 b 481 59 420 1 456 66 b 577 1 494 55 477 0 b 757 91 680 3 765 43 z m 474 201 b 343 120 450 154 386 98 b 332 274 300 142 308 227 b 464 355 356 321 421 377 b 474 201 506 333 498 248 z m 286 735 b 325 804 311 770 295 801 b 385 759 341 806 354 793 b 449 724 404 740 427 724 b 554 844 508 722 545 818 b 542 887 559 858 558 872 b 494 886 526 903 503 899 b 465 810 469 851 495 811 b 331 897 433 810 382 900 b 226 777 272 895 235 803 b 238 733 221 763 222 749 b 286 735 254 718 277 722 z "},"ä":{"ha":781,"x_min":0,"x_max":0,"o":"m 757 91 b 719 213 751 132 719 112 l 719 389 b 441 646 719 601 504 637 b 103 614 330 661 179 688 b 190 444 45 556 176 393 b 229 508 197 472 209 492 b 427 576 268 539 335 586 b 431 419 588 559 565 434 b 22 187 235 397 27 360 b 277 0 18 42 156 0 b 481 59 420 1 456 66 b 577 1 494 55 477 0 b 757 91 680 3 765 43 z m 474 201 b 343 120 450 154 386 98 b 332 274 300 142 308 227 b 464 355 356 321 421 377 b 474 201 506 333 498 248 z m 498 701 b 561 764 533 701 561 729 b 498 828 561 799 533 828 b 435 764 463 828 435 799 b 498 701 435 729 463 701 z m 339 701 b 402 764 374 701 402 729 b 339 828 402 799 374 828 b 276 764 304 828 276 799 b 339 701 276 729 304 701 z "},"å":{"ha":781,"x_min":0,"x_max":0,"o":"m 757 91 b 719 213 751 132 719 112 l 719 389 b 547 620 719 527 628 590 b 581 690 568 638 581 663 b 464 790 581 745 528 790 b 348 690 400 790 348 745 b 354 658 348 679 350 668 b 103 614 261 668 160 670 b 190 444 44 556 176 393 b 229 508 197 472 209 492 b 427 576 268 539 335 586 b 431 419 588 559 565 434 b 22 187 235 397 27 360 b 277 0 18 42 156 0 b 481 59 420 1 456 66 b 577 1 494 55 477 0 b 757 91 680 3 765 43 z m 466 642 b 456 644 462 643 459 643 b 432 690 442 649 432 668 b 464 739 432 717 446 739 b 496 690 482 739 496 717 b 466 642 496 664 483 643 z m 474 201 b 343 120 450 154 386 98 b 332 274 300 142 308 227 b 464 355 356 321 421 377 b 474 201 506 333 498 248 z "},"æ":{"ha":1211,"x_min":0,"x_max":0,"o":"m 1127 308 b 889 305 933 256 861 273 b 1137 406 916 336 1057 305 b 942 674 1208 495 1144 674 b 662 547 839 674 734 624 b 441 646 593 622 483 640 b 103 614 330 661 179 688 b 190 444 44 556 176 393 b 229 508 197 472 209 492 b 427 576 268 539 335 586 b 431 419 588 559 565 434 b 22 187 235 397 27 360 b 277 0 18 42 156 0 b 481 59 420 1 456 66 b 577 1 494 55 477 0 b 904 0 644 2 842 0 b 1164 69 1013 0 1110 -17 b 1127 308 1214 150 1180 322 z m 474 201 b 343 120 450 154 386 98 b 332 274 300 142 308 227 b 464 355 356 321 421 377 b 474 201 506 333 498 248 z m 792 382 b 714 522 736 412 691 481 b 885 548 743 572 838 563 b 984 412 955 525 1004 454 b 792 382 960 360 872 340 z "},"ç":{"ha":696,"x_min":0,"x_max":0,"o":"m 605 313 b 266 341 434 300 360 291 b 165 522 204 373 136 465 b 298 573 192 573 261 578 b 486 464 381 562 459 502 b 498 377 519 418 491 398 b 625 444 511 339 584 390 b 357 674 695 534 559 683 b 22 329 173 665 22 519 b 304 -6 22 154 155 66 b 381 -65 339 -24 379 -32 b 310 -103 384 -96 342 -74 b 314 -151 298 -114 297 -137 b 359 -158 331 -165 345 -165 b 466 -39 383 -145 474 -97 b 446 -2 464 -26 456 -13 b 642 75 527 1 594 18 b 605 313 699 144 673 319 z "},"è":{"ha":663,"x_min":0,"x_max":0,"o":"m 578 308 b 340 305 384 256 312 273 b 588 406 367 336 508 305 b 393 674 660 495 595 674 b 22 329 210 674 22 519 b 355 0 22 139 172 0 b 615 69 464 0 562 -17 b 578 308 665 150 632 322 z m 243 382 b 165 522 187 412 142 481 b 336 548 195 572 290 563 b 436 412 406 525 455 454 b 243 382 412 360 323 340 z m 282 795 b 400 753 296 789 329 782 b 514 699 470 724 500 705 b 566 730 536 690 556 706 b 551 789 576 755 573 780 b 433 831 537 795 502 803 b 319 885 361 861 333 879 b 267 854 297 894 277 878 b 282 795 257 829 260 804 z "},"é":{"ha":663,"x_min":0,"x_max":0,"o":"m 578 308 b 340 305 384 256 312 273 b 588 406 367 336 508 305 b 393 674 660 495 595 674 b 22 329 210 674 22 519 b 355 0 22 139 172 0 b 615 69 464 0 562 -17 b 578 308 665 150 632 322 z m 243 382 b 165 522 187 412 142 481 b 336 548 195 572 290 563 b 436 412 406 525 455 454 b 243 382 412 360 323 340 z m 236 720 b 358 750 251 723 284 735 b 482 769 433 765 467 766 b 508 824 505 774 513 798 b 462 864 502 850 486 869 b 341 834 447 861 416 849 b 217 815 267 819 232 818 b 191 760 193 810 185 786 b 236 720 196 734 212 715 z "},"ê":{"ha":663,"x_min":0,"x_max":0,"o":"m 578 308 b 340 305 384 256 312 273 b 588 406 367 336 508 305 b 393 674 660 495 595 674 b 22 329 210 674 22 519 b 355 0 22 139 172 0 b 615 69 464 0 562 -17 b 578 308 665 150 632 322 z m 243 382 b 165 522 187 412 142 481 b 336 548 195 572 290 563 b 436 412 406 525 455 454 b 243 382 412 360 323 340 z m 318 728 b 397 828 360 766 375 828 b 479 728 418 828 445 759 b 526 740 492 717 510 723 b 538 786 543 756 550 775 b 475 843 531 794 512 806 b 418 906 439 879 426 899 b 399 915 413 912 406 915 b 379 906 391 915 384 912 b 323 843 372 899 359 879 b 259 786 286 806 266 794 b 271 740 247 775 255 756 b 318 728 287 723 306 717 z "},"ë":{"ha":663,"x_min":0,"x_max":0,"o":"m 578 308 b 340 305 384 256 312 273 b 588 406 367 336 508 305 b 393 674 660 495 595 674 b 22 329 210 674 22 519 b 355 0 22 139 172 0 b 615 69 464 0 562 -17 b 578 308 665 150 632 322 z m 243 382 b 165 522 187 412 142 481 b 336 548 195 572 290 563 b 436 412 406 525 455 454 b 243 382 412 360 323 340 z m 485 706 b 548 770 520 706 548 735 b 485 833 548 805 520 833 b 422 770 450 833 422 805 b 485 706 422 735 450 706 z m 326 706 b 390 770 361 706 390 735 b 326 833 390 805 361 833 b 263 770 291 833 263 805 b 326 706 263 735 291 706 z "},"ì":{"ha":372,"x_min":0,"x_max":0,"o":"m 349 568 b 23 569 335 686 37 687 b 43 326 17 518 43 467 b 23 83 43 185 17 133 b 349 84 37 -35 335 -34 b 329 326 355 137 329 185 b 349 568 329 467 355 514 z m 52 790 b 170 748 66 785 99 777 b 283 695 239 720 269 701 b 336 726 306 686 325 701 b 320 785 346 751 343 776 b 202 827 306 791 272 798 b 89 880 131 856 103 874 b 36 849 66 889 47 874 b 52 790 26 824 29 800 z "},"í":{"ha":390,"x_min":0,"x_max":0,"o":"m 367 568 b 41 569 353 686 55 687 b 61 326 35 518 61 467 b 41 83 61 185 35 133 b 367 84 55 -35 353 -34 b 347 326 373 137 347 185 b 367 568 347 467 373 514 z m 69 715 b 191 746 84 718 117 731 b 315 765 266 761 300 762 b 341 819 339 769 346 793 b 296 860 336 846 320 865 b 174 829 281 857 250 845 b 50 810 100 815 65 813 b 24 756 26 806 19 782 b 69 715 29 729 45 710 z "},"î":{"ha":372,"x_min":0,"x_max":0,"o":"m 349 568 b 23 569 335 686 37 687 b 43 326 17 518 43 467 b 23 83 43 185 17 133 b 349 84 37 -35 335 -34 b 329 326 355 137 329 185 b 349 568 329 467 355 514 z m 106 692 b 186 792 148 730 163 792 b 268 692 207 792 234 723 b 315 703 280 680 299 687 b 327 750 331 720 338 739 b 263 807 319 758 300 770 b 207 870 227 843 214 863 b 187 879 201 876 195 879 b 168 870 180 879 173 876 b 111 807 160 863 147 843 b 48 750 74 770 55 758 b 59 703 36 739 43 720 b 106 692 76 687 94 680 z "},"ï":{"ha":372,"x_min":0,"x_max":0,"o":"m 349 568 b 23 569 335 686 37 687 b 43 326 17 518 43 467 b 23 83 43 185 17 133 b 349 84 37 -35 335 -34 b 329 326 355 137 329 185 b 349 568 329 467 355 514 z m 278 706 b 342 770 313 706 342 735 b 278 833 342 805 313 833 b 215 770 243 833 215 805 b 278 706 215 735 243 706 z m 120 706 b 183 770 155 706 183 735 b 120 833 183 805 155 833 b 56 770 85 833 56 805 b 120 706 56 735 85 706 z "},"ð":{"ha":860,"x_min":0,"x_max":0,"o":"m 836 798 b 791 838 831 824 814 843 b 757 832 786 837 774 835 b 757 840 757 835 757 838 b 594 937 757 905 685 937 b 433 842 504 937 432 906 b 445 772 433 821 438 797 b 413 766 429 769 417 767 b 387 711 389 761 381 737 b 432 671 392 685 408 666 b 474 682 437 672 453 676 b 444 622 491 628 497 593 b 322 667 405 644 390 664 b 22 329 154 675 22 519 b 329 0 22 139 160 -11 b 442 45 392 4 394 23 b 594 -6 487 65 473 -2 b 782 86 647 -7 779 21 b 746 171 783 117 751 116 b 738 466 739 238 734 355 b 752 737 741 581 747 673 b 810 743 781 740 803 742 b 836 798 834 748 841 771 z m 398 106 b 299 335 339 106 299 244 b 398 565 299 426 339 565 b 498 335 458 565 498 426 b 398 106 498 244 458 106 z "},"ñ":{"ha":799,"x_min":0,"x_max":0,"o":"m 776 93 b 738 223 769 137 738 116 l 738 411 b 464 657 739 600 604 688 b 328 611 365 636 361 577 b 23 569 256 683 35 671 b 43 326 17 518 43 467 b 23 83 43 185 17 133 b 247 -1 32 5 158 -24 b 348 90 306 11 348 41 b 342 282 348 117 332 160 b 504 561 362 516 439 611 b 453 140 585 498 465 302 b 595 -3 446 55 516 -3 b 776 93 699 -3 783 42 z m 295 722 b 335 791 321 757 304 788 b 395 746 350 793 363 780 b 458 711 414 727 436 711 b 563 831 517 709 554 805 b 551 875 568 845 568 859 b 503 873 535 890 512 886 b 474 798 478 838 505 798 b 340 884 442 797 391 887 b 235 764 282 882 245 790 b 247 721 230 750 231 736 b 295 722 263 705 286 709 z "},"ò":{"ha":776,"x_min":0,"x_max":0,"o":"m 388 667 b 22 329 186 667 22 524 b 388 -9 22 133 186 -9 b 754 329 590 -9 754 133 b 388 667 754 524 590 667 z m 442 98 b 290 306 383 84 311 214 b 334 560 269 398 275 546 b 486 352 393 573 465 444 b 442 98 507 260 501 112 z m 281 783 b 399 741 295 778 328 771 b 513 688 469 713 499 694 b 565 719 535 679 555 694 b 550 778 575 744 572 769 b 432 820 536 784 501 791 b 318 873 361 849 332 867 b 266 842 296 883 276 867 b 281 783 256 817 259 793 z "},"ó":{"ha":776,"x_min":0,"x_max":0,"o":"m 388 667 b 22 329 186 667 22 524 b 388 -9 22 133 186 -9 b 754 329 590 -9 754 133 b 388 667 754 524 590 667 z m 442 98 b 290 306 383 84 311 214 b 334 560 269 398 275 546 b 486 352 393 573 465 444 b 442 98 507 260 501 112 z m 269 708 b 390 739 284 711 317 724 b 514 758 466 754 499 755 b 541 813 538 763 546 786 b 495 853 535 839 519 858 b 374 822 480 850 449 838 b 250 804 300 808 265 807 b 223 749 226 799 218 775 b 269 708 229 722 245 704 z "},"ô":{"ha":776,"x_min":0,"x_max":0,"o":"m 388 667 b 22 329 186 667 22 524 b 388 -9 22 133 186 -9 b 754 329 590 -9 754 133 b 388 667 754 524 590 667 z m 442 98 b 290 306 383 84 311 214 b 334 560 269 398 275 546 b 486 352 393 573 465 444 b 442 98 507 260 501 112 z m 327 707 b 406 808 368 745 383 808 b 488 707 427 808 454 738 b 535 719 500 696 519 702 b 547 766 551 735 559 754 b 483 822 540 773 520 785 b 427 886 447 858 434 878 b 407 894 422 891 415 894 b 388 886 400 894 393 891 b 331 822 381 878 367 858 b 268 766 295 785 275 773 b 280 719 256 754 263 735 b 327 707 296 702 314 696 z "},"õ":{"ha":776,"x_min":0,"x_max":0,"o":"m 388 667 b 22 329 186 667 22 524 b 388 -9 22 133 186 -9 b 754 329 590 -9 754 133 b 388 667 754 524 590 667 z m 442 98 b 290 306 383 84 311 214 b 334 560 269 398 275 546 b 486 352 393 573 465 444 b 442 98 507 260 501 112 z m 312 722 b 351 791 337 757 321 788 b 411 746 366 793 379 780 b 475 711 430 727 452 711 b 579 831 533 709 570 805 b 568 875 585 845 584 859 b 519 873 551 890 529 886 b 491 798 494 838 521 798 b 357 884 458 797 407 887 b 252 764 298 882 261 790 b 264 721 246 750 247 736 b 312 722 280 705 303 709 z "},"ö":{"ha":776,"x_min":0,"x_max":0,"o":"m 388 667 b 22 329 186 667 22 524 b 388 -9 22 133 186 -9 b 754 329 590 -9 754 133 b 388 667 754 524 590 667 z m 442 98 b 290 306 383 84 311 214 b 334 560 269 398 275 546 b 486 352 393 573 465 444 b 442 98 507 260 501 112 z m 477 701 b 540 765 512 701 540 730 b 477 828 540 800 512 828 b 413 765 442 828 413 800 b 477 701 413 730 442 701 z m 318 701 b 381 765 353 701 381 730 b 318 828 381 800 353 828 b 254 765 283 828 254 800 b 318 701 254 730 283 701 z "},"÷":{"ha":386,"x_min":0,"x_max":0,"o":"m 321 382 b 193 375 306 382 272 375 b 65 382 116 375 81 382 b 28 320 40 382 28 354 b 65 257 28 285 40 257 b 193 265 81 257 116 265 b 321 257 272 265 306 257 b 358 320 346 257 358 285 b 321 382 358 354 346 382 z m 193 408 b 264 478 232 408 264 439 b 193 549 264 517 232 549 b 123 478 154 549 123 517 b 193 408 123 439 154 408 z m 193 221 b 123 151 154 221 123 190 b 193 80 123 112 154 80 b 264 151 232 80 264 112 b 193 221 264 190 232 221 z "},"ø":{"ha":776,"x_min":0,"x_max":0,"o":"m 679 538 b 701 562 691 551 699 560 b 690 621 718 579 710 603 b 630 627 671 640 646 645 b 607 602 628 625 620 616 b 388 667 546 643 470 667 b 22 329 186 667 22 524 b 134 82 22 229 65 143 b 121 67 127 74 122 69 b 132 8 104 49 112 26 b 192 2 151 -11 176 -16 b 216 29 194 4 203 14 b 388 -9 267 4 326 -9 b 754 329 590 -9 754 133 b 679 538 754 410 726 481 z m 290 306 b 334 560 269 398 275 546 b 457 434 377 570 425 505 b 369 335 420 392 386 354 b 303 264 355 320 331 294 b 290 306 297 278 293 292 z m 442 98 b 343 177 409 90 373 127 b 432 278 380 219 414 258 b 489 338 444 291 464 313 b 442 98 507 246 498 111 z "},"ù":{"ha":861,"x_min":0,"x_max":0,"o":"m 807 152 b 801 340 796 192 801 261 b 823 572 801 488 830 519 b 569 654 813 654 670 678 b 480 564 501 641 480 616 b 484 363 480 537 496 491 b 306 116 462 117 352 63 b 361 512 259 170 337 343 b 200 662 377 628 289 662 b 23 564 82 662 26 627 b 36 436 20 518 35 490 b 36 250 37 386 36 250 b 333 -1 35 53 173 -34 b 482 65 447 22 454 73 b 666 -7 507 58 475 -5 b 839 83 752 -8 839 41 b 807 152 839 119 817 118 z m 302 816 b 421 773 317 810 349 803 b 534 720 490 745 520 726 b 586 751 557 711 576 726 b 571 810 597 776 594 801 b 453 852 557 816 523 824 b 339 905 382 882 353 900 b 287 874 317 915 297 899 b 302 816 277 850 280 825 z "},"ú":{"ha":861,"x_min":0,"x_max":0,"o":"m 807 152 b 801 340 796 192 801 261 b 823 572 801 488 830 519 b 569 654 813 654 670 678 b 480 564 501 641 480 616 b 484 363 480 537 496 491 b 306 116 462 117 352 63 b 361 512 259 170 337 343 b 200 662 377 628 289 662 b 23 564 82 662 26 627 b 36 436 20 518 35 490 b 36 250 37 386 36 250 b 333 -1 35 53 173 -34 b 482 65 447 22 454 73 b 666 -7 507 58 475 -5 b 839 83 752 -8 839 41 b 807 152 839 119 817 118 z m 318 741 b 440 771 333 744 366 756 b 564 790 515 786 549 787 b 590 845 588 795 595 818 b 545 885 585 871 569 890 b 423 855 530 882 499 870 b 299 836 349 840 314 839 b 273 781 275 831 268 807 b 318 741 278 755 294 736 z "},"û":{"ha":861,"x_min":0,"x_max":0,"o":"m 807 152 b 801 340 796 192 801 261 b 823 572 801 488 830 519 b 569 654 813 654 670 678 b 480 564 501 641 480 616 b 484 363 480 537 496 491 b 306 116 462 117 352 63 b 361 512 259 170 337 343 b 200 662 377 628 289 662 b 23 564 82 662 26 627 b 36 436 20 518 35 490 b 36 250 37 386 36 250 b 333 -1 35 53 173 -34 b 482 65 447 22 454 73 b 666 -7 507 58 475 -5 b 839 83 752 -8 839 41 b 807 152 839 119 817 118 z m 338 749 b 418 849 380 787 395 849 b 500 749 438 849 466 780 b 547 760 512 737 530 744 b 559 807 563 777 570 796 b 495 864 551 815 532 827 b 438 927 459 900 446 920 b 419 936 433 933 427 936 b 399 927 411 936 405 933 b 343 864 392 920 379 900 b 279 807 306 827 287 815 b 291 760 268 796 275 777 b 338 749 308 744 326 737 z "},"ü":{"ha":861,"x_min":0,"x_max":0,"o":"m 807 152 b 801 340 796 192 801 261 b 823 572 801 488 830 519 b 569 654 813 654 670 678 b 480 564 501 641 480 616 b 484 363 480 537 496 491 b 306 116 462 117 352 63 b 361 512 259 170 337 343 b 200 662 377 628 289 662 b 23 564 82 662 26 627 b 36 436 20 518 35 490 b 36 250 37 386 36 250 b 333 -1 35 53 173 -34 b 482 65 447 22 454 73 b 666 -7 507 58 475 -5 b 839 83 752 -8 839 41 b 807 152 839 119 817 118 z m 540 727 b 603 791 575 727 603 756 b 540 854 603 826 575 854 b 477 791 505 854 477 826 b 540 727 477 756 505 727 z m 381 727 b 445 791 416 727 445 756 b 381 854 445 826 416 854 b 318 791 346 854 318 826 b 381 727 318 756 346 727 z "},"ý":{"ha":829,"x_min":0,"x_max":0,"o":"m 806 572 b 638 657 803 628 729 658 b 481 573 565 657 487 641 b 484 363 478 545 496 491 b 306 116 462 117 352 63 b 361 512 259 170 337 343 b 200 662 377 628 289 662 b 23 564 82 662 26 627 b 36 436 20 518 35 490 b 36 250 37 386 36 250 b 350 11 35 52 197 -47 b 633 112 507 70 572 180 b 173 -38 723 10 497 -118 b 136 -276 107 -22 79 -208 b 423 -351 201 -354 302 -357 b 781 106 594 -343 763 -256 b 783 340 788 229 783 261 b 806 572 783 488 809 519 z m 301 741 b 423 771 316 744 349 756 b 547 790 498 786 532 787 b 573 845 571 795 578 818 b 528 885 568 871 551 890 b 406 855 513 882 481 870 b 282 836 332 840 297 839 b 256 781 258 831 250 807 b 301 741 261 755 277 736 z "},"þ":{"ha":789,"x_min":0,"x_max":0,"o":"m 464 662 b 347 613 415 656 395 635 b 294 630 334 608 301 593 b 347 840 285 671 346 773 b 185 936 347 905 275 936 b 22 839 95 936 22 903 b 51 192 22 808 51 392 b 31 -182 51 -12 31 -141 b 195 -279 31 -247 104 -279 b 356 -184 285 -279 357 -248 b 345 36 355 -83 244 91 b 466 -9 384 14 399 -6 b 767 329 635 -17 767 139 b 464 662 767 519 632 682 z m 390 93 b 291 323 331 93 291 231 b 390 552 291 414 331 552 b 490 323 450 552 490 414 b 390 93 490 231 450 93 z "},"ÿ":{"ha":829,"x_min":0,"x_max":0,"o":"m 806 572 b 638 657 803 628 729 658 b 481 573 565 657 487 641 b 484 363 478 545 496 491 b 306 116 462 117 352 63 b 361 512 259 170 337 343 b 200 662 377 628 289 662 b 23 564 82 662 26 627 b 36 436 20 518 35 490 b 36 250 37 386 36 250 b 350 11 35 52 197 -47 b 633 112 507 70 572 180 b 173 -38 723 10 497 -118 b 136 -276 107 -22 79 -208 b 423 -351 201 -354 302 -357 b 781 106 594 -343 763 -256 b 783 340 788 229 783 261 b 806 572 783 488 809 519 z m 494 727 b 557 791 529 727 557 756 b 494 854 557 826 529 854 b 430 791 459 854 430 826 b 494 727 430 756 459 727 z m 335 727 b 398 791 370 727 398 756 b 335 854 398 826 370 854 b 272 791 300 854 272 826 b 335 727 272 756 300 727 z "},"Œ":{"ha":1371,"x_min":0,"x_max":0,"o":"m 1254 315 b 912 329 1122 302 943 278 b 1006 425 884 374 959 416 b 990 658 1072 439 1121 629 b 870 674 957 665 913 669 b 732 749 794 684 722 700 b 787 805 738 777 760 795 b 880 819 816 816 851 819 b 1157 647 1006 817 1125 727 b 1163 518 1186 576 1154 548 b 1317 620 1179 463 1267 544 b 974 949 1404 750 1256 950 b 720 865 888 949 790 921 b 467 948 649 918 561 948 b 22 464 222 948 22 744 b 467 -20 22 185 222 -20 b 728 69 565 -20 655 13 b 977 3 810 17 924 6 b 1331 111 1126 -6 1290 -8 b 1254 315 1373 232 1338 322 z m 616 438 b 400 73 589 283 489 57 b 318 490 310 88 291 334 b 535 856 345 646 445 871 b 616 438 624 840 643 594 z "},"œ":{"ha":1140,"x_min":0,"x_max":0,"o":"m 1057 304 b 819 302 863 252 790 270 b 1067 402 846 333 987 302 b 872 670 1138 492 1074 670 b 631 581 786 670 699 636 b 388 664 567 633 481 664 b 22 326 186 664 22 521 b 388 -13 22 130 186 -13 b 626 66 479 -13 562 16 b 834 -3 683 22 755 -3 b 1094 66 943 -3 1040 -20 b 1057 304 1144 147 1110 319 z m 442 95 b 290 303 383 81 311 211 b 334 556 269 395 275 543 b 486 348 393 570 465 440 b 442 95 507 256 501 108 z m 721 379 b 644 518 666 409 621 478 b 815 545 673 569 768 560 b 914 409 885 522 934 450 b 721 379 890 357 802 336 z "},"Š":{"ha":825,"x_min":0,"x_max":0,"o":"m 502 543 b 154 747 228 624 138 669 b 281 832 164 795 222 826 b 612 700 403 844 580 779 b 617 570 640 629 609 600 b 772 673 633 516 723 595 b 408 949 897 873 624 968 b 45 741 271 938 96 875 b 88 455 0 622 25 525 b 564 299 215 316 592 450 b 120 315 542 182 331 295 b 43 111 36 322 1 232 b 370 3 85 -8 220 -6 b 784 273 580 15 781 74 b 502 543 785 372 780 460 z m 387 1090 b 443 1027 423 1054 436 1034 b 463 1018 448 1022 455 1018 b 482 1027 470 1018 477 1022 b 538 1090 489 1034 502 1054 b 602 1147 575 1127 595 1140 b 590 1194 614 1159 606 1177 b 543 1206 574 1210 555 1217 b 464 1105 502 1167 487 1105 b 382 1206 443 1105 416 1174 b 335 1194 370 1217 351 1210 b 323 1147 319 1177 311 1158 b 387 1090 330 1140 350 1127 z "},"š":{"ha":594,"x_min":0,"x_max":0,"o":"m 389 406 b 228 592 218 487 211 568 b 380 555 258 635 345 603 b 398 456 423 496 391 477 b 552 529 411 418 509 455 b 270 670 622 646 465 675 b 23 526 113 666 28 619 b 383 289 10 311 376 364 b 96 313 389 224 229 303 b 59 75 28 319 -4 148 b 432 9 141 -20 315 -23 b 389 406 602 55 651 282 z m 202 778 b 258 714 238 742 251 722 b 278 706 264 709 270 706 b 297 714 285 706 292 709 b 354 778 305 722 318 742 b 417 834 391 815 410 827 b 405 881 429 846 422 865 b 359 893 389 897 371 904 b 279 792 317 855 302 792 b 197 893 258 792 231 862 b 150 881 185 904 166 897 b 138 834 134 865 127 846 b 202 778 145 827 165 815 z "},"Ÿ":{"ha":829,"x_min":0,"x_max":0,"o":"m 806 856 b 638 941 803 911 729 941 b 481 856 565 940 487 924 b 484 646 478 829 496 775 b 306 399 462 400 352 346 b 361 796 259 453 337 626 b 200 945 377 912 289 945 b 23 848 82 945 26 911 b 36 719 20 801 35 773 b 36 533 37 670 36 533 b 350 294 35 336 197 236 b 633 395 507 353 572 463 b 173 245 723 293 497 165 b 136 7 107 262 79 75 b 423 -68 201 -71 302 -74 b 781 389 594 -60 763 28 b 783 623 788 512 783 544 b 806 856 783 771 809 802 z m 494 999 b 557 1062 529 999 557 1027 b 494 1125 557 1097 529 1125 b 430 1062 459 1125 430 1097 b 494 999 430 1027 459 999 z m 335 999 b 398 1062 370 999 398 1027 b 335 1125 398 1097 370 1125 b 272 1062 300 1125 272 1097 b 335 999 272 1027 300 999 z "},"Ž":{"ha":814,"x_min":0,"x_max":0,"o":"m 698 345 b 212 248 561 348 273 44 b 782 736 139 494 761 431 b 426 931 794 916 721 931 b 57 750 159 931 -2 927 b 156 633 96 634 122 590 b 223 736 177 659 176 695 b 547 830 304 806 467 905 b 261 596 599 781 596 664 b 24 250 42 552 14 390 b 205 25 35 104 103 53 b 712 58 365 -19 593 -1 b 698 345 843 123 792 343 z m 389 1069 b 445 1006 425 1033 438 1013 b 465 997 451 1000 457 997 b 484 1006 472 997 479 1000 b 541 1069 492 1013 505 1033 b 604 1126 578 1106 597 1118 b 593 1173 616 1137 609 1156 b 546 1184 576 1189 558 1196 b 466 1084 504 1146 489 1084 b 384 1184 445 1084 418 1153 b 337 1173 372 1196 353 1189 b 325 1126 321 1156 314 1137 b 389 1069 333 1118 352 1106 z "},"ž":{"ha":600,"x_min":0,"x_max":0,"o":"m 577 528 b 317 670 586 659 533 670 b 48 538 122 670 5 668 b 120 453 76 453 95 421 b 169 528 135 472 135 498 b 396 578 228 579 349 624 b 197 426 433 542 442 475 b 24 173 37 393 16 275 b 156 9 31 66 81 29 b 543 75 273 -23 461 -20 b 506 313 606 148 574 319 b 265 167 423 307 361 154 b 205 289 207 174 166 232 b 577 528 272 386 565 348 z m 224 778 b 281 714 260 742 273 722 b 300 706 286 709 293 706 b 320 714 308 706 314 709 b 376 778 327 722 340 742 b 440 834 413 815 432 827 b 428 881 451 846 444 865 b 381 893 411 897 393 904 b 301 792 339 855 324 792 b 219 893 281 792 253 862 b 172 881 207 904 189 897 b 161 834 156 865 149 846 b 224 778 168 827 187 815 z "},"–":{"ha":450,"x_min":0,"x_max":0,"o":"m 385 420 b 225 412 369 420 304 412 b 65 420 148 412 81 420 b 28 357 40 420 28 392 b 65 295 28 323 40 295 b 225 302 81 295 148 302 b 385 295 304 302 369 295 b 422 357 409 295 422 323 b 385 420 422 392 409 420 z "},"—":{"ha":513,"x_min":0,"x_max":0,"o":"m 448 420 b 257 412 432 420 335 412 b 65 420 180 412 81 420 b 28 357 40 420 28 392 b 65 295 28 323 40 295 b 257 302 81 295 180 302 b 448 295 335 302 432 295 b 485 357 473 295 485 323 b 448 420 485 392 473 420 z "},"‘":{"ha":197,"x_min":0,"x_max":0,"o":"m 111 926 b 84 931 98 929 85 926 b 117 954 81 943 111 937 b 79 976 123 971 94 986 b 28 857 65 967 25 935 b 114 788 30 813 68 779 b 168 845 141 794 163 817 b 111 926 174 885 147 918 z "},"“":{"ha":351,"x_min":0,"x_max":0,"o":"m 266 926 b 238 931 253 929 240 926 b 272 954 235 943 266 937 b 233 976 277 971 248 986 b 182 857 219 967 179 935 b 268 788 184 813 223 779 b 322 845 296 794 318 817 b 266 926 329 885 302 918 z m 111 926 b 84 931 98 929 85 926 b 117 954 81 943 111 937 b 79 976 123 971 94 986 b 28 857 65 967 25 935 b 114 788 30 813 68 779 b 168 845 141 794 163 817 b 111 926 174 885 147 918 z "},"„":{"ha":351,"x_min":0,"x_max":0,"o":"m 83 140 b 29 83 55 134 33 111 b 86 2 22 43 49 10 b 113 -3 98 -1 111 2 b 80 -25 116 -15 85 -8 b 118 -48 74 -43 103 -58 b 169 71 132 -39 172 -6 b 83 140 167 115 129 150 z m 323 71 b 238 140 322 115 283 150 b 183 83 210 134 188 111 b 240 2 177 43 204 10 b 267 -3 253 -1 266 2 b 234 -25 271 -15 240 -8 b 273 -48 228 -43 257 -58 b 323 71 287 -39 326 -6 z "},"†":{"ha":544,"x_min":0,"x_max":0,"o":"m 480 675 b 413 672 473 675 447 673 b 425 839 419 758 425 815 b 272 936 425 904 357 936 b 119 839 188 936 119 904 b 132 672 119 815 126 758 b 65 675 98 673 72 675 b 28 612 40 675 28 647 b 65 549 28 577 40 549 b 137 553 72 549 101 551 b 138 465 138 525 138 496 b 119 90 138 265 119 131 b 272 -7 119 26 188 -7 b 425 90 357 -7 425 26 b 407 465 425 131 407 265 b 408 553 407 496 407 525 b 480 549 444 551 472 549 b 517 612 505 549 517 577 b 480 675 517 647 505 675 z "},"…":{"ha":510,"x_min":0,"x_max":0,"o":"m 462 21 b 462 121 489 49 489 93 b 362 121 434 149 390 149 b 362 21 335 93 335 49 b 462 21 390 -6 434 -6 z m 305 21 b 305 121 333 49 333 93 b 205 121 277 149 233 149 b 205 21 178 93 178 49 b 305 21 233 -6 277 -6 z m 148 21 b 148 121 176 49 176 93 b 48 121 121 149 76 149 b 48 21 21 93 21 49 b 148 21 76 -6 121 -6 z "},"‰":{"ha":1449,"x_min":0,"x_max":0,"o":"m 438 756 b 233 931 438 876 346 931 b 28 756 120 931 28 870 b 233 580 28 629 120 580 b 438 756 346 580 438 633 z m 294 744 b 209 627 281 674 242 621 b 172 767 175 633 159 698 b 257 884 185 837 224 890 b 294 744 290 878 307 814 z m 756 353 b 551 178 643 353 551 292 b 756 3 551 52 643 3 b 961 178 869 3 961 56 b 756 353 961 299 869 353 z m 817 166 b 731 50 804 97 765 43 b 695 190 698 56 682 120 b 780 306 708 259 747 313 b 817 166 813 300 830 236 z m 1215 353 b 1010 178 1102 353 1010 292 b 1215 3 1010 52 1102 3 b 1421 178 1328 3 1421 56 b 1215 353 1421 299 1328 353 z m 1276 166 b 1191 50 1263 97 1224 43 b 1154 190 1158 56 1141 120 b 1240 306 1168 259 1207 313 b 1276 166 1273 300 1290 236 z m 761 847 b 678 944 784 911 743 944 b 525 847 613 944 549 911 b 413 472 510 806 487 677 b 253 98 340 272 267 138 b 335 1 229 33 270 1 b 488 98 400 1 465 33 b 597 472 503 138 524 272 b 761 847 671 677 746 806 z "},"€":{"ha":883,"x_min":0,"x_max":0,"o":"m 679 412 b 253 198 523 136 345 89 b 214 301 230 225 218 261 b 240 301 222 301 231 301 b 403 296 340 301 383 296 b 451 339 435 296 451 315 b 403 382 451 362 435 382 b 240 376 383 382 340 376 b 240 435 216 376 211 435 b 403 429 340 435 383 429 b 451 472 435 429 451 448 b 403 515 451 496 435 515 b 267 510 385 515 348 511 b 356 617 290 549 320 586 b 783 612 538 771 742 767 b 847 819 804 531 882 661 b 492 927 819 942 642 935 b 78 515 277 915 96 763 b 76 515 77 515 76 515 b 28 472 44 515 28 496 b 76 429 28 448 44 429 b 78 429 76 429 77 429 b 84 381 79 413 81 397 b 76 382 81 381 78 382 b 28 339 44 382 28 362 b 76 296 28 315 44 296 b 104 297 82 296 91 296 b 490 -20 165 116 315 -10 b 833 309 739 -33 919 180 b 679 412 782 386 707 462 z "},"™":{"ha":904,"x_min":0,"x_max":0,"o":"m 876 880 b 806 922 876 908 844 922 b 709 894 769 922 727 921 b 654 766 677 844 691 766 b 599 894 617 766 632 844 b 503 922 581 921 539 922 b 433 880 464 922 433 908 b 441 720 433 863 441 808 b 433 559 441 634 433 576 b 503 517 433 531 464 517 b 573 559 541 517 573 531 b 531 784 573 576 461 761 b 620 642 595 806 614 652 b 689 642 627 628 681 628 b 778 784 694 652 713 806 b 736 559 848 761 736 576 b 806 517 736 531 767 517 b 876 559 845 517 876 531 b 867 720 876 576 867 634 b 876 880 867 808 876 863 z m 263 918 b 179 918 247 918 195 918 b 28 866 121 918 27 918 b 105 813 28 811 88 781 b 190 863 125 850 162 898 b 151 557 214 832 161 754 b 221 515 150 544 163 515 b 291 557 281 515 291 542 b 251 863 282 754 228 832 b 336 813 279 898 316 850 b 414 866 354 781 413 811 b 263 918 414 918 320 918 z "},"":{"ha":776,"x_min":0,"x_max":0,"o":"m 890 -45 b 783 -125 859 -50 889 -124 b 716 158 716 -126 715 -33 b 719 389 717 216 719 389 b 441 646 719 601 504 637 b 103 614 330 661 179 688 b 190 444 44 556 176 393 b 229 508 197 472 209 492 b 427 576 268 539 335 586 b 431 419 588 559 565 434 b 22 187 235 397 27 360 b 277 0 18 42 156 0 b 477 59 412 0 451 58 b 892 -261 450 -281 741 -417 b 890 -45 971 -180 946 -35 z m 474 201 b 343 120 450 154 386 98 b 332 274 300 142 308 227 b 464 355 356 321 421 377 b 474 201 506 333 498 248 z "},"":{"ha":681,"x_min":0,"x_max":0,"o":"m 665 -45 b 558 -125 634 -50 664 -133 b 154 434 400 -114 110 122 b 298 573 171 555 261 578 b 486 464 381 562 459 502 b 498 377 519 418 491 398 b 625 444 511 339 584 390 b 357 674 695 534 559 683 b 22 329 173 665 22 576 b 667 -261 22 -68 386 -482 b 665 -45 756 -191 721 -35 z "},"":{"ha":808,"x_min":0,"x_max":0,"o":"m 894 -45 b 787 -125 863 -50 891 -145 b 738 466 717 -112 719 -11 b 757 840 746 671 757 799 b 594 937 757 905 685 937 b 433 842 504 937 432 906 b 444 622 434 741 545 567 b 322 667 405 644 390 664 b 22 329 154 675 22 519 b 329 0 22 139 160 -11 b 442 45 392 4 394 23 b 480 13 460 52 479 50 b 896 -261 487 -311 749 -414 b 894 -45 975 -180 950 -35 z m 398 106 b 299 335 339 106 299 244 b 398 565 299 426 339 565 b 498 335 458 565 498 426 b 398 106 498 244 458 106 z "},"":{"ha":660,"x_min":0,"x_max":0,"o":"m 676 -45 b 570 -125 646 -50 676 -119 b 350 305 346 -139 53 233 b 599 406 390 315 518 305 b 403 674 670 495 606 674 b 77 485 275 674 136 601 b 251 -177 -70 196 110 -69 b 678 -261 410 -299 606 -336 b 676 -45 758 -180 732 -35 z m 176 522 b 347 548 205 572 300 563 b 446 412 417 525 465 454 b 253 382 422 360 333 340 b 176 522 197 412 152 481 z "},"":{"ha":811,"x_min":0,"x_max":0,"o":"m 897 -45 b 790 -125 866 -50 896 -135 b 738 411 688 -116 730 7 b 464 657 741 599 607 670 b 305 612 341 645 334 593 b 348 839 268 634 352 769 b 185 936 345 904 275 936 b 22 839 95 936 22 904 b 42 465 22 799 42 670 b 22 90 42 265 22 131 b 185 -7 22 26 95 -7 b 348 90 275 -7 348 26 b 351 359 348 124 325 193 b 509 557 381 547 455 608 b 459 46 579 489 486 360 b 899 -261 427 -325 750 -415 b 897 -45 978 -180 953 -35 z "},"":{"ha":371,"x_min":0,"x_max":0,"o":"m 186 691 b 342 795 272 691 342 738 b 186 899 342 852 272 899 b 31 795 100 899 31 852 b 186 691 31 738 100 691 z m 485 -45 b 378 -125 454 -50 484 -124 b 329 326 329 -126 329 185 b 349 568 329 467 355 514 b 23 569 335 686 37 687 b 43 326 17 518 43 467 b 48 0 43 185 48 157 b 487 -261 47 -312 342 -411 b 485 -45 566 -180 541 -35 z "},"":{"ha":793,"x_min":0,"x_max":0,"o":"m 907 -45 b 801 -125 877 -50 907 -124 b 735 30 751 -126 730 -74 b 740 297 740 159 740 297 b 624 399 729 424 630 378 b 778 589 616 428 753 402 b 418 589 793 699 417 682 b 351 371 419 477 392 363 b 320 503 329 376 314 432 b 348 840 330 623 357 733 b 185 937 343 904 275 937 b 22 840 95 937 22 905 b 42 466 22 799 42 670 b 22 91 42 266 22 132 b 185 -6 22 26 95 -6 b 348 91 275 -6 348 26 b 348 98 348 93 348 95 b 348 97 348 97 348 97 b 419 345 348 253 373 346 b 459 38 460 343 475 317 b 909 -261 440 -287 762 -414 b 907 -45 988 -180 963 -35 z "},"":{"ha":376,"x_min":0,"x_max":0,"o":"m 491 -45 b 384 -125 460 -50 489 -136 b 328 466 301 -117 322 -36 b 348 840 331 670 348 799 b 185 937 348 905 275 937 b 22 840 95 937 22 905 b 42 466 22 799 42 670 b 39 0 42 266 26 191 b 493 -261 61 -316 349 -410 b 491 -45 572 -180 547 -35 z "},"":{"ha":1206,"x_min":0,"x_max":0,"o":"m 1292 -45 b 1185 -125 1261 -50 1287 -152 b 1144 411 1064 -94 1139 160 b 870 657 1148 599 1011 688 b 695 596 772 636 726 561 b 464 657 639 658 561 680 b 328 611 366 633 361 577 b 23 569 256 683 35 671 b 43 326 17 518 43 467 b 23 83 43 185 17 133 b 247 -1 32 5 158 -24 b 348 90 306 11 348 41 b 342 282 348 117 332 160 b 504 561 362 516 439 611 b 453 197 579 503 494 350 b 429 83 439 147 428 112 b 653 -1 434 5 564 -24 b 755 90 713 11 755 41 b 748 282 755 117 738 160 b 910 561 768 516 846 611 b 846 55 992 498 876 289 b 1294 -261 820 -286 1143 -417 b 1292 -45 1373 -180 1348 -35 z "},"":{"ha":797,"x_min":0,"x_max":0,"o":"m 870 -45 b 763 -125 839 -50 869 -125 b 738 411 642 -126 730 100 b 464 657 743 599 604 688 b 328 611 365 636 361 577 b 23 569 256 683 35 671 b 43 326 17 518 43 467 b 23 83 43 185 17 133 b 247 -1 32 5 158 -24 b 348 90 306 11 348 41 b 342 282 348 117 332 160 b 504 561 362 516 439 611 b 457 59 585 498 477 366 b 872 -261 435 -281 721 -417 b 870 -45 951 -180 926 -35 z "},"":{"ha":804,"x_min":0,"x_max":0,"o":"m 918 -168 b 840 -247 887 -173 923 -257 b 738 192 745 -235 727 -179 b 757 567 743 392 757 526 b 594 664 757 631 684 674 b 442 613 474 651 487 593 b 329 658 394 635 392 654 b 22 329 160 668 22 519 b 322 -9 22 139 154 -17 b 444 36 390 -6 405 14 b 536 -274 545 91 457 -51 b 920 -384 601 -457 806 -502 b 918 -168 999 -302 974 -158 z m 398 93 b 299 323 339 93 299 231 b 398 552 299 414 339 552 b 498 323 458 552 498 414 b 398 93 498 231 458 93 z "},"":{"ha":504,"x_min":0,"x_max":0,"o":"m 613 -45 b 506 -125 582 -50 622 -108 b 269 271 265 -161 236 141 b 405 440 285 333 309 397 b 429 568 486 475 480 567 b 349 622 356 568 339 565 b 383 834 371 750 383 801 b 202 931 383 899 293 931 b 22 834 112 931 22 899 b 64 553 22 793 64 753 b 47 263 64 509 53 350 b 615 -261 17 -211 406 -421 b 613 -45 705 -192 669 -35 z "},"":{"ha":875,"x_min":0,"x_max":0,"o":"m 947 -45 b 841 -125 917 -50 946 -137 b 801 340 731 -114 779 119 b 823 572 815 487 830 519 b 569 654 813 654 670 678 b 480 564 501 641 480 616 b 484 363 480 537 496 491 b 306 116 462 117 352 63 b 361 512 259 170 337 343 b 200 662 377 628 289 662 b 23 564 82 662 26 627 b 36 436 20 518 35 490 b 36 250 37 386 36 250 b 333 -1 35 53 173 -34 b 482 65 447 22 455 76 b 491 13 492 61 491 56 b 949 -261 492 -293 806 -410 b 947 -45 1029 -180 1003 -35 z "},"":{"ha":764,"x_min":0,"x_max":0,"o":"m 836 -45 b 730 -125 806 -50 836 -133 b 501 331 599 -116 515 184 b 727 561 495 395 707 486 b 449 590 759 686 477 694 b 416 385 427 508 486 381 b 369 568 341 389 379 514 b 51 570 343 713 -9 688 b 224 327 77 519 129 463 b 24 78 260 274 36 126 b 291 93 -5 -40 314 -36 b 304 282 278 165 252 271 b 391 0 354 293 380 251 b 838 -261 404 -307 695 -410 b 836 -45 918 -180 892 -35 z "},"":{"ha":604,"x_min":0,"x_max":0,"o":"m 759 -45 b 652 -125 728 -50 768 -106 b 287 -44 574 -138 404 -109 b 195 159 158 27 156 102 b 577 528 262 257 565 348 b 317 670 585 659 533 670 b 48 538 122 670 5 668 b 120 453 76 453 95 421 b 169 528 135 472 134 498 b 396 578 228 579 349 624 b 197 306 433 542 445 437 b 23 53 53 230 15 156 b 87 -77 28 4 52 -28 b 761 -261 281 -349 610 -417 b 759 -45 840 -180 815 -35 z "},"":{"ha":781,"x_min":0,"x_max":0,"o":"m 457 667 b 335 622 390 664 375 644 b 346 842 235 567 346 741 b 185 937 347 906 275 937 b 22 840 95 937 22 905 b 42 466 22 799 34 671 b -8 -125 61 -11 63 -112 b -114 -45 -112 -145 -84 -50 b -116 -261 -171 -35 -196 -180 b 300 12 31 -414 292 -311 b 337 45 301 50 319 52 b 450 0 386 23 388 4 b 757 329 619 -11 757 139 b 457 667 757 519 626 675 z m 381 106 b 282 335 321 106 282 244 b 381 565 282 426 321 565 b 480 335 441 565 480 426 b 381 106 480 244 441 106 z "},"":{"ha":594,"x_min":0,"x_max":0,"o":"m 343 931 b 42 603 160 922 -7 790 b 92 469 63 524 110 500 b 51 372 83 453 48 463 b 67 22 56 172 69 134 b -7 -132 65 -79 42 -132 b -103 -50 -117 -132 -72 -54 b -99 -266 -159 -41 -180 -186 b 339 17 48 -412 333 -291 b 327 468 343 233 300 448 b 434 466 350 485 414 442 b 405 549 446 481 463 541 b 227 683 328 560 258 629 b 220 813 205 723 193 781 b 409 710 279 881 385 773 b 418 621 429 658 411 642 b 545 688 431 583 504 634 b 343 931 615 778 545 940 z "},"":{"ha":690,"x_min":0,"x_max":0,"o":"m 307 98 b 166 100 198 64 170 75 b 358 166 161 140 224 159 b 668 412 529 176 668 270 b 542 611 668 497 623 578 b 496 650 498 629 494 635 b 576 661 498 667 532 676 b 630 620 613 648 616 626 b 653 717 656 610 662 671 b 388 683 639 783 384 786 b 397 649 389 658 404 654 b 358 658 392 646 388 653 b 49 412 189 682 54 554 b 133 187 43 246 176 217 b 72 35 74 144 56 100 b 181 -63 82 -8 126 -50 b 584 -57 417 -117 575 30 b -70 -136 595 -159 189 -223 b -144 -50 -174 -101 -114 -54 b -141 -266 -201 -41 -222 -186 b 654 -43 13 -418 658 -373 b 307 98 652 92 583 185 z m 261 442 b 404 583 279 510 345 601 b 456 382 462 564 474 450 b 313 242 438 314 372 224 b 261 442 254 260 243 374 z "},"":{"ha":793,"x_min":0,"x_max":0,"o":"m 769 93 b 731 223 763 137 731 116 l 731 411 b 457 657 732 600 600 670 b 298 612 334 645 328 593 b 341 839 262 634 346 769 b 178 936 338 904 269 936 b 15 839 88 936 15 904 b 35 465 15 799 35 670 b -21 -132 35 265 115 -101 b -117 -50 -128 -157 -86 -54 b -113 -266 -173 -41 -194 -186 b 296 19 34 -411 274 -308 b 336 364 307 182 315 266 b 502 557 377 550 449 608 b 446 140 572 489 454 289 b 588 -3 441 55 510 -3 b 769 93 692 -3 777 42 z "},"":{"ha":618,"x_min":0,"x_max":0,"o":"m 356 691 b 511 795 442 691 511 738 b 356 899 511 852 442 899 b 200 795 270 899 200 852 b 356 691 200 738 270 691 z m 518 561 b 193 573 500 691 204 691 b 210 326 189 525 206 470 b 31 -153 223 -131 109 -178 b -34 -50 -41 -129 -3 -54 b -51 -271 -90 -41 -102 -189 b 267 -329 13 -374 136 -395 b 496 326 472 -228 487 104 b 518 561 502 470 526 509 z "},"":{"ha":790,"x_min":0,"x_max":0,"o":"m 768 589 b 407 589 782 699 407 682 b 341 371 408 477 381 363 b 309 503 318 376 303 432 b 337 840 319 623 346 733 b 174 937 332 904 264 937 b 11 840 84 937 11 905 b 31 466 11 799 18 670 b -23 -136 61 8 54 -122 b -118 -52 -130 -155 -87 -56 b -114 -272 -173 -43 -194 -190 b 288 17 30 -419 276 -293 b 408 345 298 294 362 346 b 444 141 449 343 458 298 b 586 -2 436 56 508 -2 b 767 94 690 -2 775 43 b 729 224 761 138 729 117 l 729 297 b 614 399 718 424 619 378 b 768 589 606 428 742 402 z "},"":{"ha":1210,"x_min":0,"x_max":0,"o":"m 1187 93 b 1149 223 1181 137 1149 116 l 1149 411 b 875 657 1151 599 1016 687 b 700 596 777 636 731 561 b 469 657 644 658 566 680 b 333 611 371 633 366 577 b 28 569 261 683 40 671 b 48 326 22 518 41 466 b -10 -133 66 -16 52 -110 b -103 -50 -98 -166 -72 -54 b -99 -266 -159 -41 -180 -186 b 323 9 48 -411 291 -275 b 347 282 338 143 337 160 b 509 561 367 531 444 611 b 458 197 584 503 500 350 b 435 83 444 147 433 112 b 658 -1 440 5 570 -24 b 760 90 718 11 760 41 b 753 282 760 117 743 160 b 915 561 773 516 851 611 b 864 140 997 498 876 302 b 1007 -3 858 55 928 -3 b 1187 93 1110 -3 1195 42 z "},"":{"ha":803,"x_min":0,"x_max":0,"o":"m 780 93 b 742 223 774 137 742 116 l 742 411 b 468 657 744 599 609 687 b 332 611 370 636 365 577 b 27 569 261 683 39 671 b 47 326 22 518 28 465 b -21 -132 69 168 103 -115 b -117 -50 -130 -147 -86 -54 b -113 -266 -173 -41 -194 -186 b 328 6 33 -410 296 -271 b 346 282 341 123 336 160 b 508 561 366 516 444 611 b 457 140 590 498 469 302 b 600 -3 450 55 521 -3 b 780 93 703 -3 788 42 z "},"":{"ha":593,"x_min":0,"x_max":0,"o":"m 272 670 b 23 491 115 666 23 612 b 367 87 24 264 361 314 b 118 -132 372 -77 161 -132 b 22 -50 8 -132 53 -54 b 26 -266 -34 -41 -55 -186 b 515 65 152 -390 499 -278 b 215 570 530 374 114 442 b 382 555 266 635 347 603 b 400 456 424 496 393 477 b 554 529 412 418 510 455 b 272 670 623 646 467 675 z "},"":{"ha":758,"x_min":0,"x_max":0,"o":"m 456 590 b 423 385 434 508 492 381 b 376 568 348 389 386 514 b 58 570 350 713 -2 688 b 192 382 80 527 129 484 b 22 -132 266 261 142 -106 b -74 -50 -85 -155 -43 -54 b -70 -266 -130 -41 -151 -186 b 294 219 77 -411 420 -213 b 311 282 285 250 277 275 b 363 84 390 298 346 146 b 568 -2 383 8 483 -8 b 688 85 649 3 718 27 b 508 331 661 138 595 190 b 733 561 474 386 714 486 b 456 590 766 685 484 694 z "},"":{"ha":842,"x_min":0,"x_max":0,"o":"m 819 572 b 651 657 815 628 741 658 b 493 573 578 657 500 641 b 497 363 491 545 509 491 b 319 116 474 117 364 63 b 373 512 272 170 349 343 b 212 662 390 628 302 662 b 35 564 94 662 39 627 b 49 436 33 518 48 490 b 49 250 49 386 49 250 b 363 11 47 52 203 -27 b 668 89 554 56 618 166 b 54 -131 787 -95 230 -169 b -32 -50 -53 -107 -1 -54 b -29 -266 -88 -41 -110 -186 b 795 113 125 -417 768 -459 b 796 340 800 230 796 262 b 819 572 796 488 822 519 z "},"":{"ha":793,"x_min":0,"x_max":0,"o":"m 1556 -187 b 1272 -101 1547 -41 1275 -57 b 1314 -198 1270 -133 1346 -84 b 717 18 1245 -444 725 -374 b 719 213 716 90 719 112 l 719 389 b 441 646 719 601 504 637 b 103 614 330 661 179 688 b 190 444 45 556 176 393 b 229 508 197 472 209 492 b 427 576 268 539 335 586 b 431 419 588 559 565 434 b 22 187 235 397 27 360 b 277 0 18 42 156 0 b 481 59 420 1 482 76 b 996 -495 473 -319 756 -453 b 1556 -187 1248 -538 1569 -399 z m 474 201 b 343 120 450 154 386 98 b 332 274 300 142 308 227 b 464 355 356 321 421 377 b 474 201 506 333 498 248 z "},"":{"ha":808,"x_min":0,"x_max":0,"o":"m 1571 -187 b 1288 -101 1562 -41 1291 -57 b 1329 -198 1286 -133 1361 -84 b 722 17 1261 -444 729 -376 b 738 466 720 126 734 355 b 757 840 744 671 757 799 b 594 937 757 905 685 937 b 433 842 504 937 432 906 b 444 622 434 741 545 567 b 322 667 405 644 390 664 b 22 329 154 675 22 519 b 329 0 22 139 160 -11 b 442 45 392 4 394 23 b 497 22 468 56 496 63 b 1012 -495 505 -250 740 -469 b 1571 -187 1266 -519 1585 -399 z m 398 106 b 299 335 339 106 299 244 b 398 565 299 426 339 565 b 498 335 458 565 498 426 b 398 106 498 244 458 106 z "},"":{"ha":790,"x_min":0,"x_max":0,"o":"m 1554 -187 b 1270 -101 1544 -41 1273 -57 b 1312 -198 1268 -133 1343 -84 b 715 18 1243 -444 723 -374 b 715 20 715 19 715 19 b 738 411 718 249 731 314 b 464 657 750 599 607 670 b 305 612 341 645 334 593 b 348 839 268 634 352 769 b 185 936 345 904 275 936 b 22 839 95 936 22 904 b 42 465 22 799 42 670 b 22 90 42 265 22 131 b 185 -7 22 26 95 -7 b 348 90 275 -7 348 26 b 351 359 348 124 325 193 b 509 557 381 547 455 607 b 479 67 591 479 479 336 b 994 -495 479 -269 755 -454 b 1554 -187 1245 -538 1567 -399 z "},"":{"ha":383,"x_min":0,"x_max":0,"o":"m 186 691 b 342 795 272 691 342 738 b 186 899 342 852 272 899 b 31 795 100 899 31 852 b 186 691 31 738 100 691 z m 1132 -187 b 848 -101 1123 -41 851 -57 b 890 -198 846 -133 922 -84 b 315 13 822 -443 357 -375 b 321 342 300 149 311 217 b 349 568 332 483 355 514 b 23 569 335 686 37 687 b 43 326 17 518 43 467 b 42 89 43 185 37 216 b 521 -484 54 -264 287 -444 b 1132 -187 773 -528 1145 -399 z "},"":{"ha":806,"x_min":0,"x_max":0,"o":"m 1569 -187 b 1285 -101 1559 -41 1288 -57 b 1327 -198 1283 -133 1358 -84 b 730 18 1258 -444 716 -374 b 740 282 734 138 758 211 b 624 399 711 396 630 378 b 778 589 616 428 753 402 b 418 589 793 699 417 682 b 351 371 419 477 392 363 b 320 503 329 376 314 432 b 348 840 330 623 357 733 b 185 937 343 904 275 937 b 22 840 95 937 22 905 b 42 466 22 799 42 670 b 22 91 42 266 22 132 b 185 -6 22 26 95 -6 b 348 91 275 -6 348 26 b 348 98 348 93 348 95 b 348 97 348 97 348 97 b 419 345 348 253 373 346 b 466 71 460 343 479 349 b 1009 -495 450 -266 773 -454 b 1569 -187 1261 -538 1582 -399 z "},"":{"ha":382,"x_min":0,"x_max":0,"o":"m 1076 -187 b 793 -101 1067 -41 796 -57 b 834 -198 791 -133 866 -84 b 552 -355 803 -309 675 -388 b 328 466 376 -307 326 -115 b 348 840 329 670 348 799 b 185 937 348 905 275 937 b 22 840 95 937 22 905 b 42 466 22 799 42 670 b 516 -495 41 -206 223 -430 b 1076 -187 766 -550 1090 -399 z "},"":{"ha":1214,"x_min":0,"x_max":0,"o":"m 1976 -187 b 1693 -101 1967 -41 1696 -57 b 1734 -198 1691 -133 1766 -84 b 1138 18 1666 -444 1131 -374 b 1144 411 1142 258 1144 411 b 870 657 1146 600 1011 688 b 695 596 772 636 726 561 b 464 657 639 658 561 680 b 328 611 366 633 361 577 b 23 569 256 683 35 671 b 43 326 17 518 43 467 b 23 83 43 185 17 133 b 247 -1 32 5 158 -24 b 348 90 306 11 348 41 b 342 282 348 117 332 160 b 504 561 362 516 439 611 b 453 197 579 503 494 350 b 429 83 439 147 428 112 b 653 -1 434 5 564 -24 b 755 90 713 11 755 41 b 748 282 755 117 738 160 b 910 561 768 516 846 611 b 873 29 992 498 858 332 b 1416 -495 889 -282 1198 -469 b 1976 -187 1670 -525 1990 -399 z "},"":{"ha":800,"x_min":0,"x_max":0,"o":"m 1563 -187 b 1279 -101 1553 -41 1282 -57 b 1321 -198 1277 -133 1352 -84 b 703 21 1252 -444 714 -371 b 738 411 698 190 733 313 b 464 657 746 599 604 688 b 328 611 365 636 361 577 b 23 569 256 683 35 671 b 43 326 17 518 43 467 b 23 83 43 185 17 133 b 247 -1 32 5 158 -24 b 348 90 306 11 348 41 b 342 282 348 117 332 160 b 504 561 362 516 434 604 b 470 104 610 495 475 331 b 1003 -495 462 -258 766 -454 b 1563 -187 1255 -538 1576 -399 z "},"":{"ha":499,"x_min":0,"x_max":0,"o":"m 1165 -187 b 881 -101 1156 -41 884 -57 b 923 -198 879 -133 955 -84 b 615 -368 889 -319 745 -388 b 259 240 291 -319 238 72 b 405 440 267 306 275 382 b 429 568 486 475 480 567 b 349 622 356 568 339 565 b 383 834 371 750 383 801 b 202 931 383 899 293 931 b 22 834 112 931 22 899 b 64 553 22 793 64 753 b 45 146 64 519 53 395 b 554 -484 34 -206 320 -444 b 1165 -187 806 -528 1178 -399 z "},"":{"ha":865,"x_min":0,"x_max":0,"o":"m 1614 -187 b 1330 -101 1604 -41 1333 -57 b 1372 -198 1328 -133 1403 -84 b 797 13 1303 -443 838 -375 b 794 269 786 117 789 186 b 823 572 805 443 830 519 b 569 654 813 654 670 678 b 480 564 501 641 480 616 b 484 363 480 537 496 491 b 306 116 462 117 352 63 b 361 512 259 170 337 343 b 200 662 377 628 289 662 b 23 564 82 662 26 627 b 36 436 20 518 35 490 b 36 250 37 386 36 250 b 333 -1 35 53 173 -34 b 482 65 447 22 454 73 b 497 42 489 63 495 54 b 1003 -484 542 -279 778 -446 b 1614 -187 1254 -528 1627 -399 z "},"":{"ha":769,"x_min":0,"x_max":0,"o":"m 1449 -171 b 1166 -86 1438 -26 1169 -42 b 1223 -173 1164 -117 1225 -65 b 996 -340 1221 -272 1128 -345 b 501 331 736 -330 464 111 b 727 561 511 394 707 486 b 449 590 759 685 477 694 b 416 385 427 508 486 381 b 369 568 341 389 379 514 b 51 570 343 713 -9 688 b 224 327 77 519 129 463 b 24 78 260 274 36 126 b 291 93 -5 -40 314 -36 b 304 282 278 165 251 278 b 375 96 379 287 363 141 b 1083 -448 485 -331 768 -475 b 1449 -171 1276 -431 1459 -305 z "},"":{"ha":626,"x_min":0,"x_max":0,"o":"m 1251 -187 b 967 -101 1242 -41 970 -57 b 1009 -198 965 -133 1041 -84 b 675 -324 980 -301 836 -341 b 173 98 555 -312 119 -106 b 578 528 206 222 566 348 b 318 670 586 659 533 670 b 49 538 123 670 5 668 b 121 453 77 453 96 421 b 169 528 136 472 135 498 b 397 578 229 579 350 624 b 197 306 434 542 445 437 b 38 1 53 230 -10 154 b 39 0 38 0 38 0 b 640 -484 144 -273 406 -444 b 1251 -187 892 -528 1264 -399 z "},"":{"ha":781,"x_min":0,"x_max":0,"o":"m 458 667 b 336 622 390 664 375 644 b 347 842 236 567 346 741 b 186 937 348 906 276 937 b 23 840 96 937 23 905 b 43 466 23 799 36 671 b 59 17 46 355 61 126 b -241 -339 55 -188 -45 -317 b -549 -183 -378 -354 -517 -300 b -508 -87 -581 -69 -506 -118 b -791 -172 -511 -42 -782 -27 b -231 -480 -805 -385 -486 -505 b 283 22 40 -454 275 -250 b 338 45 284 63 312 56 b 451 0 387 23 389 4 b 758 329 620 -11 758 139 b 458 667 758 519 627 675 z m 382 106 b 282 335 322 106 282 244 b 382 565 282 426 322 565 b 481 335 441 565 481 426 b 382 106 481 244 441 106 z "},"":{"ha":599,"x_min":0,"x_max":0,"o":"m 348 931 b 47 603 164 922 -2 790 b 97 469 67 524 115 500 b 55 372 88 453 53 463 b -236 -291 58 267 113 -169 b -549 -187 -374 -340 -516 -307 b -508 -91 -581 -73 -506 -122 b -791 -176 -511 -46 -782 -31 b -231 -484 -805 -389 -486 -508 b 345 185 8 -461 327 -251 b 332 468 348 256 313 454 b 439 466 354 485 419 442 b 409 549 451 481 468 541 b 232 683 333 560 262 629 b 225 813 209 723 198 781 b 413 710 284 881 390 773 b 423 621 433 658 416 642 b 550 688 435 583 509 634 b 348 931 620 778 550 940 z "},"":{"ha":690,"x_min":0,"x_max":0,"o":"m 304 121 b 166 100 226 96 169 75 b 358 166 160 140 224 159 b 667 412 528 176 667 270 b 542 611 667 497 623 578 b 495 650 498 629 493 635 b 576 661 497 667 532 676 b 630 620 612 648 615 626 b 652 717 655 610 662 671 b 387 683 638 783 383 786 b 396 649 388 658 403 654 b 358 658 392 646 388 653 b 48 412 189 682 53 554 b 133 187 42 246 174 219 b 71 35 58 130 49 98 b 172 -30 81 8 117 -17 b 505 -112 411 -84 473 -22 b -165 -299 587 -345 25 -327 b -438 -182 -301 -279 -419 -253 b -397 -86 -469 -68 -395 -117 b -680 -171 -399 -41 -671 -26 b -120 -479 -694 -384 -437 -479 b 653 -43 153 -479 674 -384 b 304 121 645 92 579 209 z m 260 442 b 403 583 278 510 344 601 b 455 382 462 564 473 450 b 313 242 437 314 371 224 b 260 442 254 260 242 374 z "},"":{"ha":800,"x_min":0,"x_max":0,"o":"m 777 93 b 739 223 771 137 739 116 l 739 411 b 465 657 740 600 608 670 b 306 612 342 645 336 593 b 350 839 270 634 354 769 b 187 936 346 904 277 936 b 24 839 96 936 24 904 b 43 465 24 799 40 670 b -251 -338 53 -98 -55 -316 b -535 -182 -388 -353 -503 -300 b -494 -86 -567 -68 -492 -117 b -777 -171 -497 -42 -768 -26 b -241 -479 -791 -384 -494 -511 b 303 347 314 -410 258 159 b 510 557 356 571 457 608 b 454 140 580 489 462 289 b 596 -3 449 55 518 -3 b 777 93 700 -3 785 42 z "},"":{"ha":625,"x_min":0,"x_max":0,"o":"m 363 691 b 519 795 449 691 519 738 b 363 899 519 852 449 899 b 208 795 278 899 208 852 b 363 691 208 738 278 691 z m 526 561 b 201 573 508 691 212 691 b 218 326 196 525 217 470 b -5 -338 219 58 213 -266 b -313 -182 -136 -381 -280 -300 b -272 -86 -345 -68 -270 -117 b -555 -171 -275 -42 -546 -26 b 5 -479 -569 -384 -250 -504 b 503 295 276 -453 519 -271 b 526 561 500 403 534 509 z "},"":{"ha":819,"x_min":0,"x_max":0,"o":"m 796 589 b 436 589 811 699 435 682 b 369 371 437 477 424 368 b 328 512 307 375 318 441 b 366 840 350 653 375 733 b 203 937 361 904 293 937 b 40 840 113 937 40 905 b 60 465 40 799 52 670 b -172 -338 79 0 85 -263 b -480 -182 -304 -376 -447 -300 b -438 -86 -512 -68 -436 -117 b -722 -171 -441 -42 -713 -26 b -162 -479 -735 -384 -416 -504 b 359 151 109 -453 357 -211 b 437 345 359 277 396 346 b 473 141 478 343 487 298 b 615 -2 465 56 536 -2 b 796 94 719 -2 803 43 b 758 224 790 138 758 117 l 758 297 b 642 399 747 424 648 378 b 796 589 634 428 771 402 z "},"":{"ha":1201,"x_min":0,"x_max":0,"o":"m 1179 93 b 1141 223 1173 137 1141 116 l 1141 411 b 867 657 1143 599 1008 687 b 692 596 769 636 723 561 b 461 657 636 658 558 680 b 325 611 363 633 358 577 b 20 569 253 683 32 671 b 40 326 14 518 40 430 b -214 -338 42 -25 5 -275 b -521 -182 -346 -376 -489 -300 b -480 -86 -553 -68 -478 -117 b -763 -171 -483 -42 -754 -26 b -204 -479 -777 -384 -453 -534 b 339 282 119 -407 277 -223 b 501 561 366 503 436 611 b 450 197 576 503 492 350 b 427 83 436 147 425 112 b 650 -1 432 5 562 -24 b 752 90 710 11 752 41 b 745 282 752 117 735 160 b 907 561 765 516 843 611 b 856 140 989 498 868 302 b 999 -3 850 55 920 -3 b 1179 93 1102 -3 1187 42 z "},"":{"ha":796,"x_min":0,"x_max":0,"o":"m 773 93 b 735 223 766 137 735 116 l 735 411 b 461 657 736 599 601 687 b 325 611 362 636 358 577 b 20 569 253 683 32 671 b 40 326 14 518 35 466 b -214 -338 52 -25 5 -275 b -521 -182 -346 -376 -489 -300 b -480 -86 -553 -68 -478 -117 b -763 -171 -483 -42 -754 -26 b -204 -479 -777 -384 -453 -534 b 339 282 119 -407 296 -225 b 501 561 359 516 414 612 b 450 140 590 509 462 302 b 592 -3 443 55 513 -3 b 773 93 696 -3 780 42 z "},"":{"ha":788,"x_min":0,"x_max":0,"o":"m 463 662 b 346 613 413 656 394 635 b 193 664 300 593 314 651 b 30 567 104 674 30 631 b 50 192 30 526 50 392 b 42 -187 50 -12 50 -147 b -186 -430 15 -325 -48 -415 b -494 -275 -323 -445 -461 -392 b -452 -178 -525 -160 -450 -209 b -736 -263 -455 -134 -726 -118 b -176 -571 -749 -476 -430 -596 b 263 -241 37 -551 188 -465 b 344 36 316 -84 272 75 b 465 -9 383 14 398 -6 b 766 329 634 -17 766 139 b 463 662 766 519 630 682 z m 389 93 b 290 323 330 93 290 231 b 389 552 290 414 330 552 b 489 323 449 552 489 414 b 389 93 489 231 449 93 z "},"":{"ha":594,"x_min":0,"x_max":0,"o":"m 517 644 b 185 660 443 668 333 664 b 22 572 107 658 29 631 b 83 221 16 522 56 398 b -144 -338 113 15 148 -267 b -452 -182 -278 -370 -419 -300 b -411 -86 -484 -68 -409 -117 b -694 -171 -413 -41 -685 -26 b -134 -479 -708 -384 -388 -504 b 380 -4 137 -453 380 -276 b 263 593 380 260 162 512 b 373 556 298 621 345 610 b 393 449 407 489 386 470 b 554 515 406 411 517 459 b 517 644 588 568 574 626 z "},"":{"ha":582,"x_min":0,"x_max":0,"o":"m 261 671 b 13 492 105 667 -9 611 b 260 224 38 358 167 354 b -61 -338 417 5 241 -300 b -369 -182 -197 -355 -336 -300 b -327 -86 -400 -68 -325 -117 b -611 -171 -330 -41 -601 -26 b -51 -479 -624 -384 -387 -552 b 483 196 278 -408 585 -154 b 483 197 483 197 483 197 b 205 571 403 433 140 450 b 371 556 239 635 337 604 b 389 457 414 497 382 478 b 544 530 402 419 500 456 b 261 671 613 647 456 676 z "},"":{"ha":749,"x_min":0,"x_max":0,"o":"m 446 590 b 413 385 424 508 483 381 b 366 568 339 389 376 514 b 48 570 340 713 -12 688 b 170 316 74 519 155 383 b -100 -316 239 0 90 -257 b -395 -182 -231 -357 -362 -300 b -354 -86 -427 -68 -352 -117 b -637 -171 -356 -41 -628 -26 b -92 -445 -651 -384 -396 -553 b 301 282 439 -257 223 275 b 353 84 366 287 337 146 b 559 -2 373 8 473 -8 b 678 85 640 3 708 27 b 498 331 651 138 585 190 b 724 561 464 386 704 486 b 446 590 756 685 474 694 z "},"":{"ha":844,"x_min":0,"x_max":0,"o":"m 823 572 b 655 657 819 628 745 658 b 497 573 581 657 503 641 b 501 363 494 545 512 491 b 322 116 478 117 368 63 b 377 512 275 170 353 343 b 216 662 394 628 306 662 b 39 564 98 662 42 627 b 52 436 36 518 52 490 b 52 250 53 386 52 250 b 366 11 51 52 213 -47 b 649 112 524 70 581 189 b -25 -304 763 -19 387 -286 b -345 -181 -163 -310 -314 -299 b -298 -86 -374 -76 -296 -117 b -582 -171 -301 -42 -572 -26 b -22 -479 -595 -384 -277 -489 b 537 -328 158 -472 401 -415 b 800 340 774 -176 814 -53 b 823 572 794 488 826 519 z "},"":{"ha":822,"x_min":0,"x_max":0,"o":"m 765 -54 b 740 213 750 -53 741 2 l 740 389 b 462 646 740 601 525 637 b 124 614 351 661 200 688 b 211 444 65 556 197 393 b 249 508 218 472 230 492 b 448 576 289 539 356 586 b 452 419 609 559 586 434 b 43 187 256 397 48 360 b 298 0 39 42 177 0 b 502 59 441 1 477 51 b 509 -65 564 78 583 -62 b -589 -156 37 -84 -473 -290 b -592 -62 -639 -98 -570 -84 b -722 -226 -629 -24 -722 -115 b -533 -450 -722 -322 -675 -431 b 529 -194 -260 -487 146 -173 b 761 -367 543 -294 620 -379 b 919 -220 886 -357 919 -269 b 765 -54 919 -81 826 -58 z m 495 201 b 364 120 471 154 406 98 b 353 274 321 142 329 227 b 484 355 377 321 442 377 b 495 201 527 333 519 248 z m 809 -274 b 764 -147 759 -298 723 -169 b 809 -274 815 -120 862 -248 z "},"":{"ha":822,"x_min":0,"x_max":0,"o":"m 765 -54 b 743 466 736 -46 725 69 b 763 840 753 671 763 799 b 600 937 763 905 690 937 b 439 842 510 937 438 906 b 450 622 440 741 551 567 b 328 667 411 644 396 664 b 28 329 159 675 28 519 b 335 0 28 139 167 -23 b 467 48 416 11 423 37 b 509 -65 550 69 571 -62 b -589 -156 37 -84 -473 -290 b -592 -62 -639 -98 -570 -84 b -722 -226 -629 -24 -722 -115 b -533 -450 -722 -322 -675 -431 b 529 -194 -260 -487 146 -173 b 761 -367 543 -294 620 -379 b 919 -220 886 -357 919 -269 b 765 -54 919 -81 824 -71 z m 404 106 b 305 335 345 106 305 244 b 404 565 305 426 345 565 b 504 335 464 565 504 426 b 404 106 504 244 464 106 z m 809 -274 b 764 -147 759 -298 723 -169 b 809 -274 815 -120 862 -248 z "},"":{"ha":822,"x_min":0,"x_max":0,"o":"m 765 -54 b 746 411 735 -55 744 295 b 472 657 749 599 615 671 b 313 612 377 648 343 593 b 357 839 277 634 361 769 b 194 936 353 904 284 936 b 31 839 103 936 31 904 b 50 465 31 799 50 670 b 31 90 50 265 31 131 b 194 -7 31 26 103 -7 b 357 90 284 -7 357 26 b 360 359 357 124 333 193 b 518 564 389 547 459 595 b 546 209 583 531 566 434 b 488 -65 535 90 524 -63 b -589 -156 16 -84 -473 -290 b -592 -62 -639 -98 -570 -84 b -722 -226 -629 -24 -722 -115 b -533 -450 -722 -322 -675 -431 b 508 -194 -260 -487 125 -173 b 761 -367 522 -294 620 -379 b 919 -220 886 -357 919 -269 b 765 -54 919 -81 826 -52 z m 809 -274 b 764 -147 759 -298 723 -169 b 809 -274 815 -120 862 -248 z "},"":{"ha":836,"x_min":0,"x_max":0,"o":"m 793 -54 b 758 297 783 -53 765 141 b 642 399 752 424 648 378 b 796 589 634 428 771 402 b 436 589 811 699 435 682 b 369 371 436 477 409 363 b 337 503 346 376 331 432 b 366 840 347 623 375 733 b 203 937 360 904 293 937 b 40 840 113 937 40 905 b 60 466 40 799 60 670 b 40 91 60 266 40 132 b 203 -6 40 26 113 -6 b 366 91 293 -6 366 26 b 366 98 366 93 366 95 b 366 97 366 97 366 97 b 437 345 366 253 391 346 b 504 168 478 343 496 326 b 522 -62 510 53 541 -60 b -561 -156 173 -102 -421 -316 b -564 -62 -612 -99 -542 -84 b -694 -226 -601 -24 -695 -115 b -506 -450 -694 -322 -647 -431 b 557 -194 -232 -487 174 -173 b 789 -367 571 -294 647 -379 b 947 -220 914 -357 947 -269 b 793 -54 947 -81 854 -58 z m 837 -274 b 792 -147 787 -298 751 -169 b 837 -274 842 -120 890 -248 z "},"":{"ha":392,"x_min":0,"x_max":0,"o":"m 348 -54 b 333 466 339 -53 333 266 b 353 840 333 670 353 799 b 190 937 353 905 280 937 b 27 840 99 937 27 905 b 47 466 27 799 47 670 b 64 -85 47 266 64 -85 b -588 -156 64 -85 -471 -290 b -590 -62 -638 -98 -569 -84 b -721 -226 -628 -24 -721 -115 b -532 -450 -721 -322 -675 -448 b 86 -200 -378 -452 -128 -227 b 345 -367 100 -301 203 -379 b 503 -220 470 -357 503 -269 b 348 -54 503 -81 410 -58 z m 393 -274 b 347 -147 343 -298 306 -169 b 393 -274 398 -120 446 -248 z "},"":{"ha":1218,"x_min":0,"x_max":0,"o":"m 1146 -54 b 1161 411 1138 -54 1158 220 b 887 657 1164 599 1028 688 b 711 596 789 636 743 561 b 481 657 656 658 577 680 b 345 611 383 633 378 577 b 40 569 273 683 52 671 b 60 326 34 518 60 467 b 40 83 60 185 34 133 b 264 -1 49 5 175 -24 b 365 90 323 11 365 41 b 359 282 365 117 349 160 b 521 561 379 516 456 611 b 470 197 596 503 511 350 b 446 83 456 147 445 112 b 670 -1 451 5 581 -24 b 772 90 730 11 772 41 b 765 282 772 117 755 160 b 927 561 785 516 858 604 b 922 185 995 518 954 382 b 894 -54 914 134 894 -54 b -518 -156 894 -54 -402 -290 b -521 -62 -569 -98 -499 -84 b -651 -226 -558 -24 -652 -115 b -463 -450 -651 -322 -604 -431 b 911 -194 -189 -487 528 -173 b 1143 -367 925 -294 1001 -379 b 1301 -220 1268 -357 1301 -269 b 1146 -54 1301 -81 1208 -58 z m 1191 -274 b 1145 -147 1141 -298 1104 -169 b 1191 -274 1196 -120 1244 -248 z "},"":{"ha":808,"x_min":0,"x_max":0,"o":"m 765 -54 b 747 411 756 -53 748 295 b 473 657 746 599 614 688 b 337 611 374 636 370 577 b 32 569 266 683 44 671 b 52 326 26 518 52 467 b 32 83 52 185 26 133 b 256 -1 41 5 167 -24 b 357 90 316 11 357 41 b 351 282 357 117 341 160 b 513 561 371 516 442 602 b 521 -68 620 498 521 -68 b -589 -156 224 -48 -457 -355 b -591 -62 -631 -92 -569 -84 b -720 -198 -629 -24 -709 -76 b -533 -450 -729 -294 -675 -431 b 530 -194 -260 -487 147 -173 b 761 -367 544 -294 620 -379 b 919 -220 887 -357 919 -269 b 765 -54 919 -81 827 -58 z m 810 -274 b 764 -147 760 -298 723 -169 b 810 -274 815 -120 862 -248 z "},"":{"ha":878,"x_min":0,"x_max":0,"o":"m 807 -54 b 804 340 799 -53 788 154 b 827 572 817 487 834 519 b 573 654 817 654 674 678 b 483 564 505 641 483 616 b 488 363 483 537 500 491 b 310 116 466 117 355 63 b 365 512 263 170 341 343 b 203 662 381 628 293 662 b 26 564 85 662 30 627 b 40 436 24 518 39 490 b 40 250 41 386 40 250 b 337 -1 38 52 177 -34 b 485 65 451 22 437 47 b 586 0 537 85 577 57 b 551 -65 591 -30 585 -63 b -547 -156 79 -84 -431 -290 b -550 -62 -597 -98 -528 -84 b -678 -198 -587 -24 -667 -76 b -491 -450 -687 -294 -633 -431 b 571 -194 -218 -487 188 -173 b 803 -367 585 -294 662 -379 b 961 -220 928 -357 961 -269 b 807 -54 961 -81 868 -58 z m 851 -274 b 806 -147 801 -298 765 -169 b 851 -274 857 -120 904 -248 z "},"":{"ha":756,"x_min":0,"x_max":0,"o":"m 713 -54 b 512 331 713 -54 654 170 b 738 561 470 379 718 486 b 461 590 771 686 489 694 b 427 385 438 508 497 381 b 381 568 353 389 390 514 b 63 570 355 713 2 688 b 235 327 88 519 141 463 b 36 78 271 274 47 126 b 302 93 6 -40 325 -36 b 316 282 289 165 262 278 b 461 45 381 287 400 193 b 457 -65 479 2 491 -64 b -505 -156 130 -76 -389 -290 b -508 -62 -556 -98 -486 -84 b -637 -198 -545 -24 -625 -76 b -450 -450 -645 -294 -591 -431 b 477 -194 -176 -487 206 -170 b 709 -367 492 -294 568 -379 b 867 -220 834 -357 867 -269 b 713 -54 867 -58 713 -54 z m 757 -274 b 712 -147 707 -298 671 -169 b 757 -274 763 -120 810 -248 z "},"":{"ha":781,"x_min":0,"x_max":0,"o":"m -139 -220 b 19 -367 -139 -268 -106 -357 b 251 -193 160 -378 237 -294 b 1313 -450 634 -172 1040 -487 b 1502 -225 1455 -431 1502 -322 b 1372 -62 1502 -114 1409 -24 b 1369 -156 1350 -84 1419 -98 b 271 -64 1253 -290 743 -84 b 313 48 209 -62 230 70 b 445 0 357 37 364 12 b 752 329 613 -23 752 139 b 452 667 752 519 621 675 b 330 623 384 664 369 644 b 341 842 230 567 340 742 b 180 937 342 907 270 937 b 17 840 90 937 17 905 b 37 466 17 800 27 672 b 15 -53 55 69 44 -45 b -139 -220 -44 -70 -139 -80 z m 276 336 b 376 565 276 427 316 565 b 475 336 435 565 475 427 b 376 106 475 244 435 106 b 276 336 316 106 276 244 z m 16 -147 b -29 -273 57 -169 21 -297 b 16 -147 -82 -248 -35 -119 z "},"":{"ha":806,"x_min":0,"x_max":0,"o":"m 1382 -62 b 1379 -156 1360 -84 1430 -98 b 728 -85 1263 -290 728 -85 b 738 411 728 -85 746 212 b 464 657 730 599 607 670 b 305 612 341 645 334 593 b 348 839 268 634 352 769 b 185 936 345 904 275 936 b 22 839 95 936 22 904 b 42 465 22 799 42 670 b 22 90 42 265 22 131 b 185 -7 22 26 95 -7 b 348 90 275 -7 348 26 b 351 359 348 124 322 193 b 506 566 378 511 448 612 b 529 282 565 518 552 421 b 472 -51 501 118 472 -51 b 289 -220 472 -51 275 -56 b 447 -367 293 -269 322 -357 b 706 -200 589 -379 691 -301 b 1324 -450 920 -227 1169 -452 b 1513 -226 1467 -448 1512 -322 b 1382 -62 1513 -115 1419 -24 z m 399 -274 b 444 -147 346 -248 393 -120 b 399 -274 485 -169 449 -298 z "},"":{"ha":804,"x_min":0,"x_max":0,"o":"m 1381 -62 b 1379 -156 1359 -84 1429 -98 b 727 -85 1262 -290 727 -85 l 740 297 b 624 399 729 424 630 378 b 778 589 616 428 753 402 b 418 589 793 699 417 682 b 351 371 419 477 392 362 b 320 503 329 376 314 431 b 348 840 330 623 357 733 b 185 937 343 904 275 937 b 22 840 95 937 22 905 b 42 466 22 799 42 670 b 22 91 42 266 22 132 b 185 -6 22 26 95 -6 b 348 91 275 -6 348 26 b 348 98 348 93 348 95 b 348 97 348 97 348 97 b 419 345 348 253 373 346 b 460 221 452 344 464 314 b 443 -54 457 152 448 -54 b 288 -220 381 -58 288 -81 b 446 -367 288 -269 321 -357 b 705 -200 588 -379 691 -301 b 1323 -450 919 -227 1169 -452 b 1512 -226 1466 -448 1512 -322 b 1381 -62 1512 -115 1419 -24 z m 398 -274 b 444 -147 345 -248 393 -120 b 398 -274 484 -169 448 -298 z "},"":{"ha":376,"x_min":0,"x_max":0,"o":"m -125 -220 b 33 -367 -125 -269 -92 -357 b 291 -200 174 -379 277 -301 b 910 -450 450 -235 755 -452 b 1098 -226 1053 -448 1098 -322 b 968 -62 1099 -115 1005 -24 b 965 -156 946 -84 1016 -98 b 314 -85 849 -290 314 -85 b 331 465 314 -85 331 266 b 351 840 331 670 351 799 b 188 937 351 905 278 937 b 25 840 98 937 25 905 b 45 465 25 799 45 670 b 29 -54 45 266 38 -53 b -125 -220 -32 -58 -125 -81 z m 30 -147 b -15 -274 71 -169 35 -298 b 30 -147 -68 -248 -21 -120 z "},"":{"ha":1224,"x_min":0,"x_max":0,"o":"m 1786 -62 b 1784 -156 1764 -84 1834 -98 b 1132 -85 1667 -290 1132 -85 b 1144 411 1132 -85 1150 224 b 870 657 1139 599 1011 688 b 695 596 772 636 726 561 b 464 657 639 658 561 680 b 328 611 366 633 361 577 b 23 569 256 683 35 671 b 43 326 17 518 43 467 b 23 83 43 185 17 133 b 247 -1 32 5 158 -24 b 348 90 306 11 348 41 b 342 282 348 117 332 160 b 504 561 362 516 439 611 b 453 197 579 503 494 350 b 429 83 439 147 428 112 b 653 -1 434 5 564 -24 b 755 90 713 11 755 41 b 748 282 755 117 738 160 b 910 561 768 516 842 606 b 872 -53 1001 502 877 -54 b 693 -220 789 -39 693 -81 b 851 -367 693 -269 726 -357 b 1110 -200 993 -379 1096 -301 b 1728 -450 1268 -235 1574 -452 b 1917 -226 1871 -448 1917 -322 b 1786 -62 1917 -115 1824 -24 z m 803 -274 b 848 -147 750 -248 798 -120 b 803 -274 889 -169 853 -298 z "},"":{"ha":786,"x_min":0,"x_max":0,"o":"m 1377 -62 b 1375 -156 1356 -84 1425 -98 b 723 -85 1258 -290 723 -85 l 738 411 b 464 657 739 600 604 688 b 328 611 365 636 361 577 b 23 569 256 683 35 671 b 43 326 17 518 43 467 b 23 83 43 185 17 133 b 247 -1 32 5 158 -24 b 348 90 306 11 348 41 b 342 282 348 117 332 160 b 504 561 362 516 434 603 b 457 -58 625 488 457 -58 b 284 -220 457 -58 280 -51 b 442 -367 286 -269 317 -357 b 701 -200 584 -379 687 -301 b 1319 -450 859 -235 1165 -452 b 1508 -226 1462 -448 1508 -322 b 1377 -62 1508 -115 1415 -24 z m 394 -274 b 440 -147 341 -248 389 -120 b 394 -274 481 -169 444 -298 z "},"":{"ha":790,"x_min":0,"x_max":0,"o":"m 467 667 b 302 612 348 662 348 581 b 333 784 252 647 254 756 b 614 914 391 804 568 750 b 304 1124 663 1087 501 1165 b 91 956 189 1100 120 1034 b -469 1120 -93 1017 -308 1148 b -653 907 -610 1096 -653 1012 b -551 749 -653 815 -596 714 b -498 862 -526 768 -562 819 b 58 812 -427 911 -212 906 b 51 405 54 739 51 526 b 32 91 52 239 32 127 b 195 -6 32 26 106 -16 b 347 45 316 7 302 65 b 461 0 396 23 398 4 b 767 329 629 -11 767 139 b 467 667 767 519 636 674 z m 442 1075 b 348 879 551 1036 453 837 b 442 1075 263 913 338 1112 z m 391 106 b 292 335 331 106 292 244 b 391 565 292 426 331 565 b 490 335 451 565 490 426 b 391 106 490 244 451 106 z "},"":{"ha":807,"x_min":0,"x_max":0,"o":"m 714 1167 b 511 991 603 1130 539 1070 b -442 1198 -1 1134 -280 1225 b -639 943 -582 1173 -639 1047 b -537 785 -639 851 -582 750 b -484 898 -512 804 -548 855 b 468 857 -415 945 40 1065 b 447 622 575 805 548 567 b 326 667 408 644 393 664 b 26 329 157 675 26 519 b 332 0 26 139 164 -11 b 446 45 395 4 397 23 b 598 -6 491 65 476 -2 b 785 86 650 -8 782 21 b 749 171 787 117 755 116 b 741 465 743 238 737 355 b 759 819 747 646 756 765 b 1034 950 869 800 989 793 b 714 1167 1083 1123 932 1241 z m 402 106 b 303 335 342 106 303 244 b 402 565 303 426 342 565 b 501 335 462 565 501 426 b 402 106 501 244 462 106 z m 767 915 b 861 1111 683 949 758 1148 b 767 915 970 1072 872 873 z "},"":{"ha":618,"x_min":0,"x_max":0,"o":"m 276 1124 b 63 956 162 1100 92 1034 b -497 1120 -252 1021 -325 1122 b -681 907 -640 1118 -681 1012 b -579 749 -680 815 -624 714 b -526 862 -554 768 -590 819 b 30 812 -455 911 -240 906 b 57 603 29 787 27 688 b 108 469 84 526 125 500 b 66 372 98 453 63 463 b 40 91 71 172 40 132 b 204 -6 40 26 114 -6 b 366 91 295 -6 366 26 b 343 468 366 130 315 448 b 449 466 365 485 429 442 b 420 549 462 481 478 541 b 241 700 343 560 244 579 b 305 784 241 735 265 770 b 586 914 363 804 540 750 b 276 1124 635 1087 474 1165 z m 320 879 b 414 1075 235 913 310 1112 b 320 879 523 1036 425 837 z "},"":{"ha":718,"x_min":0,"x_max":0,"o":"m 1268 -55 b 1215 -169 1243 -74 1279 -126 b 651 -143 1145 -217 919 -235 b 367 111 658 -129 683 198 b 187 100 262 82 203 70 b 379 166 162 148 245 159 b 689 412 550 176 689 270 b 563 611 689 497 644 578 b 517 650 519 629 515 635 b 597 661 519 667 553 676 b 651 620 634 648 637 626 b 674 717 677 610 683 671 b 409 683 660 783 405 786 b 418 649 410 658 425 654 b 379 658 413 646 409 653 b 70 412 210 682 75 554 b 154 187 64 246 196 219 b 83 34 79 130 59 88 b 380 -20 101 -5 159 -42 b 371 -113 470 -11 456 -115 b 89 -243 309 -111 136 -80 b 400 -453 40 -416 202 -494 b 612 -285 514 -429 584 -363 b 1204 -441 797 -346 1043 -469 b 1370 -214 1345 -417 1370 -318 b 1268 -55 1369 -122 1313 -21 z m 282 442 b 424 583 300 510 366 601 b 477 382 483 564 495 450 b 334 242 459 314 393 224 b 282 442 275 260 264 374 z m 262 -404 b 356 -209 153 -365 251 -166 b 262 -404 440 -243 365 -442 z "},"":{"ha":821,"x_min":0,"x_max":0,"o":"m 797 93 b 759 223 791 137 759 116 l 759 411 b 485 657 761 600 629 670 b 326 612 362 645 361 604 b 363 789 253 627 254 788 b 614 914 437 789 574 773 b 304 1124 663 1087 501 1165 b 91 956 189 1100 120 1034 b -469 1120 -94 1017 -308 1148 b -653 907 -610 1096 -653 1012 b -551 749 -653 815 -596 714 b -498 862 -526 768 -562 819 b 60 816 -429 910 -204 905 b 64 465 62 791 64 560 b 44 90 64 265 44 131 b 207 -7 44 26 117 -7 b 370 90 297 -7 370 26 b 373 359 370 124 347 193 b 530 557 403 547 477 608 b 474 140 600 489 483 289 b 617 -3 469 55 538 -3 b 797 93 720 -3 805 42 z m 442 1075 b 348 879 551 1036 453 837 b 442 1075 263 913 338 1112 z "},"":{"ha":624,"x_min":0,"x_max":0,"o":"m 352 691 b 508 795 438 691 508 738 b 352 899 508 852 438 899 b 197 795 266 899 197 852 b 352 691 197 738 266 691 z m 1105 -55 b 1052 -169 1080 -74 1115 -126 b 500 -128 986 -213 742 -203 b 493 326 488 47 484 104 b 515 561 499 470 522 509 b 190 573 497 691 201 691 b 207 326 185 525 205 470 b 221 -90 209 143 221 -90 b -61 -220 221 -90 -14 -57 b 250 -430 -110 -393 52 -471 b 462 -262 364 -407 434 -341 b 1041 -441 647 -323 880 -469 b 1206 -214 1182 -417 1207 -318 b 1105 -55 1206 -122 1150 -21 z m 112 -381 b 206 -186 3 -342 101 -143 b 112 -381 290 -220 215 -419 z "},"":{"ha":819,"x_min":0,"x_max":0,"o":"m 796 589 b 435 589 811 699 435 682 b 369 371 436 477 410 373 b 372 789 219 364 267 778 b 614 914 446 798 580 805 b 304 1124 668 1085 501 1165 b 91 956 189 1100 120 1034 b -469 1120 -94 1017 -308 1148 b -653 907 -610 1096 -653 1012 b -551 749 -653 815 -596 714 b -498 862 -526 768 -562 819 b 62 815 -429 910 -200 903 b 60 466 66 759 60 642 b 40 91 60 266 40 132 b 203 -6 40 26 112 -6 b 366 91 293 -6 366 26 b 365 98 366 93 366 95 b 366 97 366 97 366 97 b 437 345 366 253 391 346 b 472 141 478 343 486 298 b 615 -2 464 56 536 -2 b 795 94 718 -2 803 43 b 757 224 789 138 757 117 l 757 297 b 642 399 747 424 648 378 b 796 589 634 428 771 402 z m 442 1075 b 348 879 551 1036 453 837 b 442 1075 263 913 338 1112 z "},"":{"ha":389,"x_min":0,"x_max":0,"o":"m 291 1124 b 79 956 177 1100 107 1034 b -482 1120 -106 1017 -321 1148 b -665 907 -623 1096 -666 1012 b -564 749 -665 815 -609 714 b -511 862 -539 768 -574 819 b 49 816 -441 910 -216 906 b 54 466 51 796 54 560 b 34 91 54 266 34 132 b 197 -6 34 26 107 -6 b 360 91 287 -6 360 26 b 340 466 360 132 340 266 b 343 789 340 638 338 738 b 602 914 419 793 563 778 b 291 1124 651 1087 489 1165 z m 335 879 b 429 1075 251 913 326 1112 b 335 879 538 1036 440 837 z "},"":{"ha":843,"x_min":0,"x_max":0,"o":"m 1365 -55 b 1312 -169 1340 -74 1376 -126 b 756 -118 1241 -217 1026 -212 b 783 340 757 -106 783 261 b 806 572 783 488 809 519 b 638 657 803 628 729 658 b 481 573 565 657 487 641 b 484 363 478 545 496 491 b 306 116 462 117 352 63 b 361 512 259 170 337 343 b 200 662 377 628 289 662 b 23 564 82 662 26 627 b 36 436 20 518 35 490 b 36 250 37 386 36 250 b 346 4 35 52 184 -18 b 601 53 520 28 548 109 b 481 -90 642 9 635 -78 b 200 -220 420 -95 246 -57 b 510 -430 151 -393 313 -471 b 723 -262 625 -407 694 -341 b 1302 -441 907 -323 1140 -469 b 1467 -214 1442 -417 1467 -318 b 1365 -55 1467 -122 1410 -21 z m 372 -381 b 466 -186 263 -342 361 -143 b 372 -381 551 -220 476 -419 z "},"":{"ha":772,"x_min":0,"x_max":0,"o":"m 1167 1216 b 998 1310 1122 1328 1023 1361 b 1001 1184 984 1282 1035 1253 b 239 877 909 996 571 916 l 235 892 b 14 1091 215 983 143 1064 b -297 881 -184 1132 -346 1054 b 1 743 -251 717 -60 747 b 36 468 24 742 34 585 b 36 466 36 467 36 466 b 16 91 36 266 16 132 b 179 -6 16 26 90 -16 b 331 45 300 7 286 65 b 445 0 380 23 382 4 b 751 329 613 -11 751 139 b 451 667 751 519 620 675 b 330 622 384 664 368 640 b 265 758 201 564 187 741 b 1090 914 439 796 958 805 b 1167 1216 1200 1005 1205 1119 z m -30 846 b -124 1042 -135 804 -233 1003 b -30 846 -21 1079 54 880 z m 375 565 b 474 335 435 565 474 426 b 375 106 474 244 435 106 b 276 335 315 106 276 244 b 375 565 276 426 315 565 z "},"":{"ha":808,"x_min":0,"x_max":0,"o":"m 1341 1195 b 1172 1288 1296 1306 1198 1339 b 1194 1178 1159 1260 1212 1253 b 730 877 1160 1034 996 896 l 727 892 b 505 1091 706 983 634 1064 b 194 881 307 1132 146 1054 b 439 743 231 752 357 740 b 444 622 559 748 524 578 b 322 667 405 644 390 664 b 22 329 154 675 22 519 b 329 0 22 139 160 -11 b 442 45 392 4 394 23 b 594 -6 487 65 473 -2 b 782 86 647 -8 779 21 b 746 171 783 117 751 116 b 738 466 739 238 734 355 b 750 756 742 612 747 702 b 1264 892 752 757 1132 783 b 1341 1195 1375 983 1380 1098 z m 461 846 b 367 1042 356 804 258 1003 b 461 846 471 1079 546 880 z m 398 106 b 299 335 339 106 299 244 b 398 565 299 426 339 565 b 498 335 458 565 498 426 b 398 106 498 244 458 106 z "},"":{"ha":697,"x_min":0,"x_max":0,"o":"m 311 121 b 173 100 233 96 176 75 b 365 166 167 140 231 159 b 674 412 535 176 674 270 b 549 611 674 497 630 578 b 502 650 505 629 500 635 b 583 661 504 667 539 676 b 637 620 620 648 622 626 b 659 717 662 610 669 671 b 394 683 645 783 390 786 b 403 649 395 658 410 654 b 365 658 399 646 395 653 b 55 412 196 682 60 554 b 140 187 49 246 181 219 b 78 35 65 130 56 98 b 179 -30 88 8 124 -17 b 591 -60 418 -84 582 33 b 46 -138 600 -150 318 -217 b -380 -56 -74 -104 -253 -35 b -583 -294 -522 -79 -574 -190 b -472 -452 -592 -414 -517 -487 b -454 -359 -448 -433 -499 -421 b 115 -281 -380 -259 -246 -184 b 660 -43 570 -404 665 -174 b 311 121 656 92 587 209 z m 267 442 b 410 583 285 510 351 601 b 462 382 469 564 480 450 b 320 242 444 314 378 224 b 267 442 261 260 249 374 z "},"":{"ha":828,"x_min":0,"x_max":0,"o":"m 1250 1247 b 1082 1340 1206 1359 1107 1391 b 1085 1215 1068 1312 1119 1284 b 322 907 993 1027 654 947 l 319 922 b 97 1122 298 1014 226 1095 b -213 912 -101 1163 -262 1085 b 56 774 -173 769 -23 773 b 64 465 59 717 64 598 b 44 90 64 265 44 131 b 207 -7 44 26 117 -7 b 370 90 297 -7 370 26 b 373 359 370 124 347 193 b 530 557 403 547 477 608 b 474 140 601 489 483 289 b 617 -3 469 55 538 -3 b 798 93 721 -3 805 42 b 760 223 791 137 760 116 l 760 411 b 486 657 761 600 628 674 b 327 612 406 647 382 610 b 348 791 245 613 229 772 b 1174 945 541 822 1046 840 b 1250 1247 1284 1036 1289 1150 z m 53 877 b -41 1073 -52 835 -150 1034 b 53 877 63 1110 138 911 z "},"":{"ha":618,"x_min":0,"x_max":0,"o":"m 350 691 b 505 795 436 691 505 738 b 350 899 505 852 436 899 b 194 795 264 899 194 852 b 350 691 194 738 264 691 z m 520 -22 b 490 326 516 87 481 104 b 513 561 496 470 520 509 b 187 573 494 691 198 691 b 204 326 183 525 202 470 b 275 -218 209 -21 323 -53 b 178 -194 256 -284 112 -296 b -58 -87 215 -136 106 -113 b -353 -56 -160 -70 -266 -42 b -555 -294 -494 -79 -547 -190 b -445 -452 -564 -414 -490 -487 b -438 -357 -420 -433 -464 -429 b 90 -222 -406 -269 -209 -79 b 172 -371 72 -280 135 -354 b 520 -22 310 -436 531 -337 z "},"":{"ha":814,"x_min":0,"x_max":0,"o":"m 1236 1247 b 1068 1340 1192 1359 1093 1391 b 1071 1215 1054 1312 1105 1284 b 309 907 979 1027 640 947 l 305 922 b 83 1122 284 1014 212 1095 b -227 912 -114 1163 -276 1085 b 32 774 -189 775 -49 773 b 47 466 38 709 47 605 b 27 91 47 266 27 132 b 190 -6 27 26 100 -6 b 353 91 280 -6 353 26 b 353 98 353 93 353 95 b 353 97 353 97 353 97 b 424 345 353 253 378 346 b 460 141 465 343 474 298 b 602 -2 452 56 523 -2 b 783 94 706 -2 790 43 b 745 224 776 138 745 117 l 745 297 b 629 399 734 424 635 378 b 783 589 621 428 758 402 b 423 589 798 699 422 682 b 356 371 423 477 413 377 b 325 503 322 368 311 394 b 334 792 337 606 334 699 b 1160 945 540 821 1037 843 b 1236 1247 1270 1036 1275 1150 z m 39 877 b -55 1073 -66 835 -164 1034 b 39 877 49 1110 124 911 z "},"":{"ha":385,"x_min":0,"x_max":0,"o":"m 1196 1285 b 1027 1378 1151 1397 1052 1429 b 1031 1253 1014 1350 1064 1322 b 303 946 938 1065 634 986 l 299 961 b 43 1160 278 1053 172 1133 b -268 950 -155 1201 -316 1123 b 31 812 -221 786 -31 814 b 48 466 42 811 48 670 b 28 91 48 266 28 132 b 191 -6 28 26 101 -6 b 354 91 281 -6 354 26 b 334 466 354 132 334 266 b 327 836 334 670 324 713 b 1119 983 513 872 990 876 b 1196 1285 1230 1074 1235 1188 z m -1 915 b -95 1111 -106 873 -204 1072 b -1 915 8 1148 84 949 z "},"":{"ha":831,"x_min":0,"x_max":0,"o":"m 807 572 b 640 657 804 628 730 658 b 482 573 566 657 488 641 b 486 363 479 545 497 491 b 307 116 463 117 353 63 b 362 512 260 170 338 343 b 201 662 379 628 291 662 b 24 564 83 662 27 627 b 37 436 21 518 37 490 b 37 250 38 386 37 250 b 351 11 36 52 198 -47 b 634 112 509 70 627 203 b -353 -56 660 -251 -104 10 b -555 -323 -508 -98 -547 -219 b -445 -481 -564 -443 -490 -516 b -449 -390 -420 -462 -488 -456 b 439 -259 -369 -253 -52 -143 b 783 106 606 -299 764 -256 b 785 340 789 229 785 261 b 808 572 785 488 811 519 z "},"":{"ha":794,"x_min":0,"x_max":0,"o":"m 471 667 b 350 622 404 664 389 644 b 313 750 332 612 314 660 b -98 985 312 1086 -2 1104 b -120 779 -155 913 -176 770 b -13 860 -89 785 -106 882 b 45 779 9 855 31 844 b 56 466 50 714 56 576 b 36 91 56 266 36 132 b 199 -6 36 26 110 -16 b 352 45 320 7 306 65 b 465 0 400 23 402 4 b 771 329 634 -11 771 139 b 471 667 771 519 640 675 z m 395 106 b 296 335 336 106 296 244 b 395 565 296 426 336 565 b 494 335 455 565 494 426 b 395 106 494 244 455 106 z "},"":{"ha":814,"x_min":0,"x_max":0,"o":"m 791 93 b 753 223 785 137 753 116 l 753 411 b 479 657 754 600 622 670 b 320 612 356 645 351 596 b 283 879 264 639 314 787 b -98 985 214 1086 -17 1086 b -120 779 -155 913 -176 770 b -13 860 -89 785 -107 889 b 57 465 77 832 57 624 b 37 90 57 265 37 131 b 200 -7 37 26 110 -7 b 363 90 291 -7 363 26 b 367 359 363 124 340 193 b 524 557 396 547 471 608 b 468 140 594 489 476 289 b 610 -3 463 55 532 -3 b 791 93 714 -3 798 42 z "},"":{"ha":818,"x_min":0,"x_max":0,"o":"m 795 589 b 434 589 810 699 434 682 b 368 371 435 477 425 368 b 336 503 345 373 321 396 b 332 901 348 588 390 764 b -98 985 250 1092 -20 1083 b -120 779 -155 913 -176 770 b -13 860 -89 785 -106 882 b 42 792 7 855 27 845 b 59 466 65 709 59 547 b 39 91 59 266 39 132 b 202 -6 39 26 111 -6 b 365 91 292 -6 365 26 b 364 98 365 93 365 95 b 365 97 365 97 365 97 b 436 345 365 253 390 346 b 471 141 477 343 485 298 b 614 -2 463 56 535 -2 b 794 94 717 -2 802 43 b 756 224 788 138 756 117 l 756 297 b 641 399 746 424 647 378 b 795 589 633 428 770 402 z "},"":{"ha":369,"x_min":0,"x_max":0,"o":"m 295 915 b -112 985 205 1090 -35 1080 b -134 779 -169 913 -190 770 b -35 861 -103 785 -140 876 b 31 795 -17 859 17 842 b 42 465 58 707 42 630 b 22 91 42 266 22 132 b 185 -6 22 26 95 -6 b 348 91 275 -6 348 26 b 328 465 348 132 328 266 b 295 915 328 547 359 790 z "},"":{"ha":881,"x_min":0,"x_max":0,"o":"m 826 152 b 819 340 815 192 819 261 b 842 572 819 488 849 519 b 587 654 832 654 688 678 b 498 564 520 641 498 616 b 503 363 498 537 515 491 b 325 116 480 117 370 63 b 357 563 278 170 327 331 b 265 1004 383 771 343 901 b -20 1135 189 1106 83 1148 b -152 994 -140 1119 -195 1031 b -34 983 -128 974 -97 1027 b 71 626 67 912 70 817 b 55 250 72 502 55 250 b 352 -1 53 52 192 -34 b 500 65 466 22 472 73 b 685 -7 526 58 494 -5 b 858 83 770 -8 858 41 b 826 152 858 119 836 118 z "},"":{"ha":740,"x_min":0,"x_max":0,"o":"m 538 655 b 434 555 465 641 402 580 b 485 453 452 542 477 528 b 367 154 498 313 438 134 b 311 575 276 180 322 398 b 201 1006 298 785 270 913 b -89 1122 125 1108 12 1147 b -204 967 -206 1092 -251 999 b -85 969 -178 950 -153 1006 b 79 327 69 886 51 734 b 317 -3 96 75 192 11 b 695 408 499 -23 648 286 b 538 655 768 596 650 677 z "},"":{"ha":1126,"x_min":0,"x_max":0,"o":"m 925 654 b 821 555 852 640 789 579 b 872 452 839 541 864 527 b 754 153 885 313 839 134 b 729 568 645 178 778 424 b 584 654 712 617 650 646 b 518 655 563 658 540 659 b 404 586 461 649 413 626 b 452 358 397 520 432 521 b 354 154 475 183 397 141 b 297 575 262 180 308 398 b 187 1006 284 785 256 913 b -103 1122 111 1108 -2 1147 b -218 967 -220 1092 -265 999 b -99 969 -192 950 -167 1006 b 65 327 55 886 38 734 b 303 -3 82 75 178 11 b 525 127 386 -12 463 48 b 704 -4 568 38 622 5 b 1082 407 886 -23 1035 286 b 925 654 1155 595 1037 676 z "},"":{"ha":764,"x_min":0,"x_max":0,"o":"m 461 590 b 428 385 439 508 497 393 b 334 995 291 368 387 824 b 119 1111 301 1100 222 1125 b -13 971 -1 1095 -57 1007 b 105 959 11 950 60 1021 b 236 327 167 873 24 592 b 36 78 275 277 48 126 b 303 93 7 -40 326 -36 b 316 282 290 165 263 278 b 368 84 381 287 352 146 b 574 -2 388 8 488 -8 b 693 85 655 3 723 27 b 513 331 666 138 600 190 b 739 561 479 386 719 486 b 461 590 771 685 489 694 z "},"":{"ha":847,"x_min":0,"x_max":0,"o":"m 824 572 b 656 657 821 628 747 658 b 499 573 583 657 505 641 b 502 363 496 545 514 491 b 324 116 480 117 370 63 b 360 608 277 170 346 461 b 321 980 378 790 376 868 b 35 1111 265 1094 139 1125 b -97 971 -84 1095 -140 1007 b 21 959 -73 950 -38 1007 b 83 630 101 895 87 821 b 54 252 82 536 54 268 b 54 250 54 251 54 250 l 54 250 b 368 11 53 52 215 -47 b 651 112 525 70 590 180 b 191 -38 741 10 515 -118 b 154 -276 125 -22 97 -208 b 441 -352 219 -354 320 -357 b 799 106 612 -343 781 -256 b 801 340 806 229 801 261 b 824 572 801 488 827 519 z "},"":{"ha":808,"x_min":0,"x_max":0,"o":"m 892 985 b 480 750 796 1104 482 1086 b 444 622 480 660 462 612 b 323 667 405 644 390 664 b 22 329 154 675 22 519 b 329 0 22 139 160 -11 b 442 45 392 4 394 23 b 582 -5 487 65 461 3 b 782 93 662 -11 782 28 b 749 153 782 109 757 118 b 738 466 733 218 738 323 b 749 779 738 576 743 714 b 807 860 762 844 785 855 b 913 779 899 882 883 785 b 892 985 969 770 949 913 z m 398 106 b 299 335 339 106 299 244 b 398 565 299 426 339 565 b 498 335 458 565 498 426 b 398 106 498 244 458 106 z "},"":{"ha":839,"x_min":0,"x_max":0,"o":"m 824 1129 b 418 588 646 1136 436 1044 b 351 370 413 476 392 361 b 320 501 329 375 314 430 b 348 838 330 622 357 731 b 185 936 343 903 275 936 b 22 838 95 936 22 903 b 42 464 22 798 42 669 b 22 90 42 264 22 130 b 185 -7 22 25 95 -7 b 348 90 275 -7 348 25 b 348 96 348 92 348 94 b 348 96 348 96 348 96 b 419 343 348 251 373 345 b 455 139 460 342 469 297 b 597 -3 447 54 519 -3 b 778 92 701 -3 785 42 b 740 222 772 136 740 115 b 740 270 740 222 741 252 b 624 398 735 397 670 349 b 817 946 553 474 675 815 b 971 985 861 986 916 995 b 824 1129 1048 972 996 1123 z "},"":{"ha":369,"x_min":0,"x_max":0,"o":"m 482 985 b 75 915 405 1080 165 1090 b 42 466 11 790 42 547 b 22 91 42 266 22 132 b 185 -6 22 26 95 -6 b 348 91 275 -6 348 26 b 328 466 348 132 328 266 b 339 795 328 631 312 707 b 405 861 353 842 387 859 b 504 779 510 876 473 785 b 482 985 560 770 539 913 z "},"":{"ha":485,"x_min":0,"x_max":0,"o":"m 606 1129 b 240 652 449 1135 277 1043 b 31 567 150 666 40 638 b 51 324 25 517 51 465 b 31 81 51 184 25 132 b 357 82 45 -37 344 -36 b 338 324 363 136 336 184 b 597 934 341 652 501 864 b 756 981 673 991 702 990 b 606 1129 833 967 777 1123 z "},"":{"ha":719,"x_min":0,"x_max":0,"o":"m 473 510 b 274 787 263 631 254 752 b 461 733 311 852 419 804 b 483 585 514 644 475 616 b 673 693 499 528 619 582 b 326 904 758 869 566 912 b 23 689 134 898 29 827 b 470 299 7 368 440 408 b 115 206 515 137 278 190 b 67 -30 32 214 -10 79 b 525 -84 167 -172 381 -131 b 473 510 734 -15 793 324 z "},"":{"ha":710,"x_min":0,"x_max":0,"o":"m 760 1129 b 492 379 567 1136 453 1039 b 374 152 505 163 433 137 b 348 567 289 173 398 422 b 22 567 308 683 15 686 b 85 324 25 517 56 464 b 324 -5 136 77 198 9 b 649 336 494 -23 633 100 b 773 919 673 681 713 848 b 911 962 811 964 857 971 b 760 1129 988 948 931 1123 z "},"":{"ha":1121,"x_min":0,"x_max":0,"o":"m 1172 1129 b 904 379 979 1136 865 1039 b 786 152 917 163 845 137 b 760 567 702 173 810 422 b 434 567 720 683 427 686 b 484 357 437 525 471 457 b 374 152 501 220 429 138 b 348 567 289 173 398 422 b 22 567 308 683 15 686 b 85 324 25 517 56 464 b 324 -5 136 77 198 8 b 553 134 410 -14 489 51 b 553 134 553 134 553 134 b 736 -5 596 38 652 4 b 1061 336 906 -23 1045 100 b 1185 919 1085 681 1125 848 b 1323 962 1223 964 1269 971 b 1172 1129 1400 948 1343 1123 z "},"":{"ha":765,"x_min":0,"x_max":0,"o":"m 719 1129 b 444 550 544 1136 443 1056 b 416 383 444 448 463 383 b 369 567 341 384 379 513 b 51 568 343 712 -9 686 b 224 325 77 518 129 462 b 24 77 260 273 36 124 b 291 91 -5 -41 314 -38 b 304 281 278 164 251 277 b 356 82 369 285 340 144 b 562 -3 376 7 476 -9 b 681 83 643 2 711 26 b 501 330 654 137 588 188 b 498 372 494 340 494 358 b 732 919 539 513 608 791 b 870 962 773 962 815 971 b 719 1129 947 948 890 1123 z "},"":{"ha":799,"x_min":0,"x_max":0,"o":"m 1051 -186 b 722 -73 985 -53 827 -48 b 732 389 709 -76 732 389 b 454 646 732 601 517 637 b 116 614 343 661 192 688 b 203 444 57 556 189 393 b 241 508 210 472 222 492 b 440 576 281 539 348 586 b 444 419 601 559 578 433 b 35 187 248 397 40 360 b 290 0 31 42 169 0 b 489 53 433 1 419 46 b 471 -156 590 64 616 -94 b 212 -249 418 -178 237 -240 b -41 -98 170 -193 85 -131 b -567 -373 -368 -14 -656 -178 b 56 -445 -461 -606 -35 -476 b -51 -695 85 -572 16 -668 b -136 -668 -122 -725 -104 -664 b -3 -830 -188 -676 -112 -807 b 256 -693 91 -851 209 -804 b 252 -378 291 -609 316 -500 b 257 -376 254 -377 256 -377 b 522 -300 309 -358 473 -321 b 736 -506 552 -392 619 -481 b 1051 -186 977 -556 1141 -366 z m 487 201 b 356 120 463 154 398 98 b 345 274 313 142 321 227 b 476 355 369 321 434 377 b 487 201 519 333 511 248 z m -48 -267 b -205 -314 -54 -306 -124 -327 b -342 -220 -286 -301 -348 -259 b -185 -173 -337 -180 -267 -159 b -48 -267 -104 -186 -43 -228 z m 877 -386 b 749 -178 765 -439 659 -226 b 877 -386 862 -119 994 -329 z "},"":{"ha":781,"x_min":0,"x_max":0,"o":"m 821 -98 b 568 -249 694 -131 610 -193 b 337 -167 549 -243 397 -198 b 320 31 205 -98 233 28 b 452 0 373 33 389 4 b 756 342 620 -11 756 152 b 456 680 756 532 625 688 b 334 635 388 677 373 657 b 345 855 234 580 344 754 b 184 950 346 919 274 950 b 21 853 94 950 21 918 b 41 479 21 812 34 684 b 45 -59 44 368 52 -58 b -283 -173 -21 -78 -217 -40 b 52 -450 -374 -353 -173 -473 b 279 -308 168 -438 235 -379 b 501 -376 334 -329 452 -359 b 497 -693 436 -499 461 -609 b 756 -830 544 -804 661 -851 b 888 -668 864 -807 941 -676 b 803 -695 857 -664 874 -725 b 698 -440 736 -668 666 -569 b 706 -439 703 -440 706 -439 b 1347 -373 706 -439 1228 -634 b 821 -98 1435 -178 1148 -14 z m 380 578 b 479 348 439 578 479 440 b 380 119 479 257 439 119 b 280 348 320 119 280 257 b 380 578 280 440 320 578 z m -109 -372 b 18 -165 -227 -316 -94 -105 b -109 -372 108 -212 2 -426 z m 985 -314 b 828 -267 903 -327 833 -306 b 965 -173 822 -228 884 -186 b 1122 -220 1046 -159 1116 -180 b 985 -314 1127 -259 1066 -301 z "},"":{"ha":808,"x_min":0,"x_max":0,"o":"m 1063 -173 b 734 -59 997 -40 801 -78 b 739 479 728 -58 735 368 b 759 853 746 684 759 812 b 596 950 759 918 686 950 b 434 855 506 950 434 919 b 445 635 435 754 546 580 b 324 680 406 657 391 677 b 24 342 155 688 24 532 b 328 0 24 152 159 -11 b 460 31 391 4 407 33 b 442 -167 546 28 575 -98 b 212 -249 382 -198 231 -243 b -41 -98 170 -193 85 -131 b -567 -373 -368 -14 -656 -178 b 73 -439 -448 -634 73 -439 b 82 -440 73 -439 76 -440 b -23 -696 114 -569 44 -668 b -109 -669 -94 -725 -77 -664 b 24 -830 -161 -676 -85 -807 b 283 -693 118 -851 236 -804 b 278 -376 319 -609 343 -499 b 501 -308 328 -359 446 -329 b 727 -450 545 -379 612 -438 b 1063 -173 952 -473 1153 -353 z m 400 119 b 301 348 340 119 301 257 b 400 578 301 440 340 578 b 499 348 460 578 499 440 b 400 119 499 257 460 119 z m -48 -267 b -205 -314 -54 -306 -124 -327 b -342 -220 -286 -301 -348 -259 b -185 -173 -337 -180 -267 -159 b -48 -267 -104 -186 -43 -228 z m 889 -372 b 762 -165 778 -426 671 -212 b 889 -372 874 -105 1006 -316 z "},"":{"ha":815,"x_min":0,"x_max":0,"o":"m 1029 -186 b 700 -73 963 -53 767 -91 b 749 434 694 -71 767 210 b 458 657 733 622 601 670 b 299 612 335 645 328 593 b 342 839 263 634 346 769 b 179 936 339 904 269 936 b 16 839 89 936 16 904 b 36 465 16 799 36 670 b 16 90 36 265 16 131 b 179 -7 16 26 89 -7 b 342 90 269 -7 342 26 b 345 359 342 124 319 193 b 503 557 375 547 444 601 b 408 -174 660 438 408 -130 b 170 -249 329 -203 191 -242 b -83 -98 128 -193 44 -131 b -609 -373 -410 -14 -697 -178 b 10 -447 -504 -602 -91 -480 b -97 -696 38 -573 -31 -668 b -182 -669 -168 -725 -151 -664 b -50 -830 -235 -676 -158 -807 b 209 -693 45 -851 162 -804 b 209 -384 244 -611 268 -504 b 234 -377 217 -382 226 -379 b 461 -313 278 -362 455 -315 b 693 -463 506 -387 573 -451 b 1029 -186 918 -486 1119 -366 z m -90 -267 b -247 -314 -95 -306 -165 -327 b -384 -220 -328 -301 -389 -259 b -227 -173 -378 -180 -308 -159 b -90 -267 -146 -186 -84 -228 z m 855 -386 b 728 -178 744 -439 637 -226 b 855 -386 840 -119 972 -329 z "},"":{"ha":388,"x_min":0,"x_max":0,"o":"m 189 691 b 344 795 275 691 344 738 b 189 899 344 852 275 899 b 33 795 103 899 33 852 b 189 691 33 738 103 691 z m 665 -287 b 350 -141 612 -149 435 -145 b 333 186 344 -77 333 33 b 353 560 333 386 353 519 b 190 657 353 625 280 657 b 27 560 100 657 27 625 b 47 186 27 519 47 386 b 52 -204 47 -19 50 -197 b -91 -259 -7 -227 -63 -253 b -277 -105 -127 -199 -194 -142 b -671 -314 -534 12 -727 -170 b -248 -427 -625 -433 -451 -479 b -242 -426 -246 -427 -244 -426 b -343 -696 -201 -562 -274 -667 b -428 -669 -414 -725 -397 -664 b -296 -830 -481 -676 -404 -807 b -37 -693 -201 -851 -84 -804 b -34 -392 -3 -612 21 -508 b 87 -355 14 -380 38 -370 b 302 -528 123 -433 184 -504 b 665 -287 524 -574 736 -475 z m -276 -269 b -408 -298 -284 -304 -343 -317 b -511 -201 -473 -279 -519 -236 b -379 -171 -503 -166 -444 -152 b -276 -269 -314 -190 -268 -234 z m 471 -468 b 366 -248 355 -509 271 -286 b 471 -468 483 -200 594 -423 z "},"":{"ha":799,"x_min":0,"x_max":0,"o":"m 1040 -186 b 711 -73 974 -53 799 -48 b 740 297 705 -74 765 159 b 624 399 717 422 630 378 b 778 589 616 428 753 402 b 418 589 793 699 417 682 b 351 371 418 477 392 362 b 320 503 329 376 314 431 b 348 840 330 623 357 733 b 185 937 343 904 275 937 b 22 840 95 937 22 905 b 42 465 22 799 42 670 b 22 91 42 266 22 132 b 185 -6 22 26 95 -6 b 348 91 275 -6 348 26 b 348 98 348 93 348 95 b 348 97 348 97 348 97 b 419 345 348 253 373 348 b 419 -170 524 336 422 -124 b 170 -249 342 -199 192 -242 b -83 -98 128 -193 44 -131 b -609 -373 -410 -14 -697 -178 b 39 -437 -496 -621 -11 -455 b -65 -696 73 -568 2 -667 b -151 -669 -136 -725 -119 -664 b -18 -830 -203 -676 -127 -807 b 241 -693 76 -851 194 -804 b 236 -376 277 -609 301 -499 b 462 -300 285 -360 454 -303 b 704 -463 507 -375 584 -451 b 1040 -186 929 -486 1130 -366 z m -90 -267 b -247 -314 -95 -306 -165 -327 b -384 -220 -328 -301 -389 -259 b -227 -173 -378 -180 -308 -159 b -90 -267 -146 -186 -84 -228 z m 866 -386 b 738 -178 754 -439 648 -226 b 866 -386 851 -119 983 -329 z "},"":{"ha":360,"x_min":0,"x_max":0,"o":"m 651 -263 b 336 -117 599 -125 421 -121 b 319 466 330 -54 319 313 b 339 840 319 665 339 799 b 176 937 339 905 266 937 b 13 840 86 937 13 905 b 33 466 13 799 33 665 b 38 -181 33 261 36 -173 b -105 -236 -21 -204 -77 -230 b -291 -81 -141 -176 -208 -119 b -685 -290 -548 35 -741 -147 b -262 -404 -639 -409 -465 -456 b -258 -403 -260 -403 -259 -403 b -351 -696 -201 -551 -278 -665 b -436 -669 -422 -725 -405 -664 b -304 -830 -489 -676 -412 -807 b -45 -693 -209 -851 -92 -804 b -53 -370 -8 -607 16 -495 b 73 -331 -1 -357 22 -347 b 288 -505 109 -410 170 -480 b 651 -263 510 -551 722 -452 z m -290 -245 b -422 -275 -298 -280 -357 -293 b -525 -177 -487 -256 -533 -212 b -393 -148 -517 -142 -457 -129 b -290 -245 -328 -166 -282 -210 z m 457 -444 b 352 -224 341 -486 257 -263 b 457 -444 470 -177 580 -400 z "},"":{"ha":1213,"x_min":0,"x_max":0,"o":"m 1455 -186 b 1126 -73 1389 -53 1232 -38 b 1151 411 1120 -75 1159 167 b 877 657 1144 599 1017 688 b 701 596 778 636 733 561 b 471 657 646 658 567 680 b 334 611 372 633 368 577 b 30 569 263 683 42 671 b 50 326 24 518 50 467 b 30 83 50 185 24 133 b 253 -1 39 5 165 -24 b 355 90 313 11 355 41 b 349 282 355 117 338 160 b 511 561 369 516 446 611 b 460 197 586 503 501 350 b 436 83 446 147 434 112 b 660 -1 441 5 571 -24 b 761 90 719 11 761 41 b 755 282 761 117 745 160 b 917 561 775 516 848 604 b 840 -139 1041 483 854 -84 b 213 -249 642 -177 267 -235 b -40 -98 171 -193 87 -131 b -566 -373 -367 -14 -654 -178 b 57 -445 -460 -605 -35 -477 b -50 -696 85 -572 16 -668 b -135 -669 -121 -725 -103 -664 b -2 -830 -187 -676 -111 -807 b 257 -693 92 -851 210 -804 b 265 -403 290 -615 313 -515 b 869 -287 496 -360 856 -292 b 1119 -463 913 -361 1002 -437 b 1455 -186 1333 -511 1545 -366 z m -47 -267 b -204 -314 -52 -306 -122 -327 b -341 -220 -285 -301 -346 -259 b -184 -173 -335 -180 -265 -159 b -47 -267 -103 -186 -41 -228 z m 1281 -386 b 1154 -178 1170 -439 1063 -226 b 1281 -386 1266 -119 1398 -329 z "},"":{"ha":828,"x_min":0,"x_max":0,"o":"m 1013 -186 b 684 -73 947 -53 755 -45 b 745 411 679 -75 761 187 b 471 657 732 599 612 688 b 335 611 373 636 368 577 b 31 569 264 683 42 671 b 50 326 25 518 50 467 b 31 83 50 185 25 133 b 254 -1 40 5 165 -24 b 356 90 314 11 356 41 b 349 282 356 117 339 160 b 511 561 369 516 432 583 b 436 -159 629 529 426 -64 b 144 -249 359 -188 166 -242 b -109 -98 102 -193 17 -131 b -635 -373 -436 -14 -724 -178 b -8 -444 -527 -609 -90 -472 b -114 -696 22 -571 -48 -668 b -199 -669 -185 -725 -168 -664 b -67 -830 -252 -676 -175 -807 b 192 -693 28 -851 145 -804 b 191 -383 227 -610 252 -503 b 208 -377 197 -381 202 -379 b 445 -313 253 -362 438 -316 b 678 -463 490 -387 560 -439 b 1013 -186 904 -510 1104 -366 z m -116 -267 b -273 -314 -122 -306 -192 -327 b -410 -220 -354 -301 -416 -259 b -253 -173 -405 -180 -335 -159 b -116 -267 -172 -186 -111 -228 z m 839 -386 b 712 -178 728 -439 621 -226 b 839 -386 824 -119 957 -329 z "},"":{"ha":778,"x_min":0,"x_max":0,"o":"m 455 667 b 290 612 336 662 337 581 b 321 784 240 647 242 756 b 646 933 379 804 593 812 b 286 1179 729 1122 519 1279 b 87 975 187 1137 120 1045 b -25 1009 42 989 21 998 b -25 1011 -25 1010 -25 1010 b -19 1026 -22 1016 -20 1021 b -34 1298 20 1131 -3 1224 b -293 1436 -81 1409 -186 1460 b -426 1274 -377 1417 -467 1284 b -340 1301 -394 1266 -411 1330 b -230 1070 -278 1275 -212 1187 b -264 1078 -242 1072 -253 1075 b -687 965 -445 1125 -645 1106 b -293 756 -738 793 -522 652 b -82 895 -219 789 -173 816 b 50 843 -55 889 -11 866 b 40 405 46 760 39 521 b 20 91 40 239 20 127 b 183 -6 20 26 94 -16 b 336 45 304 7 290 65 b 449 0 384 23 386 4 b 755 329 618 -11 755 139 b 455 667 755 519 624 674 z m 455 1117 b 348 913 580 1076 468 868 b 455 1117 252 948 337 1156 z m -381 823 b -499 849 -439 806 -492 818 b -407 936 -506 880 -465 919 b -290 909 -350 952 -297 941 b -381 823 -283 878 -324 839 z m 379 106 b 280 335 320 106 280 244 b 379 565 280 426 320 565 b 478 335 439 565 478 426 b 379 106 478 244 439 106 z "},"":{"ha":832,"x_min":0,"x_max":0,"o":"m 733 1179 b 517 1006 615 1155 554 1085 b 397 1043 468 1021 445 1031 b 380 1310 433 1146 410 1237 b 120 1448 333 1421 228 1472 b -12 1286 37 1429 -54 1296 b 73 1313 19 1278 2 1342 b 183 1078 137 1286 203 1197 b 183 1078 183 1078 183 1078 b -240 965 -20 1131 -194 1084 b 154 756 -296 821 -104 639 b 340 910 237 793 304 850 b 478 863 366 904 425 885 b 500 733 483 818 493 779 b 459 622 512 657 523 586 b 337 667 420 644 405 664 b 37 329 168 675 37 519 b 344 0 37 139 175 -11 b 457 45 406 4 408 23 b 609 -6 502 65 488 -2 b 797 86 661 -8 794 21 b 761 171 798 117 766 116 b 752 466 754 238 751 355 b 780 792 757 767 757 783 b 1095 938 844 817 1043 799 b 733 1179 1166 1127 954 1225 z m 52 822 b -80 852 -13 804 -72 817 b 23 949 -88 887 -42 930 b 155 920 87 968 147 955 b 52 822 163 885 117 841 z m 413 106 b 314 335 354 106 314 244 b 413 565 314 426 354 565 b 512 335 473 565 512 426 b 413 106 512 244 473 106 z m 796 899 b 902 1119 701 937 785 1160 b 796 899 1024 1075 914 851 z "},"":{"ha":729,"x_min":0,"x_max":0,"o":"m 978 -67 b 792 -221 895 -104 828 -161 b 664 -172 762 -215 732 -198 b 688 -43 675 -147 687 -104 b 339 106 689 72 586 162 b 200 100 251 86 204 75 b 392 166 195 140 230 162 b 702 412 563 171 702 270 b 576 611 702 497 657 578 b 529 650 532 629 528 635 b 610 661 532 667 566 676 b 664 620 647 648 650 626 b 686 717 690 610 696 671 b 422 683 673 783 418 786 b 431 649 423 658 438 654 b 392 658 426 646 422 653 b 83 412 223 682 88 554 b 167 187 77 246 211 216 b 106 35 118 154 83 112 b 198 -34 114 8 143 -22 b 396 -42 277 -52 311 -54 b 352 -102 529 -23 535 -123 b 36 -249 283 -95 89 -110 b 399 -490 -35 -438 177 -536 b 608 -313 517 -466 571 -392 b 734 -353 657 -328 685 -341 b 738 -652 680 -469 704 -572 b 997 -790 785 -763 890 -814 b 1129 -628 1081 -771 1171 -638 b 1044 -655 1098 -620 1115 -684 b 942 -388 975 -626 903 -523 b 949 -389 944 -388 947 -389 b 1372 -276 1152 -441 1326 -395 b 978 -67 1428 -132 1235 50 z m 295 442 b 437 583 313 510 379 601 b 490 382 496 564 508 450 b 347 242 472 314 406 224 b 295 442 288 260 277 374 z m 230 -430 b 335 -210 107 -386 217 -162 b 230 -430 430 -248 346 -471 z m 1109 -260 b 977 -231 1044 -279 985 -266 b 1080 -133 969 -196 1015 -152 b 1212 -163 1144 -115 1204 -128 b 1109 -260 1220 -198 1174 -241 z "},"":{"ha":804,"x_min":0,"x_max":0,"o":"m 781 93 b 743 223 775 137 743 116 l 743 411 b 469 657 744 600 612 670 b 310 612 346 645 364 613 b 349 792 219 609 223 759 b 665 938 416 809 612 799 b 302 1179 736 1127 524 1225 b 87 1006 184 1155 123 1085 b -14 1038 45 1019 22 1028 b -29 1311 25 1143 3 1237 b -288 1449 -76 1422 -181 1473 b -420 1287 -372 1430 -462 1297 b -335 1314 -389 1279 -406 1343 b -227 1074 -271 1287 -204 1196 b -248 1078 -234 1075 -241 1077 b -671 965 -451 1131 -625 1084 b -277 756 -727 821 -534 639 b -91 910 -194 793 -127 850 b 51 858 -63 904 -9 882 b 48 465 48 851 48 670 b 28 90 48 265 28 131 b 191 -7 28 26 100 -7 b 354 90 281 -7 354 26 b 357 359 354 124 330 193 b 514 557 386 547 461 608 b 458 140 584 489 466 289 b 600 -3 453 55 522 -3 b 781 93 704 -3 789 42 z m 471 1119 b 366 899 594 1075 483 851 b 471 1119 271 937 355 1160 z m -379 822 b -511 852 -444 804 -503 817 b -408 949 -519 887 -473 930 b -276 920 -343 968 -284 955 b -379 822 -268 885 -314 841 z "},"":{"ha":624,"x_min":0,"x_max":0,"o":"m 352 691 b 508 795 438 691 508 738 b 352 899 508 852 438 899 b 197 795 266 899 197 852 b 352 691 197 738 266 691 z m 845 -67 b 658 -221 761 -104 694 -161 b 523 -170 628 -215 591 -195 b 493 326 525 -138 486 142 b 515 561 499 470 523 509 b 190 573 497 691 201 691 b 207 326 185 525 207 470 b 185 -91 207 34 260 -56 b -97 -249 122 -120 -45 -110 b 265 -490 -168 -438 44 -536 b 481 -317 383 -466 444 -396 b 598 -353 529 -332 552 -341 b 602 -652 544 -469 568 -572 b 861 -790 649 -763 754 -814 b 993 -628 945 -771 1035 -638 b 908 -655 962 -620 979 -684 b 806 -388 839 -626 767 -523 b 816 -389 809 -388 813 -389 b 1238 -276 1018 -441 1192 -395 b 845 -67 1294 -132 1102 50 z m 96 -430 b 202 -210 -26 -386 84 -162 b 96 -430 297 -248 213 -471 z m 975 -260 b 844 -231 911 -279 852 -266 b 946 -133 835 -196 881 -152 b 1078 -163 1011 -115 1070 -128 b 975 -260 1086 -198 1040 -241 z "},"":{"ha":813,"x_min":0,"x_max":0,"o":"m 789 589 b 429 589 804 699 428 682 b 362 371 429 477 402 363 b 330 503 339 376 324 431 b 347 792 339 605 347 792 b 679 938 347 792 626 799 b 316 1179 750 1127 538 1225 b 101 1006 198 1155 137 1085 b -16 1042 53 1021 30 1030 b -33 1310 21 1145 -2 1237 b -292 1448 -80 1421 -185 1472 b -425 1286 -376 1429 -466 1296 b -339 1313 -393 1278 -410 1342 b -230 1077 -276 1286 -210 1197 b -234 1078 -231 1078 -233 1078 b -657 965 -437 1131 -611 1084 b -263 756 -713 821 -520 639 b -77 910 -180 793 -113 850 b 57 862 -50 904 3 883 b 53 466 54 853 53 670 b 33 91 53 266 33 132 b 196 -6 33 26 106 -6 b 359 91 286 -6 359 26 b 359 98 359 93 359 95 b 359 97 359 97 359 97 b 430 345 359 253 384 346 b 465 141 471 343 479 298 b 608 -2 458 56 529 -2 b 789 94 712 -2 796 43 b 750 224 782 138 750 117 l 750 297 b 635 399 740 424 641 378 b 789 589 627 428 764 402 z m 485 1119 b 380 899 607 1075 497 851 b 485 1119 285 937 369 1160 z m -365 822 b -497 852 -430 804 -489 817 b -394 949 -505 887 -459 930 b -262 920 -329 968 -270 955 b -365 822 -254 885 -300 841 z "},"":{"ha":374,"x_min":0,"x_max":0,"o":"m 302 1179 b 87 1006 184 1155 123 1085 b -32 1042 38 1021 15 1031 b -49 1310 5 1145 -18 1237 b -308 1448 -96 1421 -201 1472 b -440 1286 -392 1429 -482 1296 b -355 1313 -409 1278 -426 1342 b -246 1078 -292 1286 -225 1197 b -248 1078 -246 1078 -247 1078 b -671 965 -451 1131 -625 1084 b -277 756 -727 821 -534 639 b -91 910 -194 793 -127 850 b 52 855 -63 904 -7 878 b 47 466 50 848 47 670 b 27 91 47 266 27 132 b 190 -6 27 26 100 -6 b 353 91 280 -6 353 26 b 333 466 353 132 333 266 b 350 792 333 618 344 729 b 665 938 435 796 612 800 b 302 1179 736 1127 524 1225 z m -379 822 b -511 852 -444 804 -503 817 b -408 949 -519 887 -473 930 b -276 920 -343 968 -284 955 b -379 822 -268 885 -314 841 z m 366 899 b 471 1119 271 937 355 1160 b 366 899 594 1075 483 851 z "},"":{"ha":833,"x_min":0,"x_max":0,"o":"m 1083 -67 b 896 -221 999 -104 932 -161 b 761 -170 866 -215 829 -195 b 764 -104 762 -153 763 -130 b 781 106 772 -47 777 22 b 783 340 788 229 783 261 b 806 572 783 488 809 519 b 638 657 803 628 729 658 b 481 573 565 657 487 641 b 484 363 478 545 496 491 b 306 116 462 117 352 63 b 361 512 259 170 337 343 b 200 662 377 628 289 662 b 23 564 82 662 26 627 b 36 436 20 518 35 490 b 36 250 37 386 36 250 b 350 11 35 53 197 -47 b 633 112 507 70 572 180 b 633 -30 659 82 669 21 b 457 -102 591 -92 518 -102 b 141 -249 387 -103 193 -110 b 503 -490 70 -438 282 -536 b 719 -317 621 -466 682 -395 b 841 -354 769 -332 791 -342 b 845 -652 788 -469 811 -572 b 1104 -790 892 -763 997 -814 b 1237 -628 1188 -771 1278 -638 b 1152 -655 1206 -620 1223 -684 b 1049 -388 1083 -626 1011 -523 b 1054 -389 1051 -389 1052 -389 b 1476 -276 1256 -441 1430 -395 b 1083 -67 1532 -132 1340 50 z m 334 -430 b 440 -210 212 -386 322 -162 b 334 -430 535 -248 451 -471 z m 1213 -260 b 1082 -231 1149 -279 1090 -266 b 1184 -133 1073 -196 1119 -152 b 1316 -163 1249 -115 1308 -128 b 1213 -260 1324 -198 1278 -241 z "},"":{"ha":813,"x_min":0,"x_max":0,"o":"m 1191 975 b 768 1088 1145 1094 971 1141 b 758 1087 765 1088 762 1087 b 864 1341 727 1216 797 1313 b 949 1314 935 1371 918 1307 b 817 1476 991 1324 901 1457 b 557 1339 709 1500 604 1450 b 548 1052 525 1261 501 1163 b 300 1003 487 1039 348 1018 b 85 1177 264 1082 203 1152 b -278 935 -137 1222 -349 1124 b 36 789 -226 797 -50 793 b 53 466 42 725 53 616 b 33 91 53 266 33 132 b 196 -6 33 26 106 -16 b 348 45 317 7 303 65 b 461 0 397 23 399 4 b 768 329 630 -11 768 139 b 468 667 768 519 637 675 b 346 622 400 664 386 642 b 355 860 214 554 182 802 b 611 920 428 884 586 915 b 797 766 647 860 714 803 b 1191 975 1054 649 1247 831 z m 21 896 b -84 1116 -96 849 -207 1072 b 21 896 32 1158 116 934 z m 392 565 b 491 335 451 565 491 426 b 392 106 491 244 451 106 b 293 335 332 106 293 244 b 392 565 292 426 332 565 z m 1031 862 b 899 832 1023 827 964 814 b 796 930 834 851 788 895 b 928 959 804 965 863 978 b 1031 862 993 941 1039 897 z "},"":{"ha":804,"x_min":0,"x_max":0,"o":"m 1461 962 b 1038 1075 1414 1081 1241 1128 b 1035 1075 1037 1075 1036 1075 b 1138 1341 997 1210 1069 1312 b 1223 1314 1208 1371 1192 1307 b 1090 1476 1264 1324 1174 1457 b 831 1339 983 1500 878 1450 b 826 1041 797 1259 773 1156 b 703 1003 776 1028 753 1019 b 488 1177 666 1082 606 1152 b 125 935 266 1222 54 1124 b 440 789 177 797 355 795 b 444 622 541 782 527 576 b 322 667 405 644 390 664 b 22 329 154 675 22 519 b 329 0 22 139 160 -11 b 442 45 392 4 394 23 b 594 -6 487 65 473 -2 b 782 86 647 -8 779 21 b 746 171 783 117 751 116 b 738 465 739 238 734 355 b 757 840 744 671 757 799 b 755 859 757 847 756 853 b 880 908 807 880 855 902 b 1067 753 916 848 984 791 b 1461 962 1324 636 1517 819 z m 424 896 b 319 1116 306 849 196 1072 b 424 896 435 1158 519 934 z m 398 106 b 299 335 339 106 299 244 b 398 565 299 426 339 565 b 498 335 458 565 498 426 b 398 106 498 244 458 106 z m 1301 849 b 1169 820 1292 814 1233 801 b 1066 917 1104 838 1058 882 b 1198 946 1074 952 1133 965 b 1301 849 1263 928 1309 884 z "},"":{"ha":813,"x_min":0,"x_max":0,"o":"m 1191 975 b 768 1088 1145 1094 971 1141 l 766 1088 b 872 1341 735 1216 805 1313 b 957 1314 943 1371 926 1307 b 824 1476 998 1324 908 1457 b 565 1339 717 1500 612 1450 b 555 1053 533 1262 509 1163 b 300 1003 498 1040 350 1019 b 85 1177 264 1082 203 1152 b -278 935 -137 1222 -349 1124 b 37 789 -225 797 -48 793 l 37 789 b 54 465 43 725 54 616 b 34 90 54 265 34 131 b 197 -7 34 26 107 -7 b 360 90 287 -7 360 26 b 363 359 360 124 337 193 b 520 557 393 547 467 608 b 464 140 591 489 473 289 b 607 -3 459 55 528 -3 b 788 93 711 -3 795 42 b 750 223 781 137 750 116 l 750 411 b 476 657 751 600 619 670 b 317 612 352 645 351 606 b 356 860 230 627 217 806 b 611 920 428 888 586 915 b 797 766 647 860 714 803 b 1191 975 1054 649 1247 831 z m 21 896 b -84 1116 -96 849 -207 1072 b 21 896 32 1158 116 934 z m 1031 862 b 899 832 1023 827 964 814 b 796 930 834 851 788 895 b 928 959 804 965 863 978 b 1031 862 993 941 1039 897 z "},"":{"ha":826,"x_min":0,"x_max":0,"o":"m 1205 975 b 782 1088 1159 1094 985 1141 b 780 1088 781 1088 781 1088 b 886 1341 750 1216 819 1313 b 971 1314 957 1371 940 1307 b 838 1476 1013 1324 922 1457 b 579 1339 731 1500 626 1450 b 569 1053 547 1262 523 1163 b 314 1003 513 1040 364 1019 b 99 1177 278 1082 217 1152 b -264 935 -123 1222 -335 1124 b 51 789 -212 797 -34 793 b 68 463 57 726 68 615 b 48 88 68 263 48 129 b 211 -9 48 24 121 -9 b 374 88 301 -9 374 24 b 445 345 374 91 370 345 b 481 141 486 345 495 298 b 623 -2 473 56 544 -2 b 804 94 727 -2 811 43 b 766 224 798 138 766 117 l 766 298 b 650 399 755 424 656 378 b 804 590 642 429 779 403 b 444 590 819 699 443 683 b 377 372 445 477 418 364 b 354 461 347 377 353 438 b 349 853 354 461 351 845 b 625 920 408 876 597 914 b 811 766 661 860 728 803 b 1205 975 1068 649 1261 831 z m 35 896 b -70 1116 -83 849 -193 1072 b 35 896 46 1158 130 934 z m 1045 862 b 913 832 1037 827 977 814 b 810 930 848 851 802 895 b 942 959 818 965 877 978 b 1045 862 1007 941 1053 897 z "},"":{"ha":389,"x_min":0,"x_max":0,"o":"m 1059 962 b 636 1075 1013 1081 839 1128 b 636 1075 636 1075 636 1075 b 739 1341 598 1210 670 1313 b 824 1314 810 1371 793 1307 b 692 1476 866 1324 775 1457 b 432 1339 584 1500 479 1450 b 427 1041 399 1259 389 1146 b 302 1003 375 1029 353 1019 b 86 1177 265 1082 204 1152 b -276 935 -135 1222 -348 1124 b 39 789 -224 797 -47 793 b 56 463 44 726 56 615 b 36 88 56 263 36 129 b 199 -9 36 24 108 -9 b 362 88 289 -9 362 24 b 342 463 362 129 342 263 b 336 853 342 668 339 845 b 479 908 395 876 451 901 b 665 753 515 848 582 791 b 1059 962 922 636 1115 819 z m 23 896 b -83 1116 -95 849 -205 1072 b 23 896 33 1158 118 934 z m 899 849 b 767 820 891 814 832 801 b 664 917 702 838 656 882 b 796 946 672 952 732 965 b 899 849 861 928 907 884 z "},"":{"ha":1211,"x_min":0,"x_max":0,"o":"m 1154 444 b 833 527 1093 622 943 675 b 810 304 778 454 754 291 b 891 375 847 312 797 345 b 1104 158 978 403 1147 355 b 902 -28 1080 50 1005 -26 b 720 288 744 -31 720 92 b 719 292 720 290 720 291 l 719 389 b 441 646 719 601 504 637 b 103 614 330 661 179 688 b 190 444 45 556 176 393 b 229 508 197 472 209 492 b 427 576 268 539 335 586 b 431 419 588 559 565 434 b 22 187 235 397 27 360 b 277 0 18 42 156 0 b 481 59 420 1 456 66 b 483 58 482 59 483 58 b 1067 -48 547 -177 917 -170 b 1154 444 1203 61 1214 269 z m 343 120 b 332 274 300 142 308 227 b 464 355 356 321 421 377 b 474 201 506 333 498 248 b 343 120 450 154 386 98 z "},"":{"ha":1233,"x_min":0,"x_max":0,"o":"m 1130 738 b 765 790 1037 878 861 970 b 781 566 722 709 728 544 b 869 637 816 581 776 603 b 1115 410 967 674 1116 655 b 958 222 1115 320 1045 223 b 750 405 821 220 783 289 b 735 461 747 424 735 461 b 735 461 735 461 735 461 b 457 667 693 587 584 673 b 336 622 390 664 375 644 b 347 842 235 567 346 741 b 185 937 347 906 275 937 b 22 840 95 937 22 905 b 42 466 22 799 42 670 b 22 91 42 266 22 132 b 185 -6 22 26 96 -16 b 338 45 306 7 292 65 b 451 0 386 23 388 4 b 710 146 540 -6 647 19 b 1109 205 829 58 1009 112 b 1130 738 1259 344 1222 601 z m 381 106 b 282 335 322 106 282 244 b 381 565 282 426 322 565 b 480 335 441 565 480 426 b 381 106 480 244 441 106 z "},"":{"ha":1128,"x_min":0,"x_max":0,"o":"m 1098 444 b 754 518 1060 627 872 681 b 731 295 700 444 675 283 b 825 370 768 304 727 353 b 651 14 1011 403 1024 46 b 165 522 390 -7 73 364 b 298 573 194 571 261 578 b 486 464 381 562 459 502 b 498 377 519 418 491 398 b 625 444 511 339 584 390 b 357 674 695 534 559 683 b 50 465 221 667 102 585 b 617 -69 -40 238 73 -70 b 1098 444 1059 -68 1134 269 z "},"":{"ha":1258,"x_min":0,"x_max":0,"o":"m 1212 429 b 857 516 1152 607 982 686 b 844 291 802 442 789 279 b 923 372 881 300 830 341 b 1104 141 997 397 1150 360 b 915 -15 1086 53 1018 -22 b 738 466 682 3 734 355 b 757 840 744 671 757 799 b 594 937 757 905 685 937 b 433 842 504 937 432 906 b 444 622 434 741 545 567 b 322 667 405 644 390 664 b 22 329 154 675 22 519 b 329 0 22 139 160 -11 b 442 45 392 4 394 23 b 514 12 473 58 487 61 b 1080 -48 615 -172 940 -161 b 1212 429 1215 61 1272 253 z m 398 106 b 299 335 339 106 299 244 b 398 565 299 426 339 565 b 498 335 458 565 498 426 b 398 106 498 244 458 106 z "},"":{"ha":1086,"x_min":0,"x_max":0,"o":"m 1046 388 b 671 467 989 581 789 629 b 648 255 617 392 593 242 b 697 323 685 263 636 271 b 970 201 767 384 983 364 b 781 33 963 110 883 49 b 340 305 475 -16 230 207 b 588 406 371 333 508 305 b 393 674 660 495 595 674 b 22 329 210 674 22 519 b 54 185 22 272 40 216 b 945 12 206 -163 794 -110 b 1046 388 1081 122 1079 276 z m 165 522 b 336 548 195 572 290 563 b 436 412 406 525 455 454 b 243 382 412 360 323 340 b 165 522 187 412 142 481 z "},"":{"ha":897,"x_min":0,"x_max":0,"o":"m 741 881 b 35 708 560 1045 38 1015 b 90 469 33 533 107 500 b 48 372 80 453 46 463 b 22 91 53 172 22 132 b 187 -6 22 26 97 -6 b 348 91 277 -6 348 26 b 325 468 348 130 297 448 b 431 466 347 485 412 442 b 402 549 444 481 461 541 b 250 646 343 557 279 596 b 528 881 153 817 371 922 b 787 623 667 844 772 757 b 573 395 806 466 689 377 b 482 463 469 411 507 464 b 506 240 439 462 439 303 b 835 374 618 132 774 196 b 741 881 895 549 906 730 z "},"":{"ha":1183,"x_min":0,"x_max":0,"o":"m 994 874 b 432 811 844 992 541 1004 b 387 652 409 772 387 706 b 361 658 382 654 374 656 b 52 412 192 682 57 554 b 136 187 46 246 178 219 b 75 35 61 130 52 98 b 175 -30 84 8 121 -17 b 588 -60 415 -85 579 33 b 118 -59 597 -150 264 -118 b 56 -315 36 -25 -16 -246 b 144 -347 78 -336 106 -345 b 657 -43 615 -361 661 -174 b 307 121 652 92 583 209 b 169 100 229 96 173 75 b 361 166 164 140 227 159 b 671 412 532 176 671 270 b 605 572 671 473 648 532 b 541 651 575 600 554 601 b 799 858 512 768 643 881 b 1020 676 927 840 1001 768 b 826 433 1070 446 905 407 b 741 518 726 466 781 509 b 755 283 681 531 696 360 b 1136 373 889 104 1071 187 b 994 874 1201 558 1140 759 z m 459 382 b 316 242 441 314 375 224 b 264 442 257 260 246 374 b 406 583 282 510 348 601 b 459 382 465 565 477 450 z "},"":{"ha":1251,"x_min":0,"x_max":0,"o":"m 1205 429 b 849 516 1144 607 975 686 b 837 291 795 442 781 279 b 916 372 874 300 822 341 b 1097 141 990 397 1143 360 b 905 -15 1079 53 995 -15 b 738 411 675 -15 727 294 b 464 657 755 599 607 670 b 305 612 341 645 334 593 b 348 839 268 634 352 769 b 185 936 345 904 275 936 b 22 839 95 936 22 904 b 42 465 22 799 42 670 b 22 90 42 265 22 131 b 185 -7 22 26 95 -7 b 348 90 275 -7 348 26 b 351 359 348 124 325 193 b 509 557 381 547 455 608 b 509 265 561 506 522 391 b 1072 -48 468 -137 884 -195 b 1205 429 1210 59 1265 253 z "},"":{"ha":833,"x_min":0,"x_max":0,"o":"m 186 691 b 342 795 272 691 342 738 b 186 899 342 852 272 899 b 31 795 101 899 31 852 b 186 691 31 738 101 691 z m 788 428 b 433 515 727 606 558 685 b 420 291 378 441 365 278 b 499 372 457 299 406 340 b 680 140 573 397 726 360 b 491 -29 662 52 594 -37 b 329 326 336 -17 329 185 b 349 568 329 467 355 514 b 23 569 335 686 37 687 b 43 326 17 518 36 466 b 257 -98 57 72 108 -41 b 656 -49 445 -169 596 -99 b 788 428 789 64 848 253 z "},"":{"ha":1001,"x_min":0,"x_max":0,"o":"m 337 691 b 492 795 423 691 492 738 b 337 899 492 852 423 899 b 181 795 251 899 181 852 b 337 691 181 738 251 691 z m 940 429 b 584 516 867 602 710 686 b 571 291 530 442 516 279 b 650 372 609 300 557 341 b 863 130 724 397 900 351 b 477 326 824 -98 472 -155 b 500 561 479 470 507 509 b 174 573 481 691 185 691 b 191 326 170 525 189 470 b 284 -10 193 164 240 62 b 44 -110 131 0 68 -64 b 237 -348 -24 -242 75 -354 b 541 -75 395 -342 526 -221 b 793 -113 575 -124 674 -163 b 940 429 987 -33 1018 240 z m 350 -182 b 267 -168 331 -211 282 -215 b 341 -98 255 -132 299 -81 b 350 -182 375 -113 367 -155 z "},"":{"ha":1258,"x_min":0,"x_max":0,"o":"m 1212 429 b 856 516 1151 607 982 686 b 843 291 802 442 788 279 b 923 372 881 300 829 341 b 1104 141 996 397 1150 360 b 915 -28 1085 53 1017 -36 b 740 282 730 -15 743 190 b 624 399 737 409 630 378 b 778 589 616 428 753 402 b 418 589 793 699 417 682 b 351 371 419 477 392 363 b 320 503 329 376 314 432 b 348 840 330 623 357 733 b 185 937 343 904 275 937 b 22 840 95 937 22 905 b 42 466 22 799 42 670 b 22 91 42 266 22 132 b 185 -6 22 26 95 -6 b 348 91 275 -6 348 26 b 348 97 348 93 348 97 b 419 345 348 253 373 346 b 457 164 458 343 466 303 b 487 16 452 93 471 43 b 1079 -48 574 -129 939 -161 b 1212 429 1215 61 1272 253 z "},"":{"ha":839,"x_min":0,"x_max":0,"o":"m 794 429 b 438 516 733 607 564 686 b 425 291 384 442 370 279 b 504 372 463 300 411 341 b 686 141 578 397 732 360 b 496 -28 667 53 599 -37 b 328 466 284 -11 328 275 b 348 840 328 670 348 799 b 185 937 348 905 275 937 b 22 840 95 937 22 905 b 42 466 22 799 42 670 b 77 32 42 266 39 123 b 661 -48 161 -174 521 -161 b 794 429 797 61 854 253 z "},"":{"ha":1661,"x_min":0,"x_max":0,"o":"m 1615 429 b 1259 516 1554 607 1385 686 b 1246 291 1205 442 1191 279 b 1325 372 1284 300 1232 341 b 1507 141 1399 397 1553 360 b 1317 -15 1488 53 1420 -17 b 1157 223 1167 -11 1157 116 l 1157 411 b 883 657 1158 600 1023 688 b 682 609 784 636 742 561 b 464 657 609 669 553 678 b 328 611 366 634 361 577 b 23 569 256 683 35 671 b 43 326 17 518 43 467 b 23 83 43 185 17 133 b 247 -1 32 5 158 -24 b 348 90 306 11 348 41 b 342 282 348 117 332 160 b 504 561 362 516 439 611 b 453 197 579 503 494 350 b 429 83 439 147 428 112 b 653 -1 434 5 564 -24 b 755 90 713 11 755 41 b 748 282 755 117 738 160 b 923 561 768 516 858 611 b 922 45 993 506 855 243 b 1482 -48 997 -179 1342 -161 b 1615 429 1618 61 1675 253 z "},"":{"ha":1242,"x_min":0,"x_max":0,"o":"m 1196 429 b 840 516 1135 607 966 686 b 827 291 786 442 772 279 b 907 372 865 300 813 341 b 1088 141 980 397 1134 360 b 899 -15 1069 53 1002 -17 b 738 223 748 -11 738 116 l 738 411 b 464 657 739 600 604 688 b 328 611 365 636 361 577 b 23 569 256 683 35 671 b 43 326 17 518 43 467 b 23 83 43 185 17 133 b 247 -1 32 5 158 -24 b 348 90 306 11 348 41 b 342 282 348 117 332 160 b 504 561 362 516 439 611 b 503 45 574 506 436 243 b 1063 -48 578 -179 923 -161 b 1196 429 1199 61 1256 253 z "},"":{"ha":1290,"x_min":0,"x_max":0,"o":"m 1243 700 b 861 791 1178 887 996 970 b 848 556 803 714 788 543 b 933 641 888 565 832 608 b 1127 398 1012 667 1176 628 b 917 219 1107 306 1027 205 b 723 468 781 236 757 399 b 388 667 665 588 538 667 b 22 329 186 667 22 524 b 388 -9 22 133 186 -9 b 690 134 513 -9 624 46 b 1101 200 828 91 1002 122 b 1243 700 1246 315 1307 516 z m 442 98 b 290 306 383 84 311 214 b 334 560 269 398 275 546 b 486 352 393 573 465 444 b 442 98 507 260 501 112 z "},"":{"ha":1276,"x_min":0,"x_max":0,"o":"m 1230 687 b 875 773 1169 864 1000 944 b 862 549 820 699 807 536 b 941 630 899 557 848 598 b 1122 398 1015 655 1168 618 b 929 237 1104 310 1032 228 b 735 460 792 249 780 340 b 454 662 688 586 582 677 b 338 613 405 656 386 635 b 185 664 292 593 306 651 b 22 567 96 674 22 631 b 42 192 22 526 42 392 b 22 -182 42 -12 22 -141 b 185 -279 22 -247 95 -279 b 347 -184 275 -279 347 -248 b 336 36 346 -83 235 91 b 457 -9 375 14 390 -6 b 710 142 565 -14 657 47 b 1098 209 844 107 1008 137 b 1230 687 1233 319 1290 511 z m 381 93 b 282 323 322 93 282 231 b 381 552 282 414 322 552 b 480 323 441 552 480 414 b 381 93 480 231 441 93 z "},"":{"ha":1269,"x_min":0,"x_max":0,"o":"m 1223 113 b 868 200 1162 291 993 370 b 855 -24 813 126 799 -37 b 934 56 892 -16 841 25 b 1115 -175 1008 81 1161 44 b 926 -331 1097 -263 1029 -325 b 738 192 708 -342 738 5 b 757 567 738 392 757 526 b 594 664 757 631 684 674 b 442 613 474 651 487 593 b 329 658 394 635 392 654 b 22 329 160 668 22 519 b 322 -9 22 139 154 -17 b 444 36 390 -6 405 14 b 539 -282 545 91 442 -95 b 1091 -364 664 -522 951 -477 b 1223 113 1226 -254 1283 -63 z m 398 93 b 299 323 339 93 299 231 b 398 552 299 414 339 552 b 498 323 458 552 498 414 b 398 93 498 231 458 93 z "},"":{"ha":938,"x_min":0,"x_max":0,"o":"m 852 590 b 384 753 742 740 551 802 b 233 660 333 738 280 704 b 186 660 220 661 205 661 b 23 572 108 658 30 631 b 43 329 17 522 43 470 b 23 86 43 188 17 137 b 349 87 37 -32 335 -31 b 326 329 355 141 384 201 b 318 599 266 459 277 545 b 553 666 373 671 466 688 b 641 385 754 615 703 431 b 529 366 562 326 557 392 b 721 249 487 327 629 246 b 852 590 932 255 964 439 z "},"":{"ha":1081,"x_min":0,"x_max":0,"o":"m 1035 680 b 679 766 974 857 805 937 b 666 542 625 692 611 529 b 746 623 704 550 652 591 b 927 391 819 648 973 611 b 738 236 908 303 840 243 b 380 403 615 228 427 366 b 228 592 232 521 211 568 b 380 555 258 635 345 603 b 398 456 423 496 391 477 b 552 529 411 418 509 455 b 270 670 622 646 465 675 b 23 526 113 666 28 619 b 383 289 10 311 376 364 b 96 313 389 224 229 303 b 59 75 28 319 -4 148 b 432 9 141 -20 315 -23 b 563 125 497 26 544 70 b 902 202 678 96 814 131 b 1035 680 1038 312 1095 504 z "},"":{"ha":947,"x_min":0,"x_max":0,"o":"m 901 450 b 546 537 841 628 671 707 b 533 313 491 463 478 300 b 612 393 570 321 519 362 b 808 203 686 418 835 365 b 566 -11 791 98 686 -5 b 281 233 374 -19 287 133 b 405 440 275 334 299 401 b 429 568 488 470 480 567 b 349 622 356 568 339 565 b 383 834 371 750 383 801 b 202 931 383 899 293 931 b 22 834 112 931 22 899 b 64 553 22 793 64 753 b 47 316 64 509 50 368 b 144 0 38 173 61 76 b 769 -27 298 -141 630 -139 b 901 450 905 83 962 275 z "},"":{"ha":1321,"x_min":0,"x_max":0,"o":"m 1274 429 b 919 516 1214 607 1044 686 b 906 291 864 442 851 279 b 985 372 943 300 892 341 b 1167 141 1059 397 1212 360 b 977 -15 1148 53 1080 -22 b 801 340 876 -7 804 80 b 823 572 799 488 830 519 b 569 654 813 654 670 678 b 480 564 501 641 480 616 b 484 363 480 537 496 491 b 306 116 462 117 352 63 b 361 512 259 170 337 343 b 200 662 377 628 289 662 b 23 564 82 662 26 627 b 36 436 20 518 35 490 b 36 250 37 386 36 250 b 333 -1 35 52 173 -34 b 482 65 447 22 453 60 b 555 8 500 69 518 65 b 1142 -48 689 -198 1006 -158 b 1274 429 1278 61 1335 253 z "},"":{"ha":1296,"x_min":0,"x_max":0,"o":"m 1249 699 b 894 785 1189 876 1019 956 b 881 561 839 711 826 548 b 960 642 918 569 867 610 b 1142 410 1034 667 1187 630 b 952 255 1123 322 1055 255 b 716 453 816 255 723 348 b 544 654 708 580 647 674 b 441 555 471 640 408 579 b 491 452 458 541 484 527 b 374 153 504 313 445 135 b 348 568 289 174 398 424 b 22 569 308 684 15 687 b 85 326 25 518 56 466 b 324 -4 136 79 198 10 b 607 214 436 -16 536 98 b 1117 221 741 102 997 124 b 1249 699 1253 331 1310 523 z "},"":{"ha":1710,"x_min":0,"x_max":0,"o":"m 1664 699 b 1308 785 1603 876 1434 956 b 1295 561 1254 711 1240 548 b 1375 642 1333 569 1281 610 b 1556 410 1448 667 1602 630 b 1367 255 1537 322 1470 255 b 1129 457 1228 255 1158 337 b 957 654 1100 582 1058 674 b 853 555 883 640 821 579 b 903 452 870 541 896 527 b 786 153 916 313 857 135 b 760 568 701 174 810 424 b 616 654 743 617 681 646 b 549 655 595 658 572 659 b 436 586 492 649 444 626 b 484 358 428 520 467 521 b 374 153 498 222 429 139 b 348 568 289 174 398 424 b 22 569 308 684 15 687 b 85 326 25 518 56 466 b 324 -4 136 79 198 10 b 553 136 410 -13 489 52 b 736 -4 596 39 651 5 b 1019 216 848 -16 948 98 b 1531 221 1153 102 1411 124 b 1664 699 1667 331 1724 523 z "},"":{"ha":1163,"x_min":0,"x_max":0,"o":"m 1116 429 b 760 516 1055 607 886 686 b 748 291 706 442 692 279 b 827 372 785 300 733 341 b 1008 141 901 397 1054 360 b 819 -15 990 53 922 -11 b 501 331 581 -23 500 199 b 727 561 501 395 707 486 b 449 590 759 686 477 694 b 416 385 427 508 486 381 b 369 568 341 389 379 514 b 51 570 343 713 -9 688 b 224 327 77 519 129 463 b 24 78 260 274 36 126 b 291 93 -5 -40 314 -36 b 304 282 278 165 252 269 b 391 91 383 302 372 185 b 983 -48 450 -196 844 -161 b 1116 429 1119 61 1176 253 z "},"":{"ha":1293,"x_min":0,"x_max":0,"o":"m 1249 429 b 894 516 1188 607 1019 686 b 881 291 839 442 826 279 b 960 372 918 300 867 341 b 1119 150 1034 397 1202 349 b 922 10 1087 74 1000 9 b 783 340 765 11 772 128 b 806 572 792 487 809 519 b 638 657 803 628 729 658 b 481 573 565 657 487 641 b 484 363 478 545 496 491 b 306 116 462 117 352 63 b 361 512 259 170 337 343 b 200 662 377 628 289 662 b 23 564 82 662 26 627 b 36 436 20 518 35 490 b 36 250 37 386 36 250 b 350 0 35 52 188 -23 b 635 72 539 27 539 81 b 573 -21 683 68 732 -15 b 136 -276 243 -32 92 -132 b 423 -351 158 -350 305 -380 b 745 -103 572 -316 683 -252 b 1114 -15 898 -143 1019 -85 b 1249 429 1241 79 1309 253 z m 312 -195 b 631 -113 303 -118 613 -61 b 312 -195 653 -179 321 -275 z "},"":{"ha":1056,"x_min":0,"x_max":0,"o":"m 1009 457 b 653 544 948 635 779 714 b 641 319 599 469 585 307 b 720 400 678 328 626 368 b 901 168 794 425 957 350 b 713 0 875 83 812 30 b 248 292 394 -96 122 96 b 577 528 312 392 565 348 b 317 670 585 659 533 670 b 48 538 122 670 5 668 b 120 453 76 453 95 421 b 169 528 135 472 134 498 b 396 578 228 579 349 624 b 197 426 433 542 441 475 b 23 180 40 394 17 280 b 73 10 23 124 46 47 b 876 -21 234 -206 737 -133 b 1009 457 1012 89 1069 281 z "},"":{"ha":1444,"x_min":0,"x_max":0,"o":"m 1109 947 b 373 926 890 1029 727 997 b -386 1123 -14 849 -329 992 b -386 1225 -420 1201 -377 1195 b -499 1140 -397 1260 -455 1252 b -442 819 -538 1043 -553 910 b 120 792 -347 741 -165 733 b 1042 830 585 889 805 934 b 1235 314 1246 740 1286 504 b 881 -23 1177 102 1023 -46 b 731 149 783 -6 742 52 b 728 214 729 165 728 185 l 728 390 b 450 647 728 602 513 638 b 103 602 339 663 144 693 b 202 442 69 526 197 390 b 236 512 205 480 217 494 b 436 577 266 540 343 587 b 440 420 597 561 574 435 b 31 188 244 398 36 362 b 287 1 27 44 165 1 b 491 60 429 2 465 67 b 492 59 491 60 492 59 b 747 -129 514 -22 595 -114 b 1410 331 1200 -176 1369 110 b 1109 947 1451 552 1383 845 z m 483 202 b 352 121 459 156 395 99 b 341 275 309 143 317 228 b 473 356 365 322 430 378 b 483 202 515 335 507 249 z "},"":{"ha":796,"x_min":0,"x_max":0,"o":"m 473 667 b 352 622 406 664 391 644 b 342 847 251 567 348 747 b 84 906 335 956 209 935 b -601 1103 -334 807 -556 982 b -601 1204 -630 1182 -591 1175 b -714 1120 -612 1239 -677 1208 b -649 819 -745 1045 -760 910 b -87 792 -554 741 -373 741 b 58 466 85 823 58 645 b 38 91 58 266 38 132 b 201 -6 38 26 112 -16 b 353 45 322 7 308 65 b 467 0 402 23 404 4 b 773 329 635 -11 773 139 b 473 667 773 519 642 675 z m 397 106 b 298 335 337 106 298 244 b 397 565 298 426 337 565 b 496 335 457 565 496 426 b 397 106 496 244 457 106 z "},"":{"ha":1090,"x_min":0,"x_max":0,"o":"m 768 937 b 179 926 639 979 533 997 b -581 1123 -209 849 -523 992 b -581 1225 -615 1201 -571 1195 b -694 1140 -592 1260 -649 1252 b -637 819 -732 1043 -747 910 b -75 792 -541 741 -359 733 b 727 833 390 889 572 880 b 943 387 928 772 1036 580 b 559 178 872 240 721 164 b 207 333 433 189 299 245 b 156 522 156 381 127 465 b 289 573 183 573 252 578 b 477 464 372 562 450 502 b 489 377 510 418 482 398 b 616 444 502 339 575 390 b 348 674 686 534 550 683 b 13 329 164 665 13 519 b 402 0 13 139 219 13 b 1047 331 874 -32 995 160 b 768 937 1113 546 1018 857 z "},"":{"ha":829,"x_min":0,"x_max":0,"o":"m 765 171 b 756 466 758 238 753 355 b 776 840 763 671 776 799 b 207 926 776 1089 353 955 b -553 1123 -181 849 -496 992 b -553 1225 -587 1201 -543 1195 b -666 1140 -564 1260 -621 1252 b -609 819 -705 1043 -719 910 b -47 792 -513 741 -331 733 b 486 838 166 837 339 908 b 463 622 600 784 563 567 b 341 667 424 644 409 664 b 41 329 172 675 41 519 b 348 0 41 139 179 -11 b 461 45 410 4 412 23 b 613 -6 506 65 492 -2 b 801 86 665 -7 798 21 b 765 171 802 117 770 116 z m 417 106 b 318 335 358 106 318 244 b 417 565 318 426 358 565 b 517 335 477 565 517 426 b 417 106 517 244 477 106 z "},"":{"ha":1118,"x_min":0,"x_max":0,"o":"m 796 937 b 207 926 667 979 561 997 b -553 1123 -181 849 -496 992 b -553 1225 -587 1201 -543 1195 b -666 1140 -564 1260 -621 1252 b -609 819 -705 1043 -719 910 b -47 792 -513 741 -331 733 b 755 833 418 889 600 880 b 959 371 956 772 1038 550 b 621 175 890 215 757 168 b 371 305 414 185 333 262 b 619 406 398 336 539 305 b 424 674 691 495 626 674 b 53 329 241 674 53 519 b 452 -8 53 139 212 4 b 1075 331 908 -29 1023 162 b 796 937 1141 546 1045 857 z m 196 522 b 367 548 225 572 321 563 b 467 412 437 525 486 454 b 274 382 443 360 354 340 b 196 522 218 412 173 481 z "},"":{"ha":829,"x_min":0,"x_max":0,"o":"m 805 93 b 767 223 799 137 767 116 l 767 411 b 493 657 769 600 637 657 b 384 626 445 657 408 641 b 356 847 297 573 362 747 b 98 906 349 956 223 935 b -587 1103 -320 807 -542 982 b -587 1204 -616 1182 -577 1175 b -700 1120 -598 1239 -663 1208 b -635 819 -731 1045 -746 910 b -74 792 -540 741 -359 741 b 62 716 9 807 51 775 b 72 465 73 653 72 568 b 52 90 72 265 52 131 b 215 -7 52 26 125 -7 b 378 90 305 -7 378 26 b 381 359 378 124 355 193 b 538 557 411 547 485 608 b 482 140 608 489 491 289 b 625 -3 477 55 546 -3 b 805 93 728 -3 813 42 z "},"":{"ha":1031,"x_min":0,"x_max":0,"o":"m 197 691 b 353 795 283 691 353 738 b 197 899 353 852 283 899 b 42 795 111 899 42 852 b 197 691 42 738 111 691 z m 696 1021 b 72 990 539 1071 426 1060 b -595 1197 -316 912 -537 1066 b -595 1299 -628 1275 -585 1270 b -708 1214 -605 1334 -663 1326 b -651 894 -746 1118 -761 984 b -89 866 -555 815 -373 807 b 624 923 163 919 402 978 b 834 382 872 861 885 572 b 468 52 776 169 610 29 b 341 340 308 76 341 300 b 360 568 342 470 366 516 b 34 569 346 686 48 687 b 54 326 28 518 54 467 b 333 -55 54 185 54 -5 b 996 405 782 -136 955 184 b 696 1021 1037 627 975 932 z "},"":{"ha":1196,"x_min":0,"x_max":0,"o":"m 349 691 b 504 795 435 691 504 738 b 349 899 504 852 435 899 b 193 795 263 899 193 852 b 349 691 193 738 263 691 z m 882 996 b 265 1000 760 1045 619 1071 b -386 1197 -181 910 -329 1066 b -386 1299 -420 1275 -377 1270 b -499 1214 -397 1334 -455 1326 b -442 894 -538 1118 -553 984 b 120 866 -347 815 -165 807 b 797 918 385 922 587 1006 b 988 388 1031 821 1039 578 b 634 52 930 176 785 41 b 489 326 480 62 483 171 b 512 561 495 470 519 509 b 186 573 493 691 197 691 b 203 326 182 525 201 470 b 304 -18 205 164 256 58 b 149 -327 171 -60 32 -203 b 515 -70 248 -432 516 -318 b 515 -53 515 -64 515 -59 b 1163 405 984 18 1122 186 b 882 996 1204 627 1124 899 z m 371 -213 b 289 -196 348 -240 302 -243 b 354 -93 274 -144 316 -81 b 371 -213 387 -103 400 -177 z "},"":{"ha":819,"x_min":0,"x_max":0,"o":"m 796 589 b 435 589 810 699 435 682 b 369 371 436 477 419 370 b 337 503 320 373 331 432 b 342 847 340 542 348 726 b 84 906 337 956 209 935 b -601 1103 -334 807 -556 982 b -601 1204 -630 1182 -591 1175 b -714 1120 -612 1239 -677 1208 b -649 819 -745 1045 -760 910 b -87 792 -554 741 -373 741 b 50 707 -1 808 35 770 b 59 527 54 658 57 598 b 58 466 58 507 58 486 l 59 466 b 59 466 59 466 59 466 b 39 91 59 266 39 132 b 203 -6 39 26 112 -6 b 366 91 293 -6 366 26 b 365 98 366 93 365 95 b 366 97 365 97 366 97 b 436 345 366 253 391 346 b 472 141 478 343 486 298 b 615 -2 464 56 536 -2 b 795 94 718 -2 803 43 b 757 224 789 138 757 117 l 757 297 b 642 399 747 424 648 378 b 796 589 634 428 771 402 z "},"":{"ha":376,"x_min":0,"x_max":0,"o":"m 334 466 b 330 855 331 646 368 783 b 71 906 289 932 187 933 b -613 1103 -346 807 -569 982 b -613 1204 -643 1182 -604 1175 b -726 1120 -624 1239 -689 1208 b -662 819 -757 1045 -772 910 b -100 792 -566 741 -386 741 b 39 700 -10 808 25 768 b 48 466 42 658 48 466 b 28 91 48 266 28 132 b 191 -6 28 26 101 -6 b 354 91 281 -6 354 26 b 334 466 354 132 338 266 z "},"":{"ha":1828,"x_min":0,"x_max":0,"o":"m 1494 947 b 556 926 1275 1029 915 969 b -469 1123 -92 849 -412 992 b -469 1225 -503 1201 -460 1195 b -582 1140 -480 1260 -537 1252 b -549 821 -621 1043 -627 910 b 302 792 -423 675 14 762 b 1427 830 883 854 1190 934 b 1620 314 1631 740 1684 500 b 1313 -23 1527 45 1435 -10 b 1136 219 1224 -32 1134 -13 b 1159 411 1137 266 1159 411 b 885 657 1160 600 1026 688 b 709 596 786 636 741 561 b 479 657 654 658 575 680 b 343 611 381 634 376 577 b 38 569 271 683 50 671 b 58 326 32 518 58 467 b 38 83 58 185 32 133 b 262 -1 47 5 173 -24 b 363 90 321 11 363 41 b 357 282 363 117 346 160 b 519 561 377 516 454 611 b 468 197 594 503 509 350 b 444 83 454 147 442 112 b 668 -1 449 5 579 -24 b 769 90 728 11 769 41 b 763 282 769 117 753 160 b 925 561 783 516 860 611 b 874 140 1006 498 884 302 b 1132 -129 864 -20 938 -110 b 1795 331 1585 -176 1754 110 b 1494 947 1836 552 1768 844 z "},"":{"ha":1415,"x_min":0,"x_max":0,"o":"m 1082 947 b 346 926 862 1029 700 997 b -414 1123 -42 849 -357 992 b -414 1225 -448 1201 -405 1195 b -527 1140 -425 1260 -482 1252 b -470 819 -566 1043 -580 910 b 92 792 -374 741 -192 733 b 1015 830 557 889 777 934 b 1207 314 1219 740 1257 505 b 853 -23 1168 162 1073 -58 b 757 411 649 11 742 301 b 483 657 783 598 624 688 b 347 611 385 636 380 577 b 43 569 276 683 55 671 b 63 326 37 518 63 467 b 43 83 63 185 37 133 b 266 -1 52 5 178 -24 b 368 90 326 11 368 41 b 362 282 368 117 351 160 b 523 561 381 516 459 611 b 492 144 605 498 508 306 b 770 -133 482 34 593 -122 b 1382 331 1160 -159 1341 110 b 1082 947 1423 552 1356 844 z "},"":{"ha":1307,"x_min":0,"x_max":0,"o":"m 1012 947 b 276 926 793 1028 630 997 b -484 1123 -111 849 -426 992 b -483 1225 -517 1201 -474 1195 b -596 1140 -494 1260 -552 1252 b -539 819 -635 1043 -650 910 b 22 792 -444 741 -262 733 b 931 844 487 889 690 940 b 938 284 1215 730 1233 293 b 725 462 803 281 758 404 b 387 667 657 579 539 667 b 21 329 185 667 21 524 b 387 -9 21 133 185 -9 b 733 223 542 -9 701 87 b 1261 431 853 122 1173 198 b 1012 947 1327 606 1256 857 z m 441 98 b 289 306 382 84 310 214 b 333 560 267 398 274 546 b 485 352 392 573 463 444 b 441 98 506 260 500 112 z "},"":{"ha":1317,"x_min":0,"x_max":0,"o":"m 1026 947 b 290 926 806 1028 644 997 b -470 1123 -97 849 -412 992 b -470 1225 -503 1201 -460 1195 b -583 1140 -480 1260 -538 1252 b -526 819 -621 1043 -636 910 b 36 792 -430 741 -248 733 b 945 844 501 889 704 940 b 952 284 1229 730 1247 293 b 738 463 817 281 738 462 b 458 662 681 584 585 677 b 342 613 409 656 390 635 b 189 664 296 593 310 651 b 26 567 100 674 26 631 b 46 192 26 526 46 392 b 26 -182 46 -12 26 -141 b 189 -279 26 -247 99 -279 b 351 -184 279 -279 351 -248 b 340 36 350 -83 239 91 b 461 -9 379 14 394 -6 b 747 223 597 -15 709 84 b 1275 431 922 112 1191 166 b 1026 947 1331 609 1270 857 z m 385 93 b 286 323 326 93 286 231 b 385 552 286 414 326 552 b 484 323 445 552 484 414 b 385 93 484 231 445 93 z "},"":{"ha":606,"x_min":0,"x_max":0,"o":"m 559 222 b 432 289 523 287 445 327 b 363 204 425 268 427 242 b 199 219 299 165 210 155 b 424 440 186 287 262 368 b 448 568 504 475 498 567 b 368 622 375 568 358 565 b 392 856 389 750 399 800 b 126 906 380 953 246 934 b -559 1103 -292 807 -515 982 b -559 1204 -588 1182 -550 1175 b -672 1120 -570 1239 -635 1208 b -608 819 -703 1045 -718 910 b -46 792 -512 741 -333 751 b 83 553 133 818 89 698 b 66 316 81 509 69 368 b 375 -6 52 110 192 3 b 559 222 577 -15 616 123 z "},"":{"ha":1500,"x_min":0,"x_max":0,"o":"m 1166 947 b 318 926 947 1029 672 997 b -442 1123 -70 849 -385 992 b -442 1225 -476 1201 -432 1195 b -555 1140 -453 1260 -510 1252 b -498 819 -593 1043 -608 910 b 64 792 -402 741 -220 733 b 1117 819 529 889 888 942 b 1308 302 1314 714 1360 492 b 938 -23 1250 90 1080 -45 b 806 340 735 9 806 261 b 829 572 806 488 836 519 b 575 654 819 654 676 678 b 485 564 507 641 485 616 b 490 363 485 537 502 491 b 312 116 468 117 357 63 b 367 512 265 170 343 343 b 205 662 383 628 295 662 b 28 564 87 662 32 627 b 42 436 26 518 41 490 b 42 250 43 386 42 250 b 339 -1 40 53 179 -34 b 487 65 453 22 458 66 b 803 -129 553 63 596 -82 b 1467 331 1212 -223 1426 110 b 1166 947 1508 552 1440 844 z "},"":{"ha":1307,"x_min":0,"x_max":0,"o":"m 1012 947 b 276 926 793 1028 630 997 b -484 1123 -111 849 -426 992 b -483 1225 -517 1201 -474 1195 b -596 1140 -494 1260 -552 1252 b -539 819 -635 1043 -650 910 b 22 792 -444 741 -262 733 b 931 844 487 889 690 940 b 938 284 1215 730 1231 322 b 739 468 806 268 758 356 b 550 654 713 617 650 674 b 446 555 476 640 414 579 b 496 452 463 541 489 527 b 379 153 510 313 450 135 b 354 568 295 174 403 424 b 28 569 313 684 21 687 b 91 326 31 518 62 466 b 329 -4 141 79 204 10 b 640 264 457 -17 569 132 b 1261 431 859 68 1174 200 b 1012 947 1327 606 1256 857 z "},"":{"ha":1717,"x_min":0,"x_max":0,"o":"m 1423 947 b 346 926 1181 1045 876 1031 b -414 1123 -42 850 -357 992 b -414 1225 -448 1201 -405 1195 b -527 1140 -425 1260 -482 1252 b -470 819 -566 1043 -580 910 b 92 792 -374 741 -195 745 b 1341 844 771 905 1056 957 b 1349 284 1626 731 1644 301 b 1137 459 1196 276 1138 374 b 964 654 1136 614 1065 674 b 860 555 891 640 828 579 b 911 452 878 541 903 527 b 793 153 924 313 864 135 b 768 568 709 174 817 424 b 623 654 751 617 689 646 b 557 655 602 659 579 659 b 443 586 500 649 452 626 b 491 358 436 520 475 521 b 381 153 505 222 437 139 b 356 568 297 174 405 424 b 30 569 315 684 23 687 b 93 326 33 518 64 466 b 331 -4 144 79 206 10 b 560 136 417 -13 496 52 b 743 -4 603 40 659 5 b 1053 262 871 -17 982 131 b 1672 431 1277 95 1585 201 b 1423 947 1738 606 1663 849 z "},"":{"ha":1304,"x_min":0,"x_max":0,"o":"m 970 947 b 234 926 751 1029 589 997 b -525 1123 -153 849 -468 992 b -525 1225 -559 1201 -516 1195 b -638 1140 -536 1260 -594 1252 b -581 819 -677 1043 -691 910 b -19 792 -486 741 -304 733 b 903 830 446 889 666 934 b 1096 314 1108 740 1146 505 b 756 54 1029 59 856 33 b 514 330 597 88 513 260 b 748 561 515 394 728 486 b 470 590 780 686 498 694 b 437 385 448 508 507 381 b 390 568 363 389 400 514 b 72 570 364 713 12 688 b 245 327 98 519 150 463 b 45 78 281 274 57 126 b 312 93 16 -40 335 -36 b 325 282 299 165 272 273 b 429 73 381 291 377 220 b 706 -117 469 -43 568 -108 b 1271 331 1075 -141 1230 110 b 970 947 1312 552 1244 845 z "},"":{"ha":1415,"x_min":0,"x_max":0,"o":"m 1082 947 b 346 926 862 1029 700 997 b -414 1123 -42 849 -357 992 b -414 1225 -448 1201 -405 1195 b -527 1140 -425 1260 -482 1252 b -470 819 -566 1043 -580 910 b 92 792 -374 741 -192 733 b 1015 830 557 889 777 934 b 1207 314 1219 740 1257 505 b 876 -20 1168 162 1073 -48 b 773 339 790 -8 760 180 b 811 572 786 487 814 519 b 643 657 807 628 733 658 b 485 573 570 657 491 641 b 489 363 483 545 501 491 b 310 116 466 117 356 63 b 365 512 264 170 341 343 b 204 662 382 628 294 662 b 27 564 86 662 30 627 b 41 436 24 518 40 490 b 41 250 41 386 41 250 b 354 11 39 52 201 -47 b 637 112 512 70 547 126 b 589 -5 689 104 711 -16 b 141 -209 383 13 137 -46 b 376 -367 144 -330 280 -367 b 741 -130 501 -367 676 -297 b 770 -133 750 -132 760 -133 b 1382 331 1160 -159 1341 110 b 1082 947 1423 552 1356 845 z m 349 -211 b 618 -101 274 -130 605 -44 b 349 -211 627 -139 419 -285 z "}}}
